<svg width="98" height="60" viewBox="0 0 98 60" fill="none" xmlns="http://www.w3.org/2000/svg"><path d="M0 56.031h2.083c.15 1.333 1.46 2.207 3.25 2.207 1.712 0 2.948-.874 2.948-2.087 0-1.044-.745-1.67-2.505-2.088l-1.764-.417C1.516 53.05.36 51.893.36 50.02c0-2.32 2.044-3.912 4.944-3.912s4.844 1.593 4.91 3.912H8.157c-.12-1.341-1.242-2.152-2.882-2.152-1.64 0-2.76.82-2.76 2.012 0 .951.717 1.512 2.468 1.938l1.507.364c2.789.653 3.946 1.762 3.946 3.727 0 2.517-2.025 4.091-5.245 4.091C2.167 60 .133 58.462 0 56.031Zm11.498 3.745V49.97h1.94v1.648h.05a2.901 2.901 0 0 1 1.117-1.349 2.95 2.95 0 0 1 1.698-.47c1.374 0 2.372.701 2.77 1.92h.045c.26-.59.695-1.088 1.246-1.43a3.264 3.264 0 0 1 1.844-.49c1.96 0 3.24 1.289 3.24 3.236v6.735h-2.043v-6.26c0-1.267-.687-1.995-1.893-1.995s-2.044.895-2.044 2.126v6.121h-1.984v-6.386c0-1.127-.723-1.846-1.872-1.846-1.206 0-2.065.933-2.065 2.192v6.055h-2.05Zm18.81-1.425c1.42 0 2.532-.969 2.532-2.245v-.77l-2.438.15c-1.206.086-1.902.617-1.902 1.455 0 .838.714 1.41 1.808 1.41Zm-.567 1.592c-1.94 0-3.297-1.192-3.297-2.951 0-1.76 1.329-2.767 3.683-2.899l2.713-.158v-.754c0-1.091-.744-1.744-1.986-1.744-1.179 0-1.914.56-2.092 1.434h-1.933c.112-1.768 1.637-3.074 4.088-3.074 2.412 0 3.937 1.258 3.937 3.223v6.756h-1.95v-1.613h-.045a3.526 3.526 0 0 1-1.314 1.31 3.575 3.575 0 0 1-1.804.47Zm6.524-.167V49.97h1.941v1.666h.049c.124-.529.428-1 .862-1.332.434-.333.97-.508 1.52-.495.233.003.466.028.696.074v1.876a2.91 2.91 0 0 0-.905-.114c-1.308 0-2.11.868-2.11 2.255v5.87l-2.053.006Zm6.33-12.123h2.044v2.317h1.884v1.592H44.64v5.403c0 .85.377 1.231 1.206 1.231a4.27 4.27 0 0 0 .67-.048v1.596a5.852 5.852 0 0 1-1.131.092c-2.005 0-2.788-.754-2.788-2.648v-5.62h-1.441V49.97h1.44v-2.317Zm16.367 1.986-2.93 10.137h-2l-3.647-13.444h2.195l2.514 10.528h.072l2.873-10.528h1.95l2.883 10.528h.075l2.517-10.528h2.195l-3.675 13.444h-1.975L59.07 49.64h-.108Zm11.714 8.712c1.423 0 2.532-.969 2.532-2.245v-.77l-2.438.15c-1.206.086-1.903.617-1.903 1.455 0 .838.73 1.41 1.824 1.41h-.015Zm-.567 1.592c-1.941 0-3.297-1.192-3.297-2.951 0-1.76 1.329-2.767 3.683-2.899l2.713-.158v-.754c0-1.091-.744-1.744-1.986-1.744-1.179 0-1.911.56-2.092 1.434h-1.905c.111-1.768 1.636-3.074 4.087-3.074 2.412 0 3.937 1.258 3.937 3.223v6.756H73.3v-1.613h-.045c-.313.547-.768 1-1.319 1.314a3.574 3.574 0 0 1-1.81.466h-.016Zm6.6-.167V46.332h2.034v13.444h-2.035Zm3.617 0V46.332h2.035v13.444h-2.035Zm7.693-8.348c-1.423 0-2.412 1.07-2.526 2.552h4.956c-.013-1.509-.986-2.561-2.41-2.561l-.02.009Zm2.411 5.477h1.933c-.284 1.789-1.999 3.068-4.269 3.068-2.912 0-4.672-1.95-4.672-5.042 0-3.092 1.79-5.125 4.588-5.125 2.75 0 4.464 1.92 4.464 4.893v.688h-6.97v.123c0 1.705 1.038 2.832 2.669 2.832 1.157-.009 2.013-.587 2.288-1.446l-.03.009Zm3.642-9.243h2.044v2.308H98v1.592h-1.884v5.403c0 .85.377 1.231 1.206 1.231.224.002.447-.014.669-.048v1.596a5.852 5.852 0 0 1-1.13.092c-2.005 0-2.789-.754-2.789-2.648v-5.62h-1.44V49.97h1.44v-2.308Z" fill="#fff"/><path fill-rule="evenodd" clip-rule="evenodd" d="M65.022 21.286a12.405 12.405 0 0 1-4.135 7.572 12.48 12.48 0 0 1-8.084 3.063H38.457a5.347 5.347 0 0 1-3.655-1.621 5.314 5.314 0 0 1 0-7.396 5.347 5.347 0 0 1 3.655-1.621h14.346c.459-.02.892-.215 1.21-.545a1.772 1.772 0 0 0-1.21-3.002H45.51a5.348 5.348 0 0 1-3.776-1.56 5.314 5.314 0 0 1 0-7.526 5.348 5.348 0 0 1 3.776-1.559h14.247a1.78 1.78 0 0 0 1.248-.54 1.77 1.77 0 0 0-.043-2.506 1.78 1.78 0 0 0-1.266-.498H45.603c-2.05 0-4.037.706-5.625 1.997a8.868 8.868 0 0 0-3.094 5.091c-.189.958-.807 1.8-1.803 1.8-.996 0-1.947-.849-1.806-1.8a12.405 12.405 0 0 1 4.138-7.575A12.48 12.48 0 0 1 45.503 0H59.85a5.347 5.347 0 0 1 3.655 1.621 5.313 5.313 0 0 1 0 7.396 5.347 5.347 0 0 1-3.655 1.621H45.51c-.459.02-.892.215-1.21.546a1.773 1.773 0 0 0 1.21 3.001h7.293c1.416 0 2.774.561 3.776 1.56a5.313 5.313 0 0 1 0 7.526 5.348 5.348 0 0 1-3.776 1.56H38.547a1.78 1.78 0 0 0-1.248.54 1.769 1.769 0 0 0 .043 2.506c.339.326.794.505 1.266.497H52.7c2.05 0 4.036-.705 5.625-1.997a8.868 8.868 0 0 0 3.093-5.09c.189-.959.807-1.802 1.803-1.802.996 0 1.941.85 1.8 1.801Z" fill="#FF4E16"/></svg>