<svg width="61" height="61" viewBox="0 0 61 61" fill="none" xmlns="http://www.w3.org/2000/svg"><path d="M31.73 49.673V31.73h-2.54v17.943a5.077 5.077 0 1 0 2.539 0Z" fill="url(#a)"/><path d="M53.306 49.492a5.023 5.023 0 0 0-2.563.72l-3.783-3.784V31.73h-2.54v15.23c0 .337.134.66.372.898l4.156 4.155a5.009 5.009 0 0 0-.72 2.563 5.077 5.077 0 1 0 5.077-5.077v-.007Z" fill="url(#b)"/><path d="M13.96 31.73v14.705l-3.783 3.777a5.023 5.023 0 0 0-2.562-.72 5.077 5.077 0 1 0 5.077 5.077 5.01 5.01 0 0 0-.72-2.562l4.155-4.158c.238-.238.372-.56.372-.895V31.73h-2.538Z" fill="url(#c)"/><g filter="url(#d)"><path d="M46.96 11.417c-.15 0-.297 0-.446.011a17.85 17.85 0 0 0-13.28-9.929l-.3-.044a16.528 16.528 0 0 0-4.003-.114 17.21 17.21 0 0 0-1.047.126l-.18.028a17.856 17.856 0 0 0-13.298 9.928c-.148 0-.295-.006-.445-.006a12.692 12.692 0 1 0 0 25.383H46.96a12.692 12.692 0 0 0 0-25.383Z" fill="#1D1D1D" fill-opacity=".05"/><path d="M46.96 11.417c-.15 0-.297 0-.446.011a17.85 17.85 0 0 0-13.28-9.929l-.3-.044a16.528 16.528 0 0 0-4.003-.114 17.21 17.21 0 0 0-1.047.126l-.18.028a17.856 17.856 0 0 0-13.298 9.928c-.148 0-.295-.006-.445-.006a12.692 12.692 0 1 0 0 25.383H46.96a12.692 12.692 0 0 0 0-25.383Z" fill="url(#e)" fill-opacity=".2"/><path d="m46.38 11.493.043.092.103-.008c.142-.01.283-.01.434-.01a12.542 12.542 0 1 1 0 25.083H13.961a12.542 12.542 0 1 1 .22-25.08h.001c.074.001.149.003.224.003h.095l.04-.085a17.705 17.705 0 0 1 13.186-9.845l.178-.027h.001c.412-.059.724-.101 1.037-.126h.002a16.376 16.376 0 0 1 3.041 0h.002c.303.025.611.067.924.113l.298.044a17.699 17.699 0 0 1 13.17 9.846Z" stroke="url(#f)" stroke-opacity=".1" stroke-width=".3"/></g><g filter="url(#g)"><path fill-rule="evenodd" clip-rule="evenodd" d="M40.99 24.67a8.54 8.54 0 0 1-2.863 5.219A8.663 8.663 0 0 1 32.53 32h-9.932a3.71 3.71 0 0 1-2.531-1.117 3.653 3.653 0 0 1-1.038-2.549c0-.95.372-1.864 1.038-2.548a3.71 3.71 0 0 1 2.53-1.118h9.933c.318-.013.618-.148.838-.376a1.219 1.219 0 0 0 0-1.693 1.238 1.238 0 0 0-.838-.376h-5.05c-.98 0-1.92-.386-2.613-1.074a3.654 3.654 0 0 1-1.083-2.594c0-.973.39-1.905 1.083-2.594a3.712 3.712 0 0 1 2.614-1.074h9.864c.326-.005.637-.14.864-.372a1.216 1.216 0 0 0-.03-1.727 1.236 1.236 0 0 0-.877-.343h-9.757a6.189 6.189 0 0 0-3.894 1.376 6.107 6.107 0 0 0-2.142 3.509c-.131.66-.559 1.24-1.249 1.24-.69 0-1.348-.585-1.25-1.24a8.54 8.54 0 0 1 2.865-5.221A8.663 8.663 0 0 1 27.476 10h9.933a3.71 3.71 0 0 1 2.53 1.117 3.653 3.653 0 0 1 1.039 2.549c0 .95-.373 1.864-1.038 2.548a3.71 3.71 0 0 1-2.531 1.118H27.48a1.237 1.237 0 0 0-.838.376 1.219 1.219 0 0 0 0 1.693c.22.227.52.362.838.376h5.05c.98 0 1.92.386 2.613 1.074a3.654 3.654 0 0 1 1.083 2.594c0 .973-.39 1.905-1.083 2.593a3.711 3.711 0 0 1-2.614 1.075h-9.87c-.327.005-.637.14-.864.372a1.216 1.216 0 0 0 .03 1.727c.234.226.55.349.876.343h9.757c1.42 0 2.795-.486 3.895-1.376a6.107 6.107 0 0 0 2.142-3.509c.13-.66.558-1.24 1.248-1.24s1.344.585 1.246 1.24Z" fill="#FF4E16"/></g><defs><linearGradient id="a" x1="25.384" y1="31.73" x2="38.008" y2="32.895" gradientUnits="userSpaceOnUse"><stop stop-color="#F7931A"/><stop offset=".703" stop-color="#FF4E16"/></linearGradient><linearGradient id="b" x1="44.421" y1="31.73" x2="61.65" y2="33.917" gradientUnits="userSpaceOnUse"><stop stop-color="#F7931A"/><stop offset=".703" stop-color="#FF4E16"/></linearGradient><linearGradient id="c" x1="2.538" y1="31.73" x2="19.766" y2="33.918" gradientUnits="userSpaceOnUse"><stop stop-color="#F7931A"/><stop offset=".703" stop-color="#FF4E16"/></linearGradient><linearGradient id="e" x1="1.269" y1="1.269" x2="63.622" y2="27.284" gradientUnits="userSpaceOnUse"><stop stop-color="#525252" stop-opacity=".37"/><stop offset=".776" stop-color="#FF4E16" stop-opacity=".55"/></linearGradient><linearGradient id="f" x1="3.094" y1="2.884" x2="59.652" y2="2.884" gradientUnits="userSpaceOnUse"><stop stop-color="#E9D100"/><stop offset=".656" stop-color="#FF4E16"/></linearGradient><filter id="d" x="-4.731" y="-4.731" width="70.383" height="47.531" filterUnits="userSpaceOnUse" color-interpolation-filters="sRGB"><feFlood flood-opacity="0" result="BackgroundImageFix"/><feGaussianBlur in="BackgroundImageFix" stdDeviation="3"/><feComposite in2="SourceAlpha" operator="in" result="effect1_backgroundBlur_202_6002"/><feBlend in="SourceGraphic" in2="effect1_backgroundBlur_202_6002" result="shape"/><feColorMatrix in="SourceAlpha" values="0 0 0 0 0 0 0 0 0 0 0 0 0 0 0 0 0 0 127 0" result="hardAlpha"/><feOffset dy="1"/><feGaussianBlur stdDeviation="1.5"/><feComposite in2="hardAlpha" operator="arithmetic" k2="-1" k3="1"/><feColorMatrix values="0 0 0 0 1 0 0 0 0 1 0 0 0 0 1 0 0 0 0.15 0"/><feBlend in2="shape" result="effect2_innerShadow_202_6002"/></filter><filter id="g" x="19" y="10" width="22" height="24" filterUnits="userSpaceOnUse" color-interpolation-filters="sRGB"><feFlood flood-opacity="0" result="BackgroundImageFix"/><feBlend in="SourceGraphic" in2="BackgroundImageFix" result="shape"/><feColorMatrix in="SourceAlpha" values="0 0 0 0 0 0 0 0 0 0 0 0 0 0 0 0 0 0 127 0" result="hardAlpha"/><feOffset dy="2"/><feGaussianBlur stdDeviation="1"/><feComposite in2="hardAlpha" operator="arithmetic" k2="-1" k3="1"/><feColorMatrix values="0 0 0 0 1 0 0 0 0 1 0 0 0 0 1 0 0 0 0.25 0"/><feBlend in2="shape" result="effect1_innerShadow_202_6002"/></filter></defs></svg>