<svg width="60" height="60" viewBox="0 0 60 60" fill="none" xmlns="http://www.w3.org/2000/svg"><g clip-path="url(#a)"><path d="M8.889 41.915a2.611 2.611 0 0 1-2.102-4.161 12.938 12.938 0 0 0 2.538-7.705 12.943 12.943 0 0 0-2.538-7.704 2.613 2.613 0 1 1 4.21-3.096 18.133 18.133 0 0 1 3.552 10.8 18.133 18.133 0 0 1-3.552 10.8 2.611 2.611 0 0 1-2.108 1.066Z" fill="url(#b)"/><path d="M20.554 47.962a2.612 2.612 0 0 1-2.205-4.008 26.004 26.004 0 0 0 4.033-13.905 26.005 26.005 0 0 0-4.04-13.904 2.612 2.612 0 0 1 4.415-2.79 31.221 31.221 0 0 1 4.849 16.694 31.221 31.221 0 0 1-4.849 16.696 2.61 2.61 0 0 1-2.203 1.217Z" fill="url(#c)"/><path d="M32.155 53.98a2.612 2.612 0 0 1-2.241-3.95 39.116 39.116 0 0 0 5.526-19.98 39.116 39.116 0 0 0-5.526-19.98 2.613 2.613 0 1 1 4.488-2.67 44.326 44.326 0 0 1 6.261 22.65 44.325 44.325 0 0 1-6.267 22.656 2.611 2.611 0 0 1-2.241 1.276Z" fill="url(#d)"/><path opacity=".1" d="M43.765 60a2.612 2.612 0 0 1-2.259-3.917 52.21 52.21 0 0 0 6.995-26.034 52.365 52.365 0 0 0-6.995-26.116A2.612 2.612 0 1 1 46.03 1.32a57.575 57.575 0 0 1 7.696 28.728 57.424 57.424 0 0 1-7.696 28.644A2.612 2.612 0 0 1 43.765 60Z" fill="url(#e)"/><g filter="url(#f)"><path d="M32.155 53.98a2.613 2.613 0 0 1-2.24-3.95 39.116 39.116 0 0 0 5.526-19.98 39.116 39.116 0 0 0-5.527-19.98 2.613 2.613 0 1 1 4.489-2.67 44.326 44.326 0 0 1 6.261 22.65 44.325 44.325 0 0 1-6.268 22.656 2.612 2.612 0 0 1-2.24 1.276Z" fill="#1D1D1D" fill-opacity=".05"/><path d="M32.155 53.98a2.613 2.613 0 0 1-2.24-3.95 39.116 39.116 0 0 0 5.526-19.98 39.116 39.116 0 0 0-5.527-19.98 2.613 2.613 0 1 1 4.489-2.67 44.326 44.326 0 0 1 6.261 22.65 44.325 44.325 0 0 1-6.268 22.656 2.612 2.612 0 0 1-2.24 1.276Z" fill="url(#g)" fill-opacity=".2"/><path d="M30.043 50.106a39.266 39.266 0 0 0 5.548-20.056 39.266 39.266 0 0 0-5.548-20.056v-.001a2.464 2.464 0 0 1 .846-3.39 2.462 2.462 0 0 1 3.384.871v.002a44.177 44.177 0 0 1 6.241 22.574 44.175 44.175 0 0 1-6.247 22.578 2.462 2.462 0 0 1-2.112 1.203 2.461 2.461 0 0 1-2.112-3.725Z" stroke="url(#h)" stroke-opacity=".1" stroke-width=".3"/></g><g filter="url(#i)"><path d="M43.764 60a2.612 2.612 0 0 1-2.259-3.917A52.211 52.211 0 0 0 48.5 30.05a52.363 52.363 0 0 0-6.995-26.117 2.61 2.61 0 1 1 4.523-2.612 57.575 57.575 0 0 1 7.696 28.729 57.424 57.424 0 0 1-7.695 28.643 2.611 2.611 0 0 1-2.265 1.308Z" fill="#1D1D1D" fill-opacity=".05"/><path d="M43.764 60a2.612 2.612 0 0 1-2.259-3.917A52.211 52.211 0 0 0 48.5 30.05a52.363 52.363 0 0 0-6.995-26.117 2.61 2.61 0 1 1 4.523-2.612 57.575 57.575 0 0 1 7.696 28.729 57.424 57.424 0 0 1-7.695 28.643 2.611 2.611 0 0 1-2.265 1.308Z" fill="url(#j)" fill-opacity=".2"/><path d="M48.65 30.05a52.515 52.515 0 0 0-7.015-26.192 2.462 2.462 0 1 1 4.263-2.463v.001a57.425 57.425 0 0 1 7.676 28.654 57.273 57.273 0 0 1-7.675 28.568 2.462 2.462 0 1 1-4.264-2.46 52.36 52.36 0 0 0 7.016-26.108Z" stroke="url(#k)" stroke-opacity=".1" stroke-width=".3"/></g></g><defs><linearGradient id="b" x1="6.277" y1="18.184" x2="16.568" y2="19.094" gradientUnits="userSpaceOnUse"><stop stop-color="#FFD39E"/><stop offset=".703" stop-color="#FF4E16"/></linearGradient><linearGradient id="c" x1="17.944" y1="12.163" x2="30.002" y2="12.989" gradientUnits="userSpaceOnUse"><stop stop-color="#FFD39E"/><stop offset=".703" stop-color="#FF4E16"/></linearGradient><linearGradient id="d" x1="29.536" y1="6.106" x2="43.441" y2="6.927" gradientUnits="userSpaceOnUse"><stop stop-color="#FFD39E"/><stop offset=".703" stop-color="#FF4E16"/></linearGradient><linearGradient id="e" x1="41.148" y1="0" x2="56.874" y2=".837" gradientUnits="userSpaceOnUse"><stop stop-color="#FFD39E"/><stop offset=".703" stop-color="#FF4E16"/></linearGradient><linearGradient id="g" x1="29.537" y1="6.106" x2="43.441" y2="6.927" gradientUnits="userSpaceOnUse"><stop stop-color="#E97000"/><stop offset=".776" stop-color="#FF4E16" stop-opacity=".02"/></linearGradient><linearGradient id="h" x1="29.884" y1="8.282" x2="40.664" y2="8.282" gradientUnits="userSpaceOnUse"><stop stop-color="#FF7816" stop-opacity=".44"/><stop offset=".656" stop-color="#FFD39E"/></linearGradient><linearGradient id="j" x1="41.147" y1="0" x2="56.873" y2=".838" gradientUnits="userSpaceOnUse"><stop stop-color="#E97000"/><stop offset=".776" stop-color="#FF4E16" stop-opacity=".02"/></linearGradient><linearGradient id="k" x1="41.539" y1="2.728" x2="53.724" y2="2.728" gradientUnits="userSpaceOnUse"><stop stop-color="#FF7816" stop-opacity=".44"/><stop offset=".656" stop-color="#FFD39E"/></linearGradient><filter id="f" x="23.537" y=".106" width="23.127" height="59.874" filterUnits="userSpaceOnUse" color-interpolation-filters="sRGB"><feFlood flood-opacity="0" result="BackgroundImageFix"/><feGaussianBlur in="BackgroundImageFix" stdDeviation="3"/><feComposite in2="SourceAlpha" operator="in" result="effect1_backgroundBlur_206_6360"/><feBlend in="SourceGraphic" in2="effect1_backgroundBlur_206_6360" result="shape"/><feColorMatrix in="SourceAlpha" values="0 0 0 0 0 0 0 0 0 0 0 0 0 0 0 0 0 0 127 0" result="hardAlpha"/><feOffset dy="1"/><feGaussianBlur stdDeviation="1.5"/><feComposite in2="hardAlpha" operator="arithmetic" k2="-1" k3="1"/><feColorMatrix values="0 0 0 0 1 0 0 0 0 1 0 0 0 0 1 0 0 0 0.15 0"/><feBlend in2="shape" result="effect2_innerShadow_206_6360"/></filter><filter id="i" x="35.147" y="-6" width="24.577" height="72" filterUnits="userSpaceOnUse" color-interpolation-filters="sRGB"><feFlood flood-opacity="0" result="BackgroundImageFix"/><feGaussianBlur in="BackgroundImageFix" stdDeviation="3"/><feComposite in2="SourceAlpha" operator="in" result="effect1_backgroundBlur_206_6360"/><feBlend in="SourceGraphic" in2="effect1_backgroundBlur_206_6360" result="shape"/><feColorMatrix in="SourceAlpha" values="0 0 0 0 0 0 0 0 0 0 0 0 0 0 0 0 0 0 127 0" result="hardAlpha"/><feOffset dy="1"/><feGaussianBlur stdDeviation="1.5"/><feComposite in2="hardAlpha" operator="arithmetic" k2="-1" k3="1"/><feColorMatrix values="0 0 0 0 1 0 0 0 0 1 0 0 0 0 1 0 0 0 0.15 0"/><feBlend in2="shape" result="effect2_innerShadow_206_6360"/></filter><clipPath id="a"><path fill="#fff" d="M0 0h60v60H0z"/></clipPath></defs></svg>