<svg width="44" height="45" viewBox="0 0 44 45" fill="none" xmlns="http://www.w3.org/2000/svg"><g clip-path="url(#a)"><path d="M22 32.45c-2.536 0-4.59-1.733-4.59-3.872V16.962c0-2.139 2.054-3.872 4.59-3.872s4.59 1.733 4.59 3.872v11.616c0 2.139-2.054 3.872-4.59 3.872Z" fill="url(#b)"/><g filter="url(#c)"><path d="M8.608 14.161V31.38c0 7.396 5.995 13.391 13.391 13.391v-44C14.603.77 8.608 6.765 8.608 14.161Z" fill="#1D1D1D" fill-opacity=".05"/><path d="M8.608 14.161V31.38c0 7.396 5.995 13.391 13.391 13.391v-44C14.603.77 8.608 6.765 8.608 14.161Z" fill="url(#d)" fill-opacity=".2"/><path d="M35.391 31.379V14.16C35.391 6.766 29.395.77 22 .77v44c7.396 0 13.392-5.995 13.392-13.391Z" fill="#1D1D1D" fill-opacity=".05"/><path d="M35.391 31.379V14.16C35.391 6.766 29.395.77 22 .77v44c7.396 0 13.392-5.995 13.392-13.391Z" fill="url(#e)" fill-opacity=".2"/><path d="M8.758 31.379V14.16C8.758 6.897 14.605 1 21.849.92v43.698c-7.244-.08-13.091-5.977-13.091-13.24Zm13.391 13.24V.921c7.244.08 13.092 5.977 13.092 13.24V31.38c0 7.263-5.848 13.16-13.092 13.24Z" stroke="url(#f)" stroke-opacity=".1" stroke-width=".3"/></g><g filter="url(#g)"><path d="M22 18.944a1.913 1.913 0 0 1-1.912-1.913v-5.74a1.913 1.913 0 1 1 3.826 0v5.74a1.913 1.913 0 0 1-1.913 1.913Z" fill="#fff" fill-opacity=".16"/></g></g><defs><linearGradient id="b" x1="17.41" y1="13.09" x2="28.757" y2="14.457" gradientUnits="userSpaceOnUse"><stop stop-color="#F7931A"/><stop offset=".703" stop-color="#FF4E16"/></linearGradient><linearGradient id="d" x1="8.608" y1=".77" x2="41.408" y2="5.84" gradientUnits="userSpaceOnUse"><stop stop-color="#FFD39E"/><stop offset=".776" stop-color="#FF7816" stop-opacity=".27"/></linearGradient><linearGradient id="e" x1="8.608" y1=".77" x2="41.408" y2="5.84" gradientUnits="userSpaceOnUse"><stop stop-color="#FFD39E"/><stop offset=".776" stop-color="#FF7816" stop-opacity=".27"/></linearGradient><linearGradient id="f" x1="9.445" y1="2.77" x2="39.05" y2="39.27" gradientUnits="userSpaceOnUse"><stop stop-color="#E9D100" stop-opacity=".58"/><stop offset=".656" stop-color="#FF4E16"/></linearGradient><filter id="c" x="2.608" y="-5.23" width="38.783" height="56" filterUnits="userSpaceOnUse" color-interpolation-filters="sRGB"><feFlood flood-opacity="0" result="BackgroundImageFix"/><feGaussianBlur in="BackgroundImageFix" stdDeviation="3"/><feComposite in2="SourceAlpha" operator="in" result="effect1_backgroundBlur_202_5952"/><feBlend in="SourceGraphic" in2="effect1_backgroundBlur_202_5952" result="shape"/><feColorMatrix in="SourceAlpha" values="0 0 0 0 0 0 0 0 0 0 0 0 0 0 0 0 0 0 127 0" result="hardAlpha"/><feOffset dy="1"/><feGaussianBlur stdDeviation="1.5"/><feComposite in2="hardAlpha" operator="arithmetic" k2="-1" k3="1"/><feColorMatrix values="0 0 0 0 1 0 0 0 0 1 0 0 0 0 1 0 0 0 0.15 0"/><feBlend in2="shape" result="effect2_innerShadow_202_5952"/></filter><filter id="g" x="20.088" y="9.379" width="3.826" height="11.565" filterUnits="userSpaceOnUse" color-interpolation-filters="sRGB"><feFlood flood-opacity="0" result="BackgroundImageFix"/><feBlend in="SourceGraphic" in2="BackgroundImageFix" result="shape"/><feColorMatrix in="SourceAlpha" values="0 0 0 0 0 0 0 0 0 0 0 0 0 0 0 0 0 0 127 0" result="hardAlpha"/><feOffset dy="2"/><feGaussianBlur stdDeviation="1"/><feComposite in2="hardAlpha" operator="arithmetic" k2="-1" k3="1"/><feColorMatrix values="0 0 0 0 1 0 0 0 0 1 0 0 0 0 1 0 0 0 0.4 0"/><feBlend in2="shape" result="effect1_innerShadow_202_5952"/></filter><clipPath id="a"><path fill="#fff" transform="translate(0 .77)" d="M0 0h44v44H0z"/></clipPath></defs></svg>