<svg width="138" height="24" viewBox="0 0 138 24" fill="none" xmlns="http://www.w3.org/2000/svg"><path d="M32.704 15.394h2.236c.162 1.48 1.569 2.453 3.491 2.453 1.842 0 3.168-.973 3.168-2.308 0-1.16-.8-1.853-2.692-2.33l-1.892-.465c-2.682-.663-3.926-1.947-3.926-4.027 0-2.578 2.196-4.348 5.312-4.348 3.086 0 5.201 1.77 5.272 4.348h-2.206c-.131-1.491-1.336-2.392-3.096-2.392s-2.965.911-2.965 2.236c0 1.056.769 1.678 2.651 2.154l1.609.403c2.995.725 4.24 1.957 4.24 4.141 0 2.795-2.176 4.545-5.636 4.545-3.238 0-5.424-1.708-5.566-4.41Zm12.351 4.161V8.665h2.084v1.832h.05c.476-1.21 1.59-2.018 3.026-2.018 1.477 0 2.55.776 2.975 2.132h.05c.547-1.325 1.802-2.132 3.32-2.132 2.104 0 3.48 1.428 3.48 3.592v7.484h-2.196V12.61c0-1.408-.738-2.215-2.033-2.215s-2.196.983-2.196 2.36v6.801H51.47v-7.111c0-1.253-.78-2.05-2.014-2.05-1.295 0-2.216 1.035-2.216 2.433v6.728h-2.185Zm20.202-1.583c1.528 0 2.722-1.077 2.722-2.495v-.86l-2.62.166c-1.306.093-2.045.683-2.045 1.615 0 .953.77 1.574 1.943 1.574Zm-.607 1.77c-2.085 0-3.542-1.325-3.542-3.282 0-1.905 1.427-3.074 3.957-3.22l2.914-.175v-.839c0-1.211-.8-1.936-2.135-1.936-1.265 0-2.054.621-2.246 1.595h-2.065c.122-1.967 1.761-3.417 4.392-3.417 2.58 0 4.23 1.398 4.23 3.582v7.505H68.06v-1.79h-.05c-.618 1.21-1.964 1.977-3.36 1.977Zm7.008-.187V8.665h2.084v1.853h.05c.355-1.273 1.306-2.029 2.56-2.029.314 0 .587.052.75.083v2.08c-.173-.072-.557-.124-.982-.124-1.407 0-2.277.963-2.277 2.506v6.521h-2.185Z" fill="#fff"/><path d="M78.473 6.087h2.196v2.578h2.024v1.77h-2.024v6.004c0 .943.405 1.367 1.295 1.367.223 0 .577-.02.719-.052v1.77c-.243.063-.73.104-1.215.104-2.155 0-2.995-.838-2.995-2.94v-6.253h-1.548v-1.77h1.548V6.087ZM96.05 8.292l-3.147 11.263h-2.145L86.822 4.617h2.358l2.701 11.698h.081L95.05 4.617h2.104l3.097 11.698h.08l2.702-11.698h2.358l-3.946 14.938h-2.136L96.151 8.292h-.1Zm12.583 9.68c1.528 0 2.722-1.077 2.722-2.495v-.86l-2.62.166c-1.306.093-2.044.683-2.044 1.615 0 .953.769 1.574 1.942 1.574Zm-.607 1.77c-2.084 0-3.541-1.325-3.541-3.282 0-1.905 1.427-3.074 3.956-3.22l2.914-.175v-.839c0-1.211-.799-1.936-2.135-1.936-1.265 0-2.054.621-2.246 1.595h-2.064c.121-1.967 1.76-3.417 4.391-3.417 2.58 0 4.23 1.398 4.23 3.582v7.505h-2.095v-1.79h-.05c-.618 1.21-1.963 1.977-3.36 1.977Zm7.089-.187V4.617h2.186v14.938h-2.186Zm3.891 0V4.617h2.186v14.938h-2.186Zm8.263-9.285c-1.528 0-2.601 1.19-2.712 2.836h5.322c-.05-1.667-1.082-2.836-2.61-2.836Zm2.6 6.087h2.074c-.303 1.987-2.145 3.406-4.583 3.406-3.127 0-5.019-2.164-5.019-5.601 0-3.416 1.922-5.694 4.928-5.694 2.954 0 4.796 2.133 4.796 5.435v.766h-7.518v.135c0 1.894 1.113 3.147 2.863 3.147 1.245 0 2.166-.642 2.459-1.594Zm3.912-10.27h2.195v2.578H138v1.77h-2.024v6.004c0 .943.405 1.367 1.295 1.367.223 0 .577-.02.719-.052v1.77c-.243.063-.729.104-1.214.104-2.156 0-2.995-.838-2.995-2.94v-6.253h-1.549v-1.77h1.549V6.087Z" fill="#fff"/><path fill-rule="evenodd" clip-rule="evenodd" d="M23.23 16.004a9.402 9.402 0 0 1-3.023 5.693A8.986 8.986 0 0 1 14.293 24H3.801a3.863 3.863 0 0 1-2.674-1.22A4.054 4.054 0 0 1 .031 20c0-1.037.393-2.033 1.096-2.78a3.863 3.863 0 0 1 2.674-1.218h10.492a1.29 1.29 0 0 0 .886-.41 1.357 1.357 0 0 0 0-1.847 1.289 1.289 0 0 0-.886-.41H8.96a3.858 3.858 0 0 1-2.761-1.172 4.052 4.052 0 0 1-1.144-2.83 4.05 4.05 0 0 1 1.144-2.83A3.858 3.858 0 0 1 8.96 5.331h10.42c.345-.006.674-.152.913-.406.24-.254.371-.595.365-.949a1.348 1.348 0 0 0-.396-.935 1.284 1.284 0 0 0-.926-.374H9.027c-1.499 0-2.952.53-4.114 1.501A6.7 6.7 0 0 0 2.65 7.996c-.138.72-.59 1.354-1.319 1.354-.728 0-1.424-.639-1.32-1.354a9.402 9.402 0 0 1 3.026-5.695A8.986 8.986 0 0 1 8.955 0h10.492a3.863 3.863 0 0 1 2.674 1.22A4.054 4.054 0 0 1 23.217 4a4.054 4.054 0 0 1-1.096 2.78 3.863 3.863 0 0 1-2.674 1.218H8.96a1.289 1.289 0 0 0-.885.41 1.357 1.357 0 0 0 0 1.847c.233.249.55.396.885.41h5.335a3.86 3.86 0 0 1 2.761 1.172 4.052 4.052 0 0 1 1.144 2.83 4.057 4.057 0 0 1-1.144 2.83 3.858 3.858 0 0 1-2.761 1.172H3.865a1.286 1.286 0 0 0-.913.406 1.35 1.35 0 0 0-.365.949c.006.353.149.69.397.935.248.246.58.38.926.374h10.308c1.499 0 2.952-.53 4.114-1.501a6.7 6.7 0 0 0 2.262-3.828c.139-.72.59-1.354 1.32-1.354.728 0 1.419.639 1.316 1.354Z" fill="#FF4E16"/></svg>