<svg width="58" height="59" viewBox="0 0 58 59" fill="none" xmlns="http://www.w3.org/2000/svg">
<path d="M29 58.5C25.0113 58.5 21.2573 57.7492 17.7379 56.2476C14.2185 54.746 11.1214 52.6812 8.44659 50.0534C5.81876 47.3786 3.75405 44.2816 2.25243 40.7621C0.750812 37.2427 0 33.4887 0 29.5C0 25.4644 0.750812 21.7104 2.25243 18.2379C3.75405 14.7185 5.81876 11.6448 8.44659 9.01699C11.1214 6.34223 14.2185 4.25405 17.7379 2.75243C21.2573 1.25081 25.0113 0.5 29 0.5C33.0356 0.5 36.7896 1.25081 40.2621 2.75243C43.7815 4.25405 46.8552 6.34223 49.483 9.01699C52.1578 11.6448 54.246 14.7185 55.7476 18.2379C57.2492 21.7104 58 25.4644 58 29.5C58 33.4887 57.2492 37.2427 55.7476 40.7621C54.246 44.2816 52.1578 47.3786 49.483 50.0534C46.8552 52.6812 43.7815 54.746 40.2621 56.2476C36.7896 57.7492 33.0356 58.5 29 58.5ZM29 54.5582C32.4725 54.5582 35.7104 53.9248 38.7136 52.6578C41.7637 51.3439 44.4385 49.5372 46.7379 47.2379C49.0372 44.9385 50.8204 42.2872 52.0874 39.284C53.4013 36.2338 54.0582 32.9725 54.0582 29.5C54.0582 26.0275 53.4013 22.7896 52.0874 19.7864C50.8204 16.7362 49.0372 14.0615 46.7379 11.7621C44.4385 9.46278 41.7637 7.67961 38.7136 6.41262C35.7104 5.0987 32.4725 4.44174 29 4.44174C25.5275 4.44174 22.2662 5.0987 19.216 6.41262C16.2128 7.67961 13.5615 9.46278 11.2621 11.7621C8.96278 14.0615 7.15615 16.7362 5.84223 19.7864C4.57524 22.7896 3.94175 26.0275 3.94175 29.5C3.94175 32.9725 4.57524 36.2338 5.84223 39.284C7.15615 42.2872 8.96278 44.9385 11.2621 47.2379C13.5615 49.5372 16.2128 51.3439 19.216 52.6578C22.2662 53.9248 25.5275 54.5582 29 54.5582Z" fill="#E95200"/>
<mask id="mask0_1887_6475" style="mask-type:alpha" maskUnits="userSpaceOnUse" x="1" y="7" width="53" height="37">
<path d="M10.8555 43.6704L1.14941 16.7956H7.11669L13.8515 36.2798L20.5616 16.7956H26.5536L16.8475 43.6704H10.8555Z" fill="#E95200"/>
<path d="M29.0165 43.6206V38.3949L44.269 24.7336C45.4575 23.6719 46.2828 22.6682 46.745 21.7226C47.2072 20.777 47.4383 19.8646 47.4383 18.9854C47.4383 17.791 47.1825 16.7292 46.6707 15.8002C46.159 14.8546 45.4492 14.1081 44.5413 13.5607C43.65 13.0132 42.6183 12.7395 41.4463 12.7395C40.2083 12.7395 39.1105 13.0298 38.1531 13.6104C37.2122 14.1745 36.4777 14.9293 35.9495 15.8749C35.4212 16.8205 35.1736 17.8407 35.2067 18.9356H29.0661C29.0661 16.5468 29.5943 14.4648 30.6507 12.6897C31.7237 10.9147 33.1928 9.53775 35.0581 8.55898C36.9399 7.58021 39.1106 7.09082 41.5701 7.09082C43.8481 7.09082 45.8949 7.60509 47.7107 8.63363C49.5264 9.64558 50.9543 11.0557 51.9942 12.8639C53.0342 14.6556 53.5542 16.7209 53.5542 19.06C53.5542 20.7687 53.3231 22.2037 52.8609 23.365C52.3987 24.5262 51.7054 25.5963 50.781 26.575C49.8731 27.5538 48.7424 28.6404 47.3888 29.8348L36.5685 39.465L36.0237 37.9719H53.5542V43.6206H29.0165Z" fill="#E95200"/>
</mask>
<g mask="url(#mask0_1887_6475)">
<circle cx="29.6871" cy="27.5865" r="25.9429" fill="#E95200"/>
</g>
</svg>
