<svg width="24" height="24" viewBox="0 0 24 24" fill="none" xmlns="http://www.w3.org/2000/svg"><path fill-rule="evenodd" clip-rule="evenodd" d="M23.23 16.004a9.402 9.402 0 0 1-3.023 5.693A8.986 8.986 0 0 1 14.293 24H3.801a3.863 3.863 0 0 1-2.674-1.22A4.054 4.054 0 0 1 .031 20c0-1.037.393-2.033 1.096-2.78a3.863 3.863 0 0 1 2.674-1.218h10.492a1.29 1.29 0 0 0 .886-.41 1.357 1.357 0 0 0 0-1.847 1.289 1.289 0 0 0-.886-.41H8.96a3.858 3.858 0 0 1-2.761-1.172 4.052 4.052 0 0 1-1.144-2.83 4.05 4.05 0 0 1 1.144-2.83A3.858 3.858 0 0 1 8.96 5.331h10.42c.345-.006.674-.152.913-.406.24-.254.371-.595.365-.949a1.348 1.348 0 0 0-.396-.935 1.284 1.284 0 0 0-.926-.374H9.027c-1.499 0-2.952.53-4.114 1.501A6.7 6.7 0 0 0 2.65 7.996c-.138.72-.59 1.354-1.319 1.354-.728 0-1.424-.639-1.32-1.354a9.402 9.402 0 0 1 3.026-5.695A8.986 8.986 0 0 1 8.955 0h10.492a3.863 3.863 0 0 1 2.674 1.22A4.054 4.054 0 0 1 23.217 4a4.054 4.054 0 0 1-1.096 2.78 3.863 3.863 0 0 1-2.674 1.218H8.96a1.289 1.289 0 0 0-.885.41 1.357 1.357 0 0 0 0 1.847c.233.249.55.396.885.41h5.335a3.86 3.86 0 0 1 2.761 1.172 4.052 4.052 0 0 1 1.144 2.83 4.057 4.057 0 0 1-1.144 2.83 3.858 3.858 0 0 1-2.761 1.172H3.865a1.286 1.286 0 0 0-.913.406 1.35 1.35 0 0 0-.365.949c.006.353.149.69.397.935.248.246.58.38.926.374h10.308c1.499 0 2.952-.53 4.114-1.501a6.7 6.7 0 0 0 2.262-3.828c.139-.72.59-1.354 1.32-1.354.728 0 1.419.639 1.316 1.354Z" fill="#FF4E16"/></svg>