<svg width="60" height="60" viewBox="0 0 60 60" fill="none" xmlns="http://www.w3.org/2000/svg"><path d="M54.525 13.262H5.475a.93.93 0 0 0-.93.929v38.141c0 .514.416.93.93.93h49.05a.93.93 0 0 0 .93-.93V14.191a.93.93 0 0 0-.93-.93Z" fill="url(#a)"/><g filter="url(#b)"><path d="M57.391 57.391H2.61A2.608 2.608 0 0 1 0 54.782V5.217a2.609 2.609 0 0 1 2.609-2.609H57.39A2.609 2.609 0 0 1 60 5.218v49.564a2.608 2.608 0 0 1-2.609 2.609Z" fill="#1D1D1D" fill-opacity=".05"/><path d="M57.391 57.391H2.61A2.608 2.608 0 0 1 0 54.782V5.217a2.609 2.609 0 0 1 2.609-2.609H57.39A2.609 2.609 0 0 1 60 5.218v49.564a2.608 2.608 0 0 1-2.609 2.609Z" fill="url(#c)" fill-opacity=".2"/><path d="M57.391 57.241H2.61a2.459 2.459 0 0 1-2.46-2.459V5.217a2.459 2.459 0 0 1 2.459-2.459H57.39a2.459 2.459 0 0 1 2.459 2.46v49.564a2.459 2.459 0 0 1-2.459 2.459Z" stroke="url(#d)" stroke-opacity=".1" stroke-width=".3"/></g><g filter="url(#e)"><path d="M51.877 29.172a1.304 1.304 0 0 0-1.008-.477H27.566a9.782 9.782 0 1 0 0 9.13H32.3l2.334 1.168a1.305 1.305 0 0 0 1.166 0l2.333-1.168h1.993l2.334 1.168a1.305 1.305 0 0 0 1.166 0l2.333-1.168h3.606a1.305 1.305 0 0 0 1.278-1.043l1.304-6.522a1.306 1.306 0 0 0-.27-1.088Zm-35.573 7.349a3.26 3.26 0 1 1 0-6.521 3.26 3.26 0 0 1 0 6.521Z" fill="#fff" fill-opacity=".1"/></g><g filter="url(#f)"><path d="M51.94 31.304H28.695v2.608h22.721l.522-2.608Z" fill="#fff" fill-opacity=".1"/></g><g filter="url(#g)"><path d="M4.565 9.13a1.957 1.957 0 1 0 0-3.913 1.957 1.957 0 0 0 0 3.913Z" fill="url(#h)"/></g><g filter="url(#i)"><path d="M11.087 9.13a1.957 1.957 0 1 0 0-3.913 1.957 1.957 0 0 0 0 3.913Z" fill="url(#j)"/></g><g filter="url(#k)"><path d="M17.609 9.13a1.957 1.957 0 1 0 0-3.913 1.957 1.957 0 0 0 0 3.913Z" fill="url(#l)"/></g><defs><linearGradient id="a" x1="4.545" y1="13.262" x2="62.345" y2="31.941" gradientUnits="userSpaceOnUse"><stop stop-color="#FF7816" stop-opacity=".84"/><stop offset=".703" stop-color="#FF4E16" stop-opacity=".56"/></linearGradient><linearGradient id="c" x1="0" y1="2.608" x2="69.834" y2="22.029" gradientUnits="userSpaceOnUse"><stop stop-color="#E9D100" stop-opacity=".17"/><stop offset=".776" stop-color="#FF4E16" stop-opacity=".23"/></linearGradient><linearGradient id="d" x1="1.875" y1="5.099" x2="60" y2="5.099" gradientUnits="userSpaceOnUse"><stop stop-color="#E9D100"/><stop offset=".656" stop-color="#FF4E16"/></linearGradient><linearGradient id="h" x1="2.609" y1="5.217" x2="7.218" y2="6.387" gradientUnits="userSpaceOnUse"><stop stop-color="#FF7816" stop-opacity=".84"/><stop offset=".703" stop-color="#FF4E16" stop-opacity=".56"/></linearGradient><linearGradient id="j" x1="9.13" y1="5.217" x2="13.74" y2="6.387" gradientUnits="userSpaceOnUse"><stop stop-color="#FF7816" stop-opacity=".84"/><stop offset=".703" stop-color="#FF4E16" stop-opacity=".56"/></linearGradient><linearGradient id="l" x1="15.652" y1="5.217" x2="20.262" y2="6.387" gradientUnits="userSpaceOnUse"><stop stop-color="#FF7816" stop-opacity=".84"/><stop offset=".703" stop-color="#FF4E16" stop-opacity=".56"/></linearGradient><filter id="b" x="-6" y="-3.392" width="72" height="66.783" filterUnits="userSpaceOnUse" color-interpolation-filters="sRGB"><feFlood flood-opacity="0" result="BackgroundImageFix"/><feGaussianBlur in="BackgroundImageFix" stdDeviation="3"/><feComposite in2="SourceAlpha" operator="in" result="effect1_backgroundBlur_206_6367"/><feBlend in="SourceGraphic" in2="effect1_backgroundBlur_206_6367" result="shape"/><feColorMatrix in="SourceAlpha" values="0 0 0 0 0 0 0 0 0 0 0 0 0 0 0 0 0 0 127 0" result="hardAlpha"/><feOffset dy="1"/><feGaussianBlur stdDeviation="1.5"/><feComposite in2="hardAlpha" operator="arithmetic" k2="-1" k3="1"/><feColorMatrix values="0 0 0 0 1 0 0 0 0 1 0 0 0 0 1 0 0 0 0.15 0"/><feBlend in2="shape" result="effect2_innerShadow_206_6367"/></filter><filter id="e" x="3.131" y="17.477" width="55.042" height="31.565" filterUnits="userSpaceOnUse" color-interpolation-filters="sRGB"><feFlood flood-opacity="0" result="BackgroundImageFix"/><feGaussianBlur in="BackgroundImageFix" stdDeviation="3"/><feComposite in2="SourceAlpha" operator="in" result="effect1_backgroundBlur_206_6367"/><feBlend in="SourceGraphic" in2="effect1_backgroundBlur_206_6367" result="shape"/><feColorMatrix in="SourceAlpha" values="0 0 0 0 0 0 0 0 0 0 0 0 0 0 0 0 0 0 127 0" result="hardAlpha"/><feOffset dy="1"/><feGaussianBlur stdDeviation="1.5"/><feComposite in2="hardAlpha" operator="arithmetic" k2="-1" k3="1"/><feColorMatrix values="0 0 0 0 1 0 0 0 0 1 0 0 0 0 1 0 0 0 0.4 0"/><feBlend in2="shape" result="effect2_innerShadow_206_6367"/></filter><filter id="f" x="28.696" y="31.304" width="23.244" height="4.609" filterUnits="userSpaceOnUse" color-interpolation-filters="sRGB"><feFlood flood-opacity="0" result="BackgroundImageFix"/><feBlend in="SourceGraphic" in2="BackgroundImageFix" result="shape"/><feColorMatrix in="SourceAlpha" values="0 0 0 0 0 0 0 0 0 0 0 0 0 0 0 0 0 0 127 0" result="hardAlpha"/><feOffset dy="2"/><feGaussianBlur stdDeviation="1"/><feComposite in2="hardAlpha" operator="arithmetic" k2="-1" k3="1"/><feColorMatrix values="0 0 0 0 1 0 0 0 0 1 0 0 0 0 1 0 0 0 0.4 0"/><feBlend in2="shape" result="effect1_innerShadow_206_6367"/></filter><filter id="g" x="2.609" y="5.217" width="3.913" height="5.913" filterUnits="userSpaceOnUse" color-interpolation-filters="sRGB"><feFlood flood-opacity="0" result="BackgroundImageFix"/><feBlend in="SourceGraphic" in2="BackgroundImageFix" result="shape"/><feColorMatrix in="SourceAlpha" values="0 0 0 0 0 0 0 0 0 0 0 0 0 0 0 0 0 0 127 0" result="hardAlpha"/><feOffset dy="2"/><feGaussianBlur stdDeviation="1"/><feComposite in2="hardAlpha" operator="arithmetic" k2="-1" k3="1"/><feColorMatrix values="0 0 0 0 1 0 0 0 0 1 0 0 0 0 1 0 0 0 0.4 0"/><feBlend in2="shape" result="effect1_innerShadow_206_6367"/></filter><filter id="i" x="9.13" y="5.217" width="3.913" height="5.913" filterUnits="userSpaceOnUse" color-interpolation-filters="sRGB"><feFlood flood-opacity="0" result="BackgroundImageFix"/><feBlend in="SourceGraphic" in2="BackgroundImageFix" result="shape"/><feColorMatrix in="SourceAlpha" values="0 0 0 0 0 0 0 0 0 0 0 0 0 0 0 0 0 0 127 0" result="hardAlpha"/><feOffset dy="2"/><feGaussianBlur stdDeviation="1"/><feComposite in2="hardAlpha" operator="arithmetic" k2="-1" k3="1"/><feColorMatrix values="0 0 0 0 1 0 0 0 0 1 0 0 0 0 1 0 0 0 0.4 0"/><feBlend in2="shape" result="effect1_innerShadow_206_6367"/></filter><filter id="k" x="15.652" y="5.217" width="3.913" height="5.913" filterUnits="userSpaceOnUse" color-interpolation-filters="sRGB"><feFlood flood-opacity="0" result="BackgroundImageFix"/><feBlend in="SourceGraphic" in2="BackgroundImageFix" result="shape"/><feColorMatrix in="SourceAlpha" values="0 0 0 0 0 0 0 0 0 0 0 0 0 0 0 0 0 0 127 0" result="hardAlpha"/><feOffset dy="2"/><feGaussianBlur stdDeviation="1"/><feComposite in2="hardAlpha" operator="arithmetic" k2="-1" k3="1"/><feColorMatrix values="0 0 0 0 1 0 0 0 0 1 0 0 0 0 1 0 0 0 0.4 0"/><feBlend in2="shape" result="effect1_innerShadow_206_6367"/></filter></defs></svg>