<svg width="1918" height="660" viewBox="0 0 1918 660" fill="none" xmlns="http://www.w3.org/2000/svg">
<path d="M114.98 392.432H164.002L144.393 128.432H138.154L114.98 392.432ZM0 647.514L72.1966 12.4865H213.916L286.113 647.514H190.742L172.915 475.378H106.067L85.5664 647.514H0Z" fill="url(#paint0_linear_982_800)" fill-opacity="0.06"/>
<path d="M393.078 12.4865V564.568H513.405V647.514H298.598V12.4865H393.078Z" fill="url(#paint1_linear_982_800)" fill-opacity="0.06"/>
<path d="M621.582 12.4865V564.568H741.91V647.514H527.102V12.4865H621.582Z" fill="url(#paint2_linear_982_800)" fill-opacity="0.06"/>
<path d="M1002.5 240.811H908.022V115.054C908.022 99.5946 905.645 89.1892 900.891 83.8378C896.732 78.4865 889.601 75.8108 879.5 75.8108C868.804 75.8108 861.079 78.4865 856.325 83.8378C852.166 89.1892 850.086 99.5946 850.086 115.054V193.541C850.086 206.027 862.565 228.324 887.521 260.432C913.072 292.541 938.623 326.135 964.175 361.216C989.726 395.703 1002.5 422.162 1002.5 440.595V552.973C1002.5 591.027 990.32 618.378 965.957 635.027C942.189 651.676 913.073 660 878.608 660C844.738 660 815.622 651.676 791.259 635.027C767.491 618.378 755.607 591.027 755.607 552.973V406.703H850.086V544.946C850.086 560.405 852.166 570.811 856.325 576.162C861.079 581.513 868.804 584.189 879.5 584.189C889.601 584.189 896.732 581.513 900.891 576.162C905.645 570.811 908.022 560.405 908.022 544.946V478.054C908.022 462 902.674 444.459 891.978 425.432C881.876 406.405 869.101 387.973 853.651 370.135C838.796 352.297 823.941 334.459 809.086 316.622C794.23 298.189 781.455 278.568 770.759 257.757C760.657 236.946 755.607 217.027 755.607 198V107.027C755.607 68.973 767.491 41.6216 791.259 24.973C815.622 8.32432 844.738 0 878.608 0C913.073 0 942.189 8.32432 965.957 24.973C990.32 41.6216 1002.5 68.973 1002.5 107.027V240.811Z" fill="url(#paint3_linear_982_800)" fill-opacity="0.06"/>
<path d="M1131.75 12.4865V647.514H1037.27V12.4865H1131.75Z" fill="url(#paint4_linear_982_800)" fill-opacity="0.06"/>
<path d="M1166.48 647.514V12.4865H1280.57C1328.7 12.4865 1362.87 22.8919 1383.07 43.7027C1403.28 63.9189 1413.38 101.378 1413.38 156.081V532.459C1413.38 564.568 1403.28 591.919 1383.07 614.513C1363.46 636.513 1336.13 647.514 1301.07 647.514H1166.48ZM1260.96 88.2973V571.703H1283.24C1296.32 571.703 1305.53 568.73 1310.88 562.784C1316.22 556.838 1318.9 544.054 1318.9 524.432V135.568C1318.9 115.946 1316.22 103.162 1310.88 97.2162C1305.53 91.2702 1296.32 88.2973 1283.24 88.2973H1260.96Z" fill="url(#paint5_linear_982_800)" fill-opacity="0.06"/>
<path d="M1445.47 12.4865H1655.82V95.4324H1539.95V255.973H1651.37V338.919H1539.95V564.568H1657.6V647.514H1445.47V12.4865Z" fill="url(#paint6_linear_982_800)" fill-opacity="0.06"/>
<path d="M1920 240.811H1825.52V115.054C1825.52 99.5946 1823.14 89.1892 1818.39 83.8378C1814.23 78.4865 1807.1 75.8108 1797 75.8108C1786.3 75.8108 1778.58 78.4865 1773.82 83.8378C1769.66 89.1892 1767.59 99.5946 1767.59 115.054V193.541C1767.59 206.027 1780.06 228.324 1805.02 260.432C1830.57 292.541 1856.12 326.135 1881.67 361.216C1907.22 395.703 1920 422.162 1920 440.595V552.973C1920 591.027 1907.82 618.378 1883.46 635.027C1859.69 651.676 1830.57 660 1796.11 660C1762.24 660 1733.12 651.676 1708.76 635.027C1684.99 618.378 1673.11 591.027 1673.11 552.973V406.703H1767.59V544.946C1767.59 560.405 1769.66 570.811 1773.82 576.162C1778.58 581.513 1786.3 584.189 1797 584.189C1807.1 584.189 1814.23 581.513 1818.39 576.162C1823.14 570.811 1825.52 560.405 1825.52 544.946V478.054C1825.52 462 1820.17 444.459 1809.48 425.432C1799.38 406.405 1786.6 387.973 1771.15 370.135C1756.3 352.297 1741.44 334.459 1726.58 316.622C1711.73 298.189 1698.95 278.568 1688.26 257.757C1678.16 236.946 1673.11 217.027 1673.11 198V107.027C1673.11 68.973 1684.99 41.6216 1708.76 24.973C1733.12 8.32432 1762.24 0 1796.11 0C1830.57 0 1859.69 8.32432 1883.46 24.973C1907.82 41.6216 1920 68.973 1920 107.027V240.811Z" fill="url(#paint7_linear_982_800)" fill-opacity="0.06"/>
<defs>
<linearGradient id="paint0_linear_982_800" x1="176" y1="464.5" x2="176" y2="0" gradientUnits="userSpaceOnUse">
<stop stop-color="white"/>
<stop offset="1" stop-color="white" stop-opacity="0"/>
</linearGradient>
<linearGradient id="paint1_linear_982_800" x1="176" y1="464.5" x2="176" y2="0" gradientUnits="userSpaceOnUse">
<stop stop-color="white"/>
<stop offset="1" stop-color="white" stop-opacity="0"/>
</linearGradient>
<linearGradient id="paint2_linear_982_800" x1="176" y1="464.5" x2="176" y2="0" gradientUnits="userSpaceOnUse">
<stop stop-color="white"/>
<stop offset="1" stop-color="white" stop-opacity="0"/>
</linearGradient>
<linearGradient id="paint3_linear_982_800" x1="176" y1="464.5" x2="176" y2="0" gradientUnits="userSpaceOnUse">
<stop stop-color="white"/>
<stop offset="1" stop-color="white" stop-opacity="0"/>
</linearGradient>
<linearGradient id="paint4_linear_982_800" x1="176" y1="464.5" x2="176" y2="0" gradientUnits="userSpaceOnUse">
<stop stop-color="white"/>
<stop offset="1" stop-color="white" stop-opacity="0"/>
</linearGradient>
<linearGradient id="paint5_linear_982_800" x1="176" y1="464.5" x2="176" y2="0" gradientUnits="userSpaceOnUse">
<stop stop-color="white"/>
<stop offset="1" stop-color="white" stop-opacity="0"/>
</linearGradient>
<linearGradient id="paint6_linear_982_800" x1="176" y1="464.5" x2="176" y2="0" gradientUnits="userSpaceOnUse">
<stop stop-color="white"/>
<stop offset="1" stop-color="white" stop-opacity="0"/>
</linearGradient>
<linearGradient id="paint7_linear_982_800" x1="176" y1="464.5" x2="176" y2="0" gradientUnits="userSpaceOnUse">
<stop stop-color="white"/>
<stop offset="1" stop-color="white" stop-opacity="0"/>
</linearGradient>
</defs>
</svg>
