<svg width="224" height="714" viewBox="0 0 224 714" fill="none" xmlns="http://www.w3.org/2000/svg">
<path d="M145.676 671.086L145.676 652.881L47.6757 660.163L47.6757 662.48L145.676 671.086ZM240.365 713.784L4.63513 686.974L4.63513 634.346L240.365 607.535L240.365 642.951L176.466 649.571L176.466 674.396L240.365 682.009L240.365 713.784Z" fill="url(#paint0_linear_1009_1177)" fill-opacity="0.06"/>
<path d="M4.63513 567.813L209.574 567.813L209.574 523.129L240.365 523.129L240.365 602.899L4.63513 602.899L4.63513 567.813Z" fill="url(#paint1_linear_1009_1177)" fill-opacity="0.06"/>
<path d="M4.63512 482.957L209.574 482.957L209.574 438.273L240.365 438.273L240.365 518.043L4.63513 518.043L4.63512 482.957Z" fill="url(#paint2_linear_1009_1177)" fill-opacity="0.06"/>
<path d="M89.3919 341.501L89.3919 376.587L42.7095 376.587C36.9707 376.587 33.1081 377.469 31.1216 379.235C29.1351 380.779 28.1419 383.427 28.1419 387.178C28.1419 391.15 29.1351 394.019 31.1216 395.784C33.1081 397.329 36.9707 398.101 42.7095 398.101L71.8446 398.101C76.4797 398.101 84.7567 393.467 96.6757 384.199C108.595 374.711 121.065 365.222 134.088 355.734C146.89 346.245 156.712 341.501 163.554 341.501L205.27 341.501C219.396 341.501 229.55 346.025 235.73 355.072C241.91 363.898 245 374.711 245 387.509C245 400.087 241.91 410.9 235.73 419.947C229.55 428.773 219.396 433.187 205.27 433.187L150.973 433.187L150.973 398.101L202.291 398.101C208.029 398.101 211.892 397.329 213.878 395.784C215.865 394.019 216.858 391.15 216.858 387.178C216.858 383.427 215.865 380.779 213.878 379.235C211.892 377.469 208.029 376.587 202.291 376.587L177.459 376.587C171.5 376.587 164.989 378.573 157.926 382.544C150.863 386.296 144.02 391.04 137.399 396.777C130.777 402.294 124.155 407.81 117.534 413.327C110.691 418.843 103.408 423.588 95.6824 427.56C87.9572 431.311 80.5631 433.187 73.5 433.187L39.7297 433.187C25.6036 433.187 15.4504 428.773 9.27026 419.947C3.09008 410.9 -1.37121e-05 400.087 -1.42619e-05 387.509C-1.48214e-05 374.711 3.09007 363.898 9.27025 355.072C15.4504 346.025 25.6036 341.501 39.7297 341.501L89.3919 341.501Z" fill="url(#paint3_linear_1009_1177)" fill-opacity="0.06"/>
<path d="M4.63512 293.504L240.365 293.504L240.365 328.59L4.63512 328.59L4.63512 293.504Z" fill="url(#paint4_linear_1009_1177)" fill-opacity="0.06"/>
<path d="M240.365 280.606L4.63512 280.606L4.63511 238.239C4.63511 220.365 8.49772 207.677 16.2229 200.174C23.7275 192.672 37.6329 188.921 57.9392 188.921L197.655 188.921C209.574 188.921 219.727 192.672 228.115 200.174C236.282 207.456 240.365 217.607 240.365 230.626L240.365 280.606ZM32.777 245.521L212.223 245.521L212.223 237.246C212.223 232.391 211.119 228.971 208.912 226.985C206.705 224.999 201.959 224.006 194.676 224.006L50.3243 224.006C43.0405 224.006 38.295 224.999 36.0878 226.985C33.8806 228.971 32.777 232.391 32.777 237.246L32.777 245.521Z" fill="url(#paint5_linear_1009_1177)" fill-opacity="0.06"/>
<path d="M4.63511 177.002L4.63511 98.8876L35.4257 98.8876L35.4257 141.917L95.0203 141.917L95.0203 100.543L125.811 100.543L125.811 141.917L209.574 141.917L209.574 98.2257L240.365 98.2257L240.365 177.002L4.63511 177.002Z" fill="url(#paint6_linear_1009_1177)" fill-opacity="0.06"/>
<path d="M89.3919 0.784176L89.3919 35.8696L42.7094 35.8696C36.9707 35.8696 33.1081 36.7522 31.1216 38.5175C29.1351 40.0621 28.1419 42.7101 28.1419 46.4614C28.1419 50.4333 29.1351 53.3019 31.1216 55.0672C33.1081 56.6118 36.9707 57.3841 42.7094 57.3841L71.8446 57.3841C76.4797 57.3841 84.7567 52.7502 96.6757 43.4824C108.595 33.9939 121.065 24.5054 134.088 15.0169C146.89 5.52844 156.712 0.784173 163.554 0.784173L205.27 0.784171C219.396 0.78417 229.55 5.30773 235.73 14.3548C241.91 23.1814 245 33.9939 245 46.7923C245 59.3701 241.91 70.1826 235.73 79.2297C229.55 88.0563 219.396 92.4695 205.27 92.4695L150.973 92.4695L150.973 57.3841L202.291 57.3841C208.029 57.3841 211.892 56.6118 213.878 55.0672C215.865 53.3019 216.858 50.4333 216.858 46.4614C216.858 42.7101 215.865 40.0621 213.878 38.5174C211.892 36.7522 208.029 35.8696 202.291 35.8696L177.459 35.8696C171.5 35.8696 164.989 37.8555 157.926 41.8274C150.863 45.5787 144.02 50.3229 137.399 56.0602C130.777 61.5767 124.155 67.0933 117.534 72.6099C110.691 78.1264 103.408 82.8707 95.6824 86.8426C87.9572 90.5939 80.563 92.4695 73.5 92.4695L39.7297 92.4695C25.6036 92.4695 15.4504 88.0563 9.27024 79.2297C3.09006 70.1826 -2.86053e-05 59.3701 -2.91551e-05 46.7924C-2.97146e-05 33.9939 3.09006 23.1814 9.27024 14.3549C15.4504 5.30774 25.6036 0.784179 39.7297 0.784178L89.3919 0.784176Z" fill="url(#paint7_linear_1009_1177)" fill-opacity="0.06"/>
<defs>
<linearGradient id="paint0_linear_1009_1177" x1="172.428" y1="648.426" x2="-2.8569e-06" y2="648.426" gradientUnits="userSpaceOnUse">
<stop stop-color="white"/>
<stop offset="1" stop-color="white" stop-opacity="0"/>
</linearGradient>
<linearGradient id="paint1_linear_1009_1177" x1="172.428" y1="648.426" x2="-2.8569e-06" y2="648.426" gradientUnits="userSpaceOnUse">
<stop stop-color="white"/>
<stop offset="1" stop-color="white" stop-opacity="0"/>
</linearGradient>
<linearGradient id="paint2_linear_1009_1177" x1="172.428" y1="648.426" x2="-2.8569e-06" y2="648.426" gradientUnits="userSpaceOnUse">
<stop stop-color="white"/>
<stop offset="1" stop-color="white" stop-opacity="0"/>
</linearGradient>
<linearGradient id="paint3_linear_1009_1177" x1="172.428" y1="648.426" x2="-2.8569e-06" y2="648.426" gradientUnits="userSpaceOnUse">
<stop stop-color="white"/>
<stop offset="1" stop-color="white" stop-opacity="0"/>
</linearGradient>
<linearGradient id="paint4_linear_1009_1177" x1="172.428" y1="648.426" x2="-2.8569e-06" y2="648.426" gradientUnits="userSpaceOnUse">
<stop stop-color="white"/>
<stop offset="1" stop-color="white" stop-opacity="0"/>
</linearGradient>
<linearGradient id="paint5_linear_1009_1177" x1="172.428" y1="648.426" x2="-2.8569e-06" y2="648.426" gradientUnits="userSpaceOnUse">
<stop stop-color="white"/>
<stop offset="1" stop-color="white" stop-opacity="0"/>
</linearGradient>
<linearGradient id="paint6_linear_1009_1177" x1="172.428" y1="648.426" x2="-2.8569e-06" y2="648.426" gradientUnits="userSpaceOnUse">
<stop stop-color="white"/>
<stop offset="1" stop-color="white" stop-opacity="0"/>
</linearGradient>
<linearGradient id="paint7_linear_1009_1177" x1="172.428" y1="648.426" x2="-2.8569e-06" y2="648.426" gradientUnits="userSpaceOnUse">
<stop stop-color="white"/>
<stop offset="1" stop-color="white" stop-opacity="0"/>
</linearGradient>
</defs>
</svg>
