<svg width="345" height="399" viewBox="0 0 345 399" fill="none" xmlns="http://www.w3.org/2000/svg">
<path d="M96.9402 113.081H111.411L105.623 34.5084H103.781L96.9402 113.081ZM63 189L84.3113 0H126.145L147.456 189H119.304L114.042 137.768H94.3092L88.2578 189H63Z" fill="#141414"/>
<path d="M179.03 0V164.313H214.549V189H151.141V0H179.03Z" fill="#141414"/>
<path d="M246.481 0V164.313H282V189H218.592V0H246.481Z" fill="#141414"/>
<path d="M73.1528 273.878H45.1593V236.342C45.1593 231.727 44.4551 228.622 43.0466 227.024C41.8142 225.427 39.7015 224.628 36.7085 224.628C33.5394 224.628 31.2506 225.427 29.8421 227.024C28.6097 228.622 27.9935 231.727 27.9935 236.342V259.769C27.9935 263.496 31.6908 270.151 39.0853 279.735C46.6558 289.319 54.2264 299.346 61.797 309.818C69.3675 320.111 73.1528 328.009 73.1528 333.511V367.054C73.1528 378.413 69.5436 386.577 62.3251 391.546C55.2828 396.515 46.6558 399 36.4444 399C26.409 399 17.7821 396.515 10.5636 391.546C3.52122 386.577 0 378.413 0 367.054V323.395H27.9935V364.658C27.9935 369.273 28.6097 372.378 29.8421 373.976C31.2506 375.573 33.5394 376.372 36.7085 376.372C39.7015 376.372 41.8142 375.573 43.0466 373.976C44.4551 372.378 45.1593 369.273 45.1593 364.658V344.692C45.1593 339.9 43.5748 334.664 40.4057 328.985C37.4127 323.306 33.6274 317.804 29.0499 312.48C24.6484 307.155 20.2469 301.831 15.8454 296.507C11.4439 291.005 7.65861 285.148 4.48954 278.936C1.49652 272.725 0 266.779 0 261.1V233.946C0 222.587 3.52122 214.423 10.5636 209.454C17.7821 204.485 26.409 202 36.4444 202C46.6558 202 55.2828 204.485 62.3251 209.454C69.5436 214.423 73.1528 222.587 73.1528 233.946V273.878Z" fill="#141414"/>
<path d="M111.448 205.727V395.273H83.4544V205.727H111.448Z" fill="#141414"/>
<path d="M121.739 395.273V205.727H155.543C169.803 205.727 179.927 208.833 185.913 215.045C191.899 221.079 194.892 232.26 194.892 248.588V360.931C194.892 370.515 191.899 378.679 185.913 385.423C180.103 391.99 172.004 395.273 161.617 395.273H121.739ZM149.733 228.355V372.645H156.335C160.208 372.645 162.937 371.757 164.522 369.982C166.106 368.208 166.898 364.392 166.898 358.535V242.465C166.898 236.608 166.106 232.792 164.522 231.018C162.937 229.243 160.208 228.355 156.335 228.355H149.733Z" fill="#141414"/>
<path d="M204.401 205.727H266.726V230.485H232.395V278.404H265.406V303.162H232.395V370.515H267.254V395.273H204.401V205.727Z" fill="#141414"/>
<path d="M345 273.878H317.007V236.342C317.007 231.727 316.302 228.622 314.894 227.024C313.661 225.427 311.549 224.628 308.556 224.628C305.387 224.628 303.098 225.427 301.689 227.024C300.457 228.622 299.841 231.727 299.841 236.342V259.769C299.841 263.496 303.538 270.151 310.932 279.735C318.503 289.319 326.074 299.346 333.644 309.818C341.215 320.111 345 328.009 345 333.511V367.054C345 378.413 341.391 386.577 334.172 391.546C327.13 396.515 318.503 399 308.292 399C298.256 399 289.629 396.515 282.411 391.546C275.368 386.577 271.847 378.413 271.847 367.054V323.395H299.841V364.658C299.841 369.273 300.457 372.378 301.689 373.976C303.098 375.573 305.387 376.372 308.556 376.372C311.549 376.372 313.661 375.573 314.894 373.976C316.302 372.378 317.007 369.273 317.007 364.658V344.692C317.007 339.9 315.422 334.664 312.253 328.985C309.26 323.306 305.475 317.804 300.897 312.48C296.496 307.155 292.094 301.831 287.693 296.507C283.291 291.005 279.506 285.148 276.337 278.936C273.344 272.725 271.847 266.779 271.847 261.1V233.946C271.847 222.587 275.368 214.423 282.411 209.454C289.629 204.485 298.256 202 308.292 202C318.503 202 327.13 204.485 334.172 209.454C341.391 214.423 345 222.587 345 233.946V273.878Z" fill="#141414"/>
</svg>
