<svg width="1856" height="638" viewBox="0 0 1856 638" fill="none" xmlns="http://www.w3.org/2000/svg">
<path d="M111.147 379.351H158.535L139.58 124.151H133.549L111.147 379.351ZM0 625.93L69.7901 12.0703H206.785L276.576 625.93H184.384L167.152 459.532H102.531L82.7142 625.93H0Z" fill="#141414"/>
<path d="M379.975 12.0703V545.749H496.292V625.93H288.645V12.0703H379.975Z" fill="#141414"/>
<path d="M600.862 12.0703V545.749H717.179V625.93H509.532V12.0703H600.862Z" fill="#141414"/>
<path d="M969.084 232.784H877.754V111.219C877.754 96.2748 875.457 86.2162 870.861 81.0432C866.841 75.8703 859.948 73.2838 850.183 73.2838C839.844 73.2838 832.376 75.8703 827.781 81.0432C823.76 86.2162 821.75 96.2748 821.75 111.219V187.089C821.75 199.159 833.812 220.713 857.937 251.751C882.637 282.789 907.336 315.264 932.035 349.176C956.735 382.513 969.084 408.09 969.084 425.908V534.541C969.084 571.326 957.309 597.766 933.759 613.859C910.782 629.953 882.637 638 849.321 638C816.58 638 788.434 629.953 764.884 613.859C741.908 597.766 730.42 571.326 730.42 534.541V393.146H821.75V526.781C821.75 541.725 823.76 551.784 827.781 556.957C832.376 562.13 839.844 564.716 850.183 564.716C859.948 564.716 866.841 562.13 870.861 556.957C875.457 551.784 877.754 541.725 877.754 526.781V462.119C877.754 446.6 872.585 429.644 862.245 411.251C852.48 392.859 840.131 375.041 825.196 357.797C810.836 340.554 796.476 323.311 782.116 306.068C767.756 288.25 755.406 269.282 745.067 249.165C735.302 229.048 730.42 209.793 730.42 191.4V103.459C730.42 66.6739 741.908 40.2342 764.884 24.1405C788.434 8.04685 816.58 0 849.321 0C882.637 0 910.782 8.04685 933.759 24.1405C957.309 40.2342 969.084 66.6739 969.084 103.459V232.784Z" fill="#141414"/>
<path d="M1094.02 12.0703V625.93H1002.69V12.0703H1094.02Z" fill="#141414"/>
<path d="M1127.6 625.93V12.0703H1237.89C1284.41 12.0703 1317.44 22.1288 1336.97 42.2459C1356.5 61.7883 1366.26 97.9991 1366.26 150.878V514.711C1366.26 545.749 1356.5 572.188 1336.97 594.03C1318.01 615.296 1291.59 625.93 1257.7 625.93H1127.6ZM1218.93 85.354V552.646H1240.47C1253.11 552.646 1262.01 549.772 1267.18 544.024C1272.35 538.277 1274.93 525.919 1274.93 506.951V131.049C1274.93 112.081 1272.35 99.7234 1267.18 93.9756C1262.01 88.2279 1253.11 85.354 1240.47 85.354H1218.93Z" fill="#141414"/>
<path d="M1397.29 12.0703H1600.63V92.2513H1488.62V247.441H1596.32V327.622H1488.62V545.749H1602.35V625.93H1397.29V12.0703Z" fill="#141414"/>
<path d="M1856 232.784H1764.67V111.219C1764.67 96.2748 1762.37 86.2162 1757.78 81.0432C1753.76 75.8703 1746.86 73.2838 1737.1 73.2838C1726.76 73.2838 1719.29 75.8703 1714.7 81.0432C1710.68 86.2162 1708.67 96.2748 1708.67 111.219V187.089C1708.67 199.159 1720.73 220.713 1744.85 251.751C1769.55 282.789 1794.25 315.264 1818.95 349.176C1843.65 382.513 1856 408.09 1856 425.908V534.541C1856 571.326 1844.22 597.766 1820.67 613.859C1797.7 629.953 1769.55 638 1736.24 638C1703.5 638 1675.35 629.953 1651.8 613.859C1628.82 597.766 1617.34 571.326 1617.34 534.541V393.146H1708.67V526.781C1708.67 541.725 1710.68 551.784 1714.7 556.957C1719.29 562.13 1726.76 564.716 1737.1 564.716C1746.86 564.716 1753.76 562.13 1757.78 556.957C1762.37 551.784 1764.67 541.725 1764.67 526.781V462.119C1764.67 446.6 1759.5 429.644 1749.16 411.251C1739.4 392.859 1727.05 375.041 1712.11 357.797C1697.75 340.554 1683.39 323.311 1669.03 306.068C1654.67 288.25 1642.32 269.282 1631.98 249.165C1622.22 229.048 1617.34 209.793 1617.34 191.4V103.459C1617.34 66.6739 1628.82 40.2342 1651.8 24.1405C1675.35 8.04685 1703.5 0 1736.24 0C1769.55 0 1797.7 8.04685 1820.67 24.1405C1844.22 40.2342 1856 66.6739 1856 103.459V232.784Z" fill="#141414"/>
</svg>
