<svg width="60" height="60" viewBox="0 0 60 60" fill="none" xmlns="http://www.w3.org/2000/svg"><g clip-path="url(#a)"><path d="M46.303 46.957c-.345 0-.677-.137-.922-.382l-20.87-20.87a1.304 1.304 0 0 1 1.845-1.844l20.87 20.87a1.305 1.305 0 0 1-.923 2.226Z" fill="url(#b)"/><path d="M33.26 60a5.217 5.217 0 1 0 0-10.435 5.217 5.217 0 0 0 0 10.435Z" fill="url(#c)"/><path d="M54.13 60a5.217 5.217 0 1 0 0-10.435 5.217 5.217 0 0 0 0 10.435Z" fill="url(#d)"/><path d="M51.522 20.87a5.217 5.217 0 1 0 0-10.435 5.217 5.217 0 0 0 0 10.435Z" fill="url(#e)"/><g filter="url(#f)"><path d="M43.695 24.783H31.956a1.304 1.304 0 1 1 0-2.609h11.2l6.139-6.14a1.304 1.304 0 0 1 1.844 1.845l-6.522 6.522a1.304 1.304 0 0 1-.922.382Z" fill="#fff" fill-opacity=".1"/></g><path d="M43.155 22.324h.063l.043-.044 6.138-6.137.001-.001a1.155 1.155 0 0 1 1.631 1.633l-6.52 6.52c-.216.216-.51.338-.816.338H31.956a1.154 1.154 0 1 1 0-2.309h11.2Z" stroke="url(#g)" stroke-opacity=".1" stroke-width=".3"/><g filter="url(#h)"><path d="M54.13 52.174a1.304 1.304 0 0 1-1.304-1.304v-4.678l-7.062-7.062H42.39a1.304 1.304 0 1 1 0-2.608h3.913c.346 0 .677.137.922.382l7.826 7.826c.245.245.382.576.382.922v5.218a1.304 1.304 0 0 1-1.304 1.304Z" fill="#fff" fill-opacity=".1"/></g><path d="M52.976 46.192v-.062l-.044-.044-7.062-7.062-.044-.044H42.39a1.154 1.154 0 1 1 0-2.308h3.913c.306 0 .6.122.816.338l7.826 7.826c.217.217.338.51.338.816v5.218a1.155 1.155 0 0 1-2.308 0v-4.678Z" stroke="url(#i)" stroke-opacity=".1" stroke-width=".3"/><g filter="url(#j)"><path d="M30.494 53.32a1.3 1.3 0 0 1-.922-.382l-6.364-6.364a1.304 1.304 0 0 1-.382-.922V31.304a1.304 1.304 0 1 1 2.608 0v13.808l5.982 5.982a1.304 1.304 0 0 1-.922 2.226Z" fill="#fff" fill-opacity=".1"/></g><path d="M29.678 52.832c.216.217.51.338.816.338l-.816-.338Zm0 0-6.364-6.364m6.364 6.364-6.364-6.364m0 0a1.155 1.155 0 0 1-.338-.816V31.304a1.154 1.154 0 0 1 2.308 0v13.87m-1.97 1.294 1.97-1.294m0 0 .044.044m-.044-.044.044.044m0 0L31.31 51.2m-5.982-5.982L31.31 51.2m0 0c.161.161.271.367.316.59m-.316-.59.316.59m0 0c.044.225.021.457-.066.668m.066-.667-.066.667m0 0c-.087.21-.235.391-.425.518m.425-.518-.425.518m0 0c-.19.127-.413.194-.641.194l.641-.194Z" stroke="url(#k)" stroke-opacity=".1" stroke-width=".3"/><g filter="url(#l)"><path d="m47.226 36.904-2.608-2.609a1.304 1.304 0 0 0-.923-.382h-2.608a1.304 1.304 0 0 1-1.305-1.304V30a1.3 1.3 0 0 0-.382-.922L28.745 18.423c.398-1.322.601-2.695.602-4.075A14.348 14.348 0 1 0 15 28.696a14.16 14.16 0 0 0 4.075-.603l4.515 4.516h3.149a1.304 1.304 0 0 1 1.304 1.304v3.149l1.687 1.686a1.3 1.3 0 0 0 .922.382h2.609a1.304 1.304 0 0 1 1.304 1.305v2.608c0 .346.137.678.382.923l2.609 2.608c.244.245.576.383.922.383h7.826a1.304 1.304 0 0 0 1.304-1.305v-7.826a1.3 1.3 0 0 0-.382-.922ZM11.74 15.652a4.565 4.565 0 1 1 0-9.13 4.565 4.565 0 0 1 0 9.13Z" fill="#1D1D1D" fill-opacity=".05"/><path d="m47.226 36.904-2.608-2.609a1.304 1.304 0 0 0-.923-.382h-2.608a1.304 1.304 0 0 1-1.305-1.304V30a1.3 1.3 0 0 0-.382-.922L28.745 18.423c.398-1.322.601-2.695.602-4.075A14.348 14.348 0 1 0 15 28.696a14.16 14.16 0 0 0 4.075-.603l4.515 4.516h3.149a1.304 1.304 0 0 1 1.304 1.304v3.149l1.687 1.686a1.3 1.3 0 0 0 .922.382h2.609a1.304 1.304 0 0 1 1.304 1.305v2.608c0 .346.137.678.382.923l2.609 2.608c.244.245.576.383.922.383h7.826a1.304 1.304 0 0 0 1.304-1.305v-7.826a1.3 1.3 0 0 0-.382-.922ZM11.74 15.652a4.565 4.565 0 1 1 0-9.13 4.565 4.565 0 0 1 0 9.13Z" fill="url(#m)" fill-opacity=".2"/><path d="m28.601 18.38-.026.085.064.064 10.655 10.655.106-.106-.106.106c.217.216.338.51.338.816v2.609a1.454 1.454 0 0 0 1.455 1.454h2.608c.306 0 .6.122.816.338l.106-.106-.106.106 2.61 2.609.105-.106-.106.106c.217.216.338.51.338.816v7.826a1.154 1.154 0 0 1-1.154 1.154h-7.826c-.306 0-.6-.121-.816-.338l-.106.106.106-.106-2.609-2.608-.106.106.106-.106a1.155 1.155 0 0 1-.338-.816v-2.61a1.454 1.454 0 0 0-1.454-1.454h-2.61a1.15 1.15 0 0 1-.815-.338l-.106.106.106-.106L28.193 37v-3.087a1.454 1.454 0 0 0-1.454-1.454h-3.087l-4.472-4.472-.063-.063-.086.025a14.007 14.007 0 0 1-4.031.597 14.199 14.199 0 1 1 14.198-14.198 14.007 14.007 0 0 1-.597 4.031ZM9.12 15.007a4.715 4.715 0 1 0 5.24-7.842 4.715 4.715 0 0 0-5.24 7.841Z" stroke="url(#n)" stroke-opacity=".1" stroke-width=".3"/></g><g filter="url(#o)"><path d="M46.303 46.957c-.345 0-.677-.137-.922-.382l-20.87-20.87a1.304 1.304 0 0 1 1.845-1.844l20.87 20.87a1.305 1.305 0 0 1-.923 2.226Z" fill="#fff" fill-opacity=".1"/></g></g><defs><linearGradient id="b" x1="24.145" y1="23.495" x2="51.783" y2="30.512" gradientUnits="userSpaceOnUse"><stop stop-color="#FFCBBA"/><stop offset=".703" stop-color="#FF4E16"/></linearGradient><linearGradient id="c" x1="28.043" y1="49.565" x2="40.335" y2="52.686" gradientUnits="userSpaceOnUse"><stop stop-color="#FFCBBA"/><stop offset=".703" stop-color="#FF4E16"/></linearGradient><linearGradient id="d" x1="48.913" y1="49.565" x2="61.204" y2="52.686" gradientUnits="userSpaceOnUse"><stop stop-color="#FFCBBA"/><stop offset=".703" stop-color="#FF4E16"/></linearGradient><linearGradient id="e" x1="46.304" y1="10.435" x2="58.596" y2="13.556" gradientUnits="userSpaceOnUse"><stop stop-color="#FFCBBA"/><stop offset=".703" stop-color="#FF4E16"/></linearGradient><linearGradient id="g" x1="31.303" y1="16.083" x2="51.505" y2="16.083" gradientUnits="userSpaceOnUse"><stop stop-color="#3CDEB6"/><stop offset=".656" stop-color="#364AFF"/></linearGradient><linearGradient id="i" x1="41.535" y1="37.233" x2="55.434" y2="37.233" gradientUnits="userSpaceOnUse"><stop stop-color="#3CDEB6"/><stop offset=".656" stop-color="#364AFF"/></linearGradient><linearGradient id="k" x1="23.106" y1="31.06" x2="31.798" y2="31.06" gradientUnits="userSpaceOnUse"><stop stop-color="#3CDEB6"/><stop offset=".656" stop-color="#364AFF"/></linearGradient><linearGradient id="m" x1=".652" y1="0" x2="55.965" y2="14.045" gradientUnits="userSpaceOnUse"><stop stop-color="#FF4E16"/><stop offset=".776" stop-color="#FFD39E"/></linearGradient><linearGradient id="n" x1="2.119" y1="2.134" x2="47.608" y2="2.134" gradientUnits="userSpaceOnUse"><stop stop-color="#3CDEB6"/><stop offset=".656" stop-color="#364AFF"/></linearGradient><filter id="f" x="30.652" y="15.669" width="20.854" height="11.114" filterUnits="userSpaceOnUse" color-interpolation-filters="sRGB"><feFlood flood-opacity="0" result="BackgroundImageFix"/><feBlend in="SourceGraphic" in2="BackgroundImageFix" result="shape"/><feColorMatrix in="SourceAlpha" values="0 0 0 0 0 0 0 0 0 0 0 0 0 0 0 0 0 0 127 0" result="hardAlpha"/><feOffset dy="2"/><feGaussianBlur stdDeviation="1"/><feComposite in2="hardAlpha" operator="arithmetic" k2="-1" k3="1"/><feColorMatrix values="0 0 0 0 1 0 0 0 0 1 0 0 0 0 1 0 0 0 0.1 0"/><feBlend in2="shape" result="effect1_innerShadow_202_5874"/></filter><filter id="h" x="41.086" y="36.522" width="14.348" height="17.652" filterUnits="userSpaceOnUse" color-interpolation-filters="sRGB"><feFlood flood-opacity="0" result="BackgroundImageFix"/><feBlend in="SourceGraphic" in2="BackgroundImageFix" result="shape"/><feColorMatrix in="SourceAlpha" values="0 0 0 0 0 0 0 0 0 0 0 0 0 0 0 0 0 0 127 0" result="hardAlpha"/><feOffset dy="2"/><feGaussianBlur stdDeviation="1"/><feComposite in2="hardAlpha" operator="arithmetic" k2="-1" k3="1"/><feColorMatrix values="0 0 0 0 1 0 0 0 0 1 0 0 0 0 1 0 0 0 0.1 0"/><feBlend in2="shape" result="effect1_innerShadow_202_5874"/></filter><filter id="j" x="22.826" y="30" width="8.972" height="25.32" filterUnits="userSpaceOnUse" color-interpolation-filters="sRGB"><feFlood flood-opacity="0" result="BackgroundImageFix"/><feBlend in="SourceGraphic" in2="BackgroundImageFix" result="shape"/><feColorMatrix in="SourceAlpha" values="0 0 0 0 0 0 0 0 0 0 0 0 0 0 0 0 0 0 127 0" result="hardAlpha"/><feOffset dy="2"/><feGaussianBlur stdDeviation="1"/><feComposite in2="hardAlpha" operator="arithmetic" k2="-1" k3="1"/><feColorMatrix values="0 0 0 0 1 0 0 0 0 1 0 0 0 0 1 0 0 0 0.1 0"/><feBlend in2="shape" result="effect1_innerShadow_202_5874"/></filter><filter id="l" x="-5.348" y="-6" width="58.956" height="58.956" filterUnits="userSpaceOnUse" color-interpolation-filters="sRGB"><feFlood flood-opacity="0" result="BackgroundImageFix"/><feGaussianBlur in="BackgroundImageFix" stdDeviation="3"/><feComposite in2="SourceAlpha" operator="in" result="effect1_backgroundBlur_202_5874"/><feBlend in="SourceGraphic" in2="effect1_backgroundBlur_202_5874" result="shape"/><feColorMatrix in="SourceAlpha" values="0 0 0 0 0 0 0 0 0 0 0 0 0 0 0 0 0 0 127 0" result="hardAlpha"/><feOffset dy="1"/><feGaussianBlur stdDeviation="1.5"/><feComposite in2="hardAlpha" operator="arithmetic" k2="-1" k3="1"/><feColorMatrix values="0 0 0 0 1 0 0 0 0 1 0 0 0 0 1 0 0 0 0.15 0"/><feBlend in2="shape" result="effect2_innerShadow_202_5874"/></filter><filter id="o" x="24.145" y="23.495" width="23.462" height="25.462" filterUnits="userSpaceOnUse" color-interpolation-filters="sRGB"><feFlood flood-opacity="0" result="BackgroundImageFix"/><feBlend in="SourceGraphic" in2="BackgroundImageFix" result="shape"/><feColorMatrix in="SourceAlpha" values="0 0 0 0 0 0 0 0 0 0 0 0 0 0 0 0 0 0 127 0" result="hardAlpha"/><feOffset dy="2"/><feGaussianBlur stdDeviation="1"/><feComposite in2="hardAlpha" operator="arithmetic" k2="-1" k3="1"/><feColorMatrix values="0 0 0 0 1 0 0 0 0 1 0 0 0 0 1 0 0 0 0.1 0"/><feBlend in2="shape" result="effect1_innerShadow_202_5874"/></filter><clipPath id="a"><path fill="#fff" d="M0 0h60v60H0z"/></clipPath></defs></svg>