<svg width="398" height="601" viewBox="0 0 398 601" fill="none" xmlns="http://www.w3.org/2000/svg"><g clip-path="url(#a)" filter="url(#b)"><path d="M44.102 36.5c0-6.826 5.548-12.36 12.391-12.36h285.01c6.844 0 12.392 5.534 12.392 12.36v487.167c0 6.825-5.548 12.359-12.392 12.359H56.493c-6.843 0-12.391-5.534-12.391-12.359V36.5Z" fill="#121212"/><mask id="c" style="mask-type:alpha" maskUnits="userSpaceOnUse" x="44" y="24" width="310" height="513"><path d="M44.102 36.5c0-6.826 5.548-12.36 12.391-12.36h285.01c6.844 0 12.392 5.534 12.392 12.36v487.167c0 6.825-5.548 12.359-12.392 12.359H56.493c-6.843 0-12.391-5.534-12.391-12.359V36.5Z" fill="#121212"/></mask><g mask="url(#c)"><path fill-rule="evenodd" clip-rule="evenodd" d="M266.96 74.12a51.55 51.55 0 0 1 .903 35.871 51.705 51.705 0 0 1-22.731 27.812l-51.681 29.759a22.26 22.26 0 0 1-16.552 1.739 22.205 22.205 0 0 1-13.116-10.219 22.108 22.108 0 0 1-2.315-16.438 22.16 22.16 0 0 1 9.785-13.428l51.681-29.76a7.374 7.374 0 0 0 2.442-9.93 7.404 7.404 0 0 0-4.346-3.401 7.425 7.425 0 0 0-5.497.545l-26.274 15.129a22.26 22.26 0 0 1-16.853 2.213 22.205 22.205 0 0 1-13.487-10.322 22.106 22.106 0 0 1-2.219-16.81 22.162 22.162 0 0 1 10.348-13.45l51.324-29.555a7.363 7.363 0 0 0 2.534-10.121 7.411 7.411 0 0 0-10.148-2.527l-50.769 29.235a36.956 36.956 0 0 0-16.098 18.867 36.85 36.85 0 0 0-.521 24.768c1.318 3.845.85 8.165-2.738 10.232-3.589 2.066-8.788.978-10.265-2.744a51.556 51.556 0 0 1-.898-35.89 51.708 51.708 0 0 1 22.761-27.813l51.681-29.76a22.26 22.26 0 0 1 16.551-1.739 22.2 22.2 0 0 1 13.115 10.22 22.1 22.1 0 0 1 2.316 16.438 22.155 22.155 0 0 1-9.785 13.428L174.45 76.215a7.374 7.374 0 0 0-2.443 9.93 7.403 7.403 0 0 0 4.347 3.401 7.424 7.424 0 0 0 5.497-.545l26.274-15.129a22.262 22.262 0 0 1 16.854-2.213 22.205 22.205 0 0 1 13.486 10.322 22.101 22.101 0 0 1 2.218 16.81 22.16 22.16 0 0 1-10.348 13.451l-51.358 29.574a7.379 7.379 0 0 0-3.368 4.537 7.36 7.36 0 0 0 .835 5.584 7.39 7.39 0 0 0 4.549 3.36 7.415 7.415 0 0 0 5.598-.832l50.77-29.236a36.957 36.957 0 0 0 16.097-18.867 36.842 36.842 0 0 0 .521-24.768c-1.317-3.844-.849-8.165 2.739-10.232 3.588-2.066 8.764-.965 10.242 2.757Z" fill="url(#d)"/></g><path d="M157.402 105.039h2.594c.187 1.649 1.819 2.734 4.049 2.734 2.137 0 3.675-1.085 3.675-2.573 0-1.291-.928-2.064-3.123-2.595l-2.195-.519c-3.11-.738-4.554-2.168-4.554-4.487 0-2.872 2.547-4.844 6.162-4.844 3.58 0 6.033 1.972 6.116 4.844h-2.559c-.153-1.66-1.549-2.664-3.592-2.664-2.042 0-3.44 1.015-3.44 2.491 0 1.177.893 1.869 3.076 2.4l1.867.449c3.473.808 4.917 2.18 4.917 4.614 0 3.114-2.524 5.064-6.538 5.064-3.755 0-6.29-1.904-6.455-4.914Zm14.327 4.637V97.541h2.418v2.042h.058c.552-1.35 1.843-2.249 3.51-2.249 1.713 0 2.957.865 3.451 2.376h.059c.633-1.476 2.089-2.376 3.849-2.376 2.442 0 4.038 1.592 4.038 4.002v8.34h-2.547v-7.74c0-1.569-.857-2.468-2.359-2.468-1.503 0-2.548 1.096-2.548 2.63v7.578h-2.488v-7.924c0-1.396-.904-2.284-2.336-2.284-1.502 0-2.57 1.153-2.57 2.71v7.498h-2.535Zm23.434-1.765c1.772 0 3.157-1.2 3.157-2.78v-.957l-3.039.184c-1.515.104-2.371.762-2.371 1.8 0 1.061.891 1.753 2.253 1.753Zm-.704 1.972c-2.419 0-4.108-1.476-4.108-3.656 0-2.122 1.654-3.426 4.589-3.587l3.38-.196v-.935c0-1.349-.926-2.156-2.476-2.156-1.468 0-2.383.691-2.606 1.776h-2.394c.14-2.192 2.042-3.807 5.094-3.807 2.993 0 4.906 1.557 4.906 3.991v8.363h-2.43v-1.996h-.058c-.717 1.35-2.278 2.203-3.897 2.203Zm8.129-.207V97.541h2.417v2.065h.059c.411-1.418 1.514-2.26 2.97-2.26.364 0 .681.057.869.092v2.318c-.2-.08-.646-.138-1.138-.138-1.632 0-2.642 1.072-2.642 2.791v7.267h-2.535Z" fill="#fff"/><path d="M210.494 94.67h2.547v2.871h2.348v1.973h-2.348v6.69c0 1.049.469 1.522 1.502 1.522.258 0 .669-.023.833-.057v1.972c-.281.069-.844.115-1.408.115-2.5 0-3.474-.934-3.474-3.275v-6.967h-1.796v-1.972h1.796v-2.873Zm20.389 2.456-3.65 12.55h-2.489l-4.565-16.644h2.734l3.134 13.033h.094l3.58-13.033h2.442l3.591 13.033h.094l3.134-13.033h2.735l-4.578 16.644h-2.476l-3.662-12.55h-.118Zm14.597 10.785c1.772 0 3.156-1.2 3.156-2.78v-.957l-3.04.184c-1.514.104-2.371.762-2.371 1.8 0 1.061.893 1.753 2.255 1.753Zm-.705 1.972c-2.418 0-4.108-1.476-4.108-3.656 0-2.122 1.655-3.426 4.59-3.587l3.379-.196v-.935c0-1.349-.927-2.156-2.476-2.156-1.467 0-2.382.691-2.605 1.776h-2.395c.141-2.192 2.043-3.807 5.094-3.807 2.993 0 4.906 1.557 4.906 3.991v8.363h-2.43v-1.996h-.058c-.716 1.35-2.277 2.203-3.897 2.203Zm8.224-.207V93.032h2.535v16.644h-2.535Zm4.513 0V93.032h2.535v16.644h-2.535Zm9.584-10.346c-1.772 0-3.016 1.326-3.145 3.16h6.174c-.059-1.857-1.256-3.16-3.029-3.16Zm3.016 6.782h2.406c-.352 2.214-2.487 3.794-5.317 3.794-3.626 0-5.821-2.41-5.821-6.24 0-3.806 2.23-6.344 5.716-6.344 3.427 0 5.564 2.376 5.564 6.056v.853h-8.721v.15c0 2.111 1.291 3.507 3.321 3.507 1.444 0 2.513-.715 2.852-1.776Zm4.538-11.442h2.547v2.871h2.348v1.973h-2.348v6.69c0 1.049.469 1.522 1.503 1.522.258 0 .669-.023.833-.057v1.972c-.282.069-.846.115-1.408.115-2.5 0-3.475-.934-3.475-3.275v-6.967h-1.796v-1.972h1.796v-2.873Z" fill="#fff"/><path fill-rule="evenodd" clip-rule="evenodd" d="M146.723 105.855a10.349 10.349 0 0 1-3.546 6.352 10.838 10.838 0 0 1-6.933 2.569h-12.303a4.632 4.632 0 0 1-3.135-1.36 4.407 4.407 0 0 1-1.285-3.102 4.41 4.41 0 0 1 1.285-3.102 4.636 4.636 0 0 1 3.135-1.36h12.303c.394-.016.765-.18 1.038-.457.272-.278.425-.647.425-1.031a1.47 1.47 0 0 0-.425-1.03 1.546 1.546 0 0 0-1.038-.458h-6.254a4.64 4.64 0 0 1-3.238-1.307 4.41 4.41 0 0 1-1.341-3.158c0-1.184.482-2.32 1.341-3.157a4.639 4.639 0 0 1 3.238-1.308h12.217c.405-.006.79-.17 1.071-.453.281-.283.435-.664.428-1.058a1.47 1.47 0 0 0-.465-1.044 1.546 1.546 0 0 0-1.086-.418h-12.086a7.756 7.756 0 0 0-4.824 1.675 7.418 7.418 0 0 0-2.653 4.271c-.162.804-.692 1.511-1.546 1.511-.854 0-1.67-.712-1.549-1.51a10.345 10.345 0 0 1 3.549-6.355 10.84 10.84 0 0 1 6.938-2.567h12.303c1.186.04 2.31.527 3.135 1.36a4.406 4.406 0 0 1 1.286 3.102c0 1.157-.461 2.27-1.286 3.102a4.635 4.635 0 0 1-3.135 1.36H129.99c-.394.016-.766.18-1.038.457a1.468 1.468 0 0 0-.425 1.03c0 .385.152.754.425 1.031a1.54 1.54 0 0 0 1.038.458h6.254c1.215 0 2.379.47 3.238 1.308a4.407 4.407 0 0 1 1.341 3.157c0 1.184-.482 2.32-1.341 3.157a4.64 4.64 0 0 1-3.238 1.308h-12.226a1.538 1.538 0 0 0-1.07.453 1.467 1.467 0 0 0-.428 1.059c.007.394.174.769.465 1.043.29.274.681.424 1.085.418h12.086a7.755 7.755 0 0 0 4.824-1.675 7.415 7.415 0 0 0 2.653-4.271c.162-.804.692-1.511 1.547-1.511.854 0 1.664.712 1.543 1.511Z" fill="#FF4E16"/><path d="M155.667 246.329h4.107c3.461 0 5.511 2.124 5.511 5.785 0 3.669-2.042 5.826-5.511 5.826h-4.107v-11.611Zm1.808 1.552v8.497h2.13c2.468 0 3.831-1.505 3.831-4.248 0-2.736-1.371-4.249-3.831-4.249h-2.13Zm12.294 8.828c1.219 0 2.171-.838 2.171-1.94v-.668l-2.09.129c-1.04.073-1.63.531-1.63 1.255 0 .741.614 1.224 1.549 1.224Zm-.483 1.376c-1.663 0-2.824-1.03-2.824-2.551 0-1.48 1.138-2.39 3.154-2.503l2.324-.136v-.652c0-.941-.637-1.505-1.703-1.505-1.008 0-1.638.483-1.791 1.239H166.8c.097-1.528 1.405-2.655 3.502-2.655 2.057 0 3.373 1.087 3.373 2.784v5.834h-1.671v-1.393h-.04c-.492.941-1.565 1.538-2.678 1.538Zm5.929-6.213c0-1.512 1.34-2.55 3.325-2.55 1.887 0 3.21 1.054 3.267 2.558h-1.638c-.08-.764-.702-1.239-1.678-1.239-.944 0-1.574.459-1.574 1.127 0 .523.42.877 1.299 1.094l1.428.331c1.711.409 2.356 1.053 2.356 2.3 0 1.545-1.444 2.607-3.526 2.607-2.008 0-3.339-1.038-3.476-2.59h1.726c.136.813.766 1.263 1.831 1.263 1.049 0 1.695-.435 1.695-1.119 0-.539-.324-.836-1.211-1.062l-1.517-.37c-1.532-.37-2.307-1.166-2.307-2.35Zm8.205 6.068v-11.611h1.726v4.562h.041c.467-.99 1.396-1.561 2.687-1.561 1.863 0 2.976 1.239 2.976 3.154v5.456h-1.751v-5.118c0-1.248-.629-1.995-1.855-1.995-1.291 0-2.081.884-2.081 2.22v4.893h-1.743Zm13.634.145c-1.242 0-2.203-.604-2.726-1.585h-.033v1.44h-1.694v-11.611h1.742v4.586h.04c.508-.981 1.477-1.578 2.679-1.578 2.138 0 3.534 1.691 3.534 4.371 0 2.687-1.388 4.377-3.542 4.377Zm-.468-7.283c-1.323 0-2.251 1.159-2.251 2.906 0 1.762.928 2.904 2.251 2.904 1.371 0 2.218-1.11 2.218-2.904 0-1.779-.847-2.906-2.218-2.906Zm9.019 7.298c-2.428 0-4.025-1.665-4.025-4.392 0-2.721 1.606-4.386 4.025-4.386 2.421 0 4.026 1.665 4.026 4.386 0 2.727-1.597 4.392-4.026 4.392Zm0-1.431c1.373 0 2.251-1.079 2.251-2.961 0-1.876-.887-2.954-2.251-2.954-1.363 0-2.25 1.078-2.25 2.954 0 1.882.887 2.961 2.25 2.961Zm8.343.04c1.217 0 2.17-.838 2.17-1.94v-.668l-2.09.129c-1.04.073-1.629.531-1.629 1.255 0 .741.612 1.224 1.549 1.224Zm-.484 1.376c-1.663 0-2.825-1.03-2.825-2.551 0-1.48 1.138-2.39 3.155-2.503l2.324-.136v-.652c0-.941-.638-1.505-1.702-1.505-1.009 0-1.638.483-1.792 1.239h-1.645c.096-1.528 1.403-2.655 3.501-2.655 2.057 0 3.372 1.087 3.372 2.784v5.834h-1.669v-1.393h-.041c-.492.941-1.565 1.538-2.678 1.538Zm6.082-.145v-8.466h1.662v1.441h.041c.282-.989 1.041-1.578 2.04-1.578.251 0 .469.042.598.065v1.617c-.137-.055-.444-.095-.783-.095-1.121 0-1.815.747-1.815 1.946v5.07h-1.743Zm8.237.145c-2.146 0-3.565-1.707-3.565-4.377 0-2.672 1.419-4.371 3.549-4.371 1.218 0 2.187.612 2.663 1.545h.032v-4.553h1.75v11.611h-1.694v-1.44h-.032c-.5.965-1.469 1.585-2.703 1.585Zm.46-7.283c-1.38 0-2.243 1.127-2.243 2.906 0 1.785.863 2.904 2.243 2.904 1.339 0 2.234-1.135 2.234-2.904 0-1.754-.895-2.906-2.234-2.906Zm-95.606-4.677-5.414 5.457a1.757 1.757 0 0 0-.51 1.239v5.903c0 .338.134.663.371.902.237.24.559.373.894.373h3.228c.336 0 .657-.133.895-.373.237-.239.37-.564.37-.902v-1.819a.423.423 0 0 1 .257-.387.43.43 0 0 1 .159-.032h2.11a.43.43 0 0 1 .159.032.414.414 0 0 1 .257.387v1.819c0 .338.133.663.37.902.237.24.559.373.894.373h3.229c.335 0 .657-.133.894-.373.237-.239.37-.564.37-.902v-5.903c0-.23-.045-.458-.132-.671a1.736 1.736 0 0 0-.377-.568l-5.416-5.457a1.836 1.836 0 0 0-2.608 0Z" fill="#fff"/><path d="M155.168 299.033h1.46c.137 1.255 1.331 2.084 2.993 2.084 1.573 0 2.719-.829 2.719-1.971 0-.982-.686-1.585-2.251-1.988l-1.493-.386c-2.145-.547-3.098-1.488-3.098-3.065 0-1.931 1.695-3.284 4.114-3.284 2.317 0 3.995 1.368 4.059 3.316h-1.452c-.129-1.248-1.138-2.012-2.655-2.012-1.508 0-2.557.78-2.557 1.915 0 .877.646 1.399 2.226 1.81l1.219.322c2.412.603 3.388 1.529 3.388 3.195 0 2.123-1.678 3.452-4.357 3.452-2.468 0-4.178-1.336-4.315-3.388Zm13.513-4.104c-1.315 0-2.234 1.006-2.323 2.398h4.558c-.033-1.4-.912-2.398-2.235-2.398Zm2.202 4.901h1.379c-.241 1.464-1.661 2.543-3.492 2.543-2.405 0-3.865-1.667-3.865-4.297 0-2.6 1.485-4.362 3.8-4.362 2.267 0 3.663 1.642 3.663 4.176v.532h-6.019v.08c0 1.602.944 2.655 2.453 2.655 1.065 0 1.847-.538 2.081-1.327Zm2.905 2.397v-8.368h1.322v1.336h.032c.469-.901 1.365-1.481 2.664-1.481 1.839 0 2.903 1.183 2.903 3.083v5.43h-1.403v-5.181c0-1.353-.638-2.092-1.929-2.092-1.323 0-2.186.933-2.186 2.349v4.924h-1.403Zm11.892.146c-2.139 0-3.591-1.707-3.591-4.329 0-2.624 1.444-4.33 3.558-4.33 1.202 0 2.17.588 2.67 1.505h.033v-4.602h1.403v11.61h-1.339v-1.416h-.024c-.541.965-1.501 1.562-2.71 1.562Zm.265-7.427c-1.484 0-2.42 1.207-2.42 3.098 0 1.898.936 3.097 2.42 3.097 1.445 0 2.412-1.223 2.412-3.097 0-1.868-.967-3.098-2.412-3.098Z" fill="#464646"/><mask id="e" style="mask-type:luminance" maskUnits="userSpaceOnUse" x="125" y="288" width="18" height="18"><path d="M142.203 288.838h-16.522v16.479h16.522v-16.479Z" fill="#fff"/></mask><g mask="url(#e)"><path fill-rule="evenodd" clip-rule="evenodd" d="m137.5 293.528-5.452 3.776-5.703-1.896a.969.969 0 0 1 .009-1.84l14.58-4.684a.97.97 0 0 1 1.222 1.22l-4.695 14.542a.97.97 0 0 1-1.845.009l-1.911-5.715 3.795-5.412Z" fill="#464646"/></g><path d="M165.018 346.515h-1.452v-5.286h-6.39v5.286h-1.452v-11.61h1.452v5.021h6.39v-5.021h1.452v11.61Zm2.114 0v-8.368h1.403v8.368h-1.403Zm.701-9.776a.876.876 0 0 1-.871-.869c0-.483.395-.87.871-.87.484 0 .88.387.88.87a.879.879 0 0 1-.88.869Zm2.452 3.717c0-1.431 1.284-2.454 3.131-2.454 1.734 0 3.01 1.03 3.074 2.446h-1.34c-.097-.804-.749-1.303-1.782-1.303-1.024 0-1.703.507-1.703 1.239 0 .579.444.965 1.396 1.207l1.299.313c1.694.428 2.307 1.038 2.307 2.27 0 1.457-1.379 2.487-3.339 2.487-1.841 0-3.123-.998-3.268-2.48h1.404c.153.87.814 1.336 1.952 1.336 1.137 0 1.84-.483 1.84-1.239 0-.595-.347-.916-1.291-1.167l-1.477-.378c-1.477-.378-2.203-1.134-2.203-2.277Zm8.295-4.329h1.403v2.02h1.63v1.15h-1.63v4.973c0 .764.322 1.11 1.041 1.11.161 0 .483-.023.58-.04v1.175c-.169.041-.556.064-.887.064-1.54 0-2.137-.627-2.137-2.236v-5.046h-1.251v-1.15h1.251v-2.02Zm7.768 10.534c-2.323 0-3.889-1.667-3.889-4.329 0-2.672 1.566-4.33 3.889-4.33 2.315 0 3.881 1.658 3.881 4.33 0 2.662-1.566 4.329-3.881 4.329Zm0-1.232c1.485 0 2.453-1.126 2.453-3.097 0-1.973-.968-3.098-2.453-3.098-1.485 0-2.461 1.125-2.461 3.098 0 1.971.976 3.097 2.461 3.097Zm5.301 1.086v-8.368h1.323v1.368h.032c.274-.925 1.049-1.513 2.033-1.513.242 0 .452.04.565.056v1.36c-.113-.04-.412-.08-.751-.08-1.088 0-1.799.78-1.799 1.964v5.213h-1.403Zm5.792 3.13c-.169 0-.451-.016-.605-.048v-1.174c.154.032.372.04.549.04.782 0 1.218-.379 1.541-1.352l.193-.587-3.098-8.377h1.5l2.324 6.969h.025l2.323-6.969h1.476l-3.299 8.955c-.718 1.956-1.412 2.543-2.929 2.543Zm-60.47-15.489h-6.058c-2.631 0-4.2 1.564-4.2 4.189v6.041c0 2.625 1.569 4.189 4.2 4.189h6.058c2.631 0 4.199-1.564 4.199-4.189v-6.041c0-2.625-1.568-4.189-4.199-4.189Zm-4.496 9.3-1.627 1.623a.536.536 0 0 1-.383.158.525.525 0 0 1-.383-.158l-.542-.541a.53.53 0 0 1 0-.764.546.546 0 0 1 .766 0l.159.158 1.243-1.24a.547.547 0 0 1 .767 0 .544.544 0 0 1 0 .764Zm0-5.046-1.627 1.622a.536.536 0 0 1-.383.158.525.525 0 0 1-.383-.158l-.542-.541a.53.53 0 0 1 0-.764.546.546 0 0 1 .766 0l.159.158 1.243-1.24a.547.547 0 0 1 .767 0 .545.545 0 0 1 0 .765Zm5.486 6.286h-3.795a.545.545 0 0 1-.542-.54c0-.296.246-.541.542-.541h3.795a.54.54 0 1 1 0 1.081Zm0-5.046h-3.795a.545.545 0 0 1-.542-.541c0-.296.246-.541.542-.541h3.795a.54.54 0 1 1 0 1.082Zm17.207 47.958h1.46c.137 1.256 1.331 2.085 2.993 2.085 1.573 0 2.719-.829 2.719-1.971 0-.982-.686-1.585-2.251-1.988l-1.493-.386c-2.145-.547-3.098-1.489-3.098-3.066 0-1.931 1.695-3.283 4.114-3.283 2.317 0 3.995 1.368 4.059 3.315h-1.452c-.129-1.247-1.138-2.011-2.655-2.011-1.508 0-2.557.78-2.557 1.915 0 .877.646 1.399 2.226 1.81l1.219.322c2.412.603 3.388 1.529 3.388 3.194 0 2.124-1.678 3.453-4.357 3.453-2.468 0-4.178-1.336-4.315-3.389Zm13.513-4.103c-1.315 0-2.234 1.006-2.323 2.398h4.558c-.033-1.4-.912-2.398-2.235-2.398Zm2.202 4.901h1.379c-.241 1.464-1.661 2.542-3.492 2.542-2.405 0-3.865-1.666-3.865-4.297 0-2.599 1.485-4.361 3.8-4.361 2.267 0 3.663 1.641 3.663 4.176v.532h-6.019v.08c0 1.601.944 2.655 2.453 2.655 1.065 0 1.847-.539 2.081-1.327Zm3.356-7.991h1.404v2.02h1.63v1.15h-1.63v4.973c0 .764.322 1.11 1.041 1.11.161 0 .483-.023.581-.04v1.175c-.17.04-.557.064-.888.064-1.54 0-2.138-.627-2.138-2.236v-5.046h-1.251v-1.15h1.251v-2.02Zm4.987 0h1.403v2.02h1.629v1.15h-1.629v4.973c0 .764.322 1.11 1.041 1.11.161 0 .484-.023.58-.04v1.175c-.169.04-.556.064-.887.064-1.541 0-2.137-.627-2.137-2.236v-5.046h-1.251v-1.15h1.251v-2.02Zm4.605 10.388v-8.368h1.404v8.368h-1.404Zm.702-9.776a.877.877 0 0 1-.871-.869c0-.483.395-.87.871-.87.485 0 .88.387.88.87a.879.879 0 0 1-.88.869Zm2.598 9.776v-8.368h1.323v1.336h.032c.468-.901 1.364-1.481 2.662-1.481 1.841 0 2.905 1.183 2.905 3.082v5.431h-1.403v-5.181c0-1.353-.638-2.092-1.929-2.092-1.323 0-2.186.933-2.186 2.349v4.924h-1.404Zm12.126-1.167c1.46 0 2.436-1.207 2.436-3.049 0-1.843-.976-3.066-2.436-3.066-1.444 0-2.388 1.191-2.388 3.066 0 1.875.944 3.049 2.388 3.049Zm.048 4.321c-1.847 0-3.307-1.037-3.542-2.462h1.445c.274.765 1.105 1.271 2.154 1.271 1.452 0 2.331-.836 2.331-2.083v-1.32h-.032c-.517.909-1.509 1.504-2.686 1.504-2.139 0-3.542-1.681-3.542-4.28 0-2.624 1.403-4.297 3.574-4.297 1.185 0 2.169.58 2.726 1.553h.025v-1.408h1.339v8.199c0 1.995-1.477 3.323-3.792 3.323Zm5.478-9.213c0-1.432 1.283-2.454 3.13-2.454 1.734 0 3.01 1.03 3.074 2.446h-1.34c-.096-.805-.749-1.303-1.782-1.303-1.025 0-1.702.507-1.702 1.239 0 .579.443.965 1.395 1.207l1.299.313c1.695.428 2.307 1.038 2.307 2.27 0 1.456-1.379 2.486-3.339 2.486-1.84 0-3.123-.998-3.268-2.479h1.404c.154.87.814 1.336 1.952 1.336 1.137 0 1.84-.483 1.84-1.239 0-.595-.347-.916-1.291-1.167l-1.477-.378c-1.476-.378-2.202-1.134-2.202-2.277Z" fill="#464646"/><mask id="f" style="mask-type:luminance" maskUnits="userSpaceOnUse" x="125" y="377" width="18" height="17"><path d="M142.203 377.414h-16.522v16.479h16.522v-16.479Z" fill="#fff"/></mask><g mask="url(#f)"><path d="M140.762 383.511a2.015 2.015 0 0 1-1.457-.98 2.017 2.017 0 0 1-.138-1.749.947.947 0 0 0-.284-1.066 7.592 7.592 0 0 0-2.272-1.313.953.953 0 0 0-1.079.298 2.016 2.016 0 0 1-1.59.774 2.025 2.025 0 0 1-1.591-.774.952.952 0 0 0-1.079-.298 7.653 7.653 0 0 0-2.117 1.184.962.962 0 0 0-.299 1.097 2.001 2.001 0 0 1-.796 2.463 2.025 2.025 0 0 1-.882.297.955.955 0 0 0-.837.768 7.328 7.328 0 0 0-.046 2.652.954.954 0 0 0 .842.798 2.006 2.006 0 0 1 1.641 2.837.94.94 0 0 0 .264 1.123 7.674 7.674 0 0 0 2.251 1.293.943.943 0 0 0 .761-.051.96.96 0 0 0 .339-.294 2 2 0 0 1 1.652-.866 2.025 2.025 0 0 1 1.621.814.951.951 0 0 0 1.115.314 7.762 7.762 0 0 0 2.066-1.231.95.95 0 0 0 .279-1.086 1.995 1.995 0 0 1 .113-1.79 2.015 2.015 0 0 1 1.503-.986.955.955 0 0 0 .81-.783c.083-.429.128-.865.134-1.303a7.301 7.301 0 0 0-.129-1.375.942.942 0 0 0-.795-.767Zm-4.239 2.142c0 .509-.151 1.008-.435 1.431a2.59 2.59 0 0 1-1.158.949 2.59 2.59 0 0 1-2.814-.559 2.564 2.564 0 0 1-.559-2.806 2.574 2.574 0 0 1 2.385-1.589 2.576 2.576 0 0 1 2.581 2.574Z" fill="#464646"/></g></g><defs><linearGradient id="d" x1="153.562" y1="7.662" x2="242.021" y2="162.354" gradientUnits="userSpaceOnUse"><stop stop-color="#FF4E16" stop-opacity=".17"/><stop offset="1" stop-color="#FF4E16" stop-opacity="0"/></linearGradient><clipPath id="a"><path fill="#fff" transform="translate(44.102 24.14)" d="M0 0h309.794v511.886H0z"/></clipPath><filter id="b" x=".102" y=".141" width="397.793" height="599.886" filterUnits="userSpaceOnUse" color-interpolation-filters="sRGB"><feFlood flood-opacity="0" result="BackgroundImageFix"/><feColorMatrix in="SourceAlpha" values="0 0 0 0 0 0 0 0 0 0 0 0 0 0 0 0 0 0 127 0" result="hardAlpha"/><feOffset dy="20"/><feGaussianBlur stdDeviation="22"/><feComposite in2="hardAlpha" operator="out"/><feColorMatrix values="0 0 0 0 0 0 0 0 0 0 0 0 0 0 0 0 0 0 0.25 0"/><feBlend in2="BackgroundImageFix" result="effect1_dropShadow_202_5772"/><feBlend in="SourceGraphic" in2="effect1_dropShadow_202_5772" result="shape"/></filter></defs></svg>