<svg width="68" height="68" viewBox="0 0 68 68" fill="none" xmlns="http://www.w3.org/2000/svg"><g clip-path="url(#a)"><g filter="url(#b)"><path d="M22.89 29.102a1.132 1.132 0 0 0-.404-.422l-9.14-5.586a1.142 1.142 0 0 0-1.19 0l-9.14 5.586a1.131 1.131 0 0 0-.404.422l10.139 6.197 10.139-6.197Z" fill="url(#c)"/><path d="M2.612 29.102c-.094.169-.145.36-.145.555V39.8a1.142 1.142 0 0 0 .547.975l9.14 5.586c.18.11.386.167.596.167l.001-11.23-10.139-6.197Z" fill="url(#d)"/><path d="M22.89 29.102c.094.169.142.36.143.555V39.8a1.142 1.142 0 0 1-.548.975l-9.14 5.586c-.18.11-.385.167-.595.167l.001-11.23 10.139-6.197Z" fill="url(#e)"/></g><g filter="url(#f)"><path d="M22.89 29.102a1.13 1.13 0 0 0-.402-.422l-9.14-5.586a1.143 1.143 0 0 0-1.191 0l-9.14 5.586a1.131 1.131 0 0 0-.404.422l10.139 6.197 10.139-6.197Z" fill="url(#g)"/><path d="M2.613 29.102c-.094.169-.145.36-.145.555V39.8a1.142 1.142 0 0 0 .547.975l9.14 5.586c.18.11.386.167.596.167v-11.23L2.614 29.102Z" fill="url(#h)"/><path d="M22.89 29.102c.095.169.143.36.144.555V39.8a1.142 1.142 0 0 1-.548.975l-9.14 5.586c-.18.11-.385.167-.595.167v-11.23l10.14-6.197Z" fill="url(#i)"/></g><g filter="url(#j)"><path d="M37.58 27.462a.4.4 0 0 0-.143-.15l-3.226-1.97a.404.404 0 0 0-.42 0l-3.226 1.97a.4.4 0 0 0-.143.15l3.579 2.187 3.578-2.187Z" fill="url(#k)"/><path d="M30.422 27.462a.405.405 0 0 0-.05.195v3.58a.403.403 0 0 0 .192.345l3.226 1.97c.063.04.136.06.21.06V29.65l-3.578-2.187Z" fill="url(#l)"/><path d="M37.58 27.462c.032.06.05.127.05.195v3.58a.404.404 0 0 1-.194.345l-3.226 1.97a.402.402 0 0 1-.21.06V29.65l3.58-2.187Z" fill="url(#m)"/></g><g filter="url(#n)"><path d="M45.08 32.271a.4.4 0 0 0-.143-.149l-3.226-1.971a.404.404 0 0 0-.42 0l-3.226 1.971a.4.4 0 0 0-.143.149l3.579 2.187 3.578-2.187Z" fill="url(#o)"/><path d="M37.922 32.271a.405.405 0 0 0-.05.196v3.58a.403.403 0 0 0 .192.344l3.226 1.971c.063.04.136.06.21.06v-3.964l-3.578-2.187Z" fill="url(#p)"/><path d="M45.08 32.271c.032.06.05.127.05.196v3.58a.405.405 0 0 1-.194.344l-3.226 1.971a.403.403 0 0 1-.21.06v-3.964l3.58-2.187Z" fill="url(#q)"/></g><g filter="url(#r)"><path d="M37.579 37.787a.4.4 0 0 0-.142-.149l-3.226-1.971a.404.404 0 0 0-.42 0l-3.227 1.971a.4.4 0 0 0-.142.149l3.579 2.187 3.578-2.187Z" fill="url(#s)"/><path d="M30.422 37.787a.406.406 0 0 0-.051.196v3.58a.405.405 0 0 0 .193.344l3.226 1.971c.063.04.136.06.21.06v-3.964l-3.578-2.187Z" fill="url(#t)"/><path d="M37.579 37.787c.033.06.05.127.05.196v3.58a.403.403 0 0 1-.193.344l-3.226 1.971a.404.404 0 0 1-.21.06v-3.964l3.579-2.187Z" fill="url(#u)"/></g><g filter="url(#v)"><path d="M46.572 14.741a1.402 1.402 0 0 0-.5-.523L34.737 7.292a1.416 1.416 0 0 0-1.476 0l-11.334 6.926a1.418 1.418 0 0 0-.5.523L34 22.424l12.572-7.683Z" fill="#1D1D1D" fill-opacity=".05"/><path d="M46.572 14.741a1.402 1.402 0 0 0-.5-.523L34.737 7.292a1.416 1.416 0 0 0-1.476 0l-11.334 6.926a1.418 1.418 0 0 0-.5.523L34 22.424l12.572-7.683Z" fill="url(#w)" fill-opacity=".2"/><path d="M45.993 14.346c.147.09.273.207.371.346L34 22.248l-12.364-7.556c.098-.139.224-.257.37-.346L33.34 7.42a1.266 1.266 0 0 1 1.32 0l11.333 6.926Z" stroke="url(#x)" stroke-opacity=".1" stroke-width=".3"/></g><g filter="url(#y)"><path d="M21.428 14.74c-.116.21-.178.447-.178.687v12.577a1.416 1.416 0 0 0 .679 1.208l11.333 6.926c.222.136.477.208.738.208V22.423l-12.572-7.682Z" fill="#1D1D1D" fill-opacity=".05"/><path d="M21.428 14.74c-.116.21-.178.447-.178.687v12.577a1.416 1.416 0 0 0 .679 1.208l11.333 6.926c.222.136.477.208.738.208V22.423l-12.572-7.682Z" fill="url(#z)" fill-opacity=".2"/><path d="M21.4 15.427c0-.162.032-.322.092-.472l12.358 7.553v13.68a1.267 1.267 0 0 1-.51-.178l-11.333-6.926a1.268 1.268 0 0 1-.607-1.08V15.427Z" stroke="url(#A)" stroke-opacity=".1" stroke-width=".3"/></g><g filter="url(#B)"><path d="M46.572 14.74c.116.21.177.447.178.687v12.577a1.416 1.416 0 0 1-.679 1.208l-11.333 6.926a1.417 1.417 0 0 1-.738.208V22.423l12.572-7.682Z" fill="#1D1D1D" fill-opacity=".05"/><path d="M46.572 14.74c.116.21.177.447.178.687v12.577a1.416 1.416 0 0 1-.679 1.208l-11.333 6.926a1.417 1.417 0 0 1-.738.208V22.423l12.572-7.682Z" fill="url(#C)" fill-opacity=".2"/><path d="M46.75 28.004a1.416 1.416 0 0 1-.679 1.208l-11.333 6.926 12.012-8.134Zm0 0h-.15.15Zm-.15-12.577h.15-.15Zm-.092-.472.13-.079a1.434 1.434 0 0 0-.066-.135l-.129.078c.025.044.046.09.065.136Zm-12.43 7.596.072-.043v-.085H34l.078.128Zm.072 13.636c-.05.006-.1.01-.15.01v.15c.05 0 .1-.003.15-.009v-.15Z" stroke="url(#D)" stroke-opacity=".1" stroke-width=".3"/></g><g filter="url(#E)"><path d="M67.822 27.751a1.403 1.403 0 0 0-.5-.523l-11.334-6.926a1.417 1.417 0 0 0-1.476 0l-11.333 6.926c-.21.128-.382.308-.5.523l12.571 7.684 12.572-7.684Z" fill="#1D1D1D" fill-opacity=".05"/><path d="M67.822 27.751a1.403 1.403 0 0 0-.5-.523l-11.334-6.926a1.417 1.417 0 0 0-1.476 0l-11.333 6.926c-.21.128-.382.308-.5.523l12.571 7.684 12.572-7.684Z" fill="url(#F)" fill-opacity=".2"/><path d="m55.25 35.26-12.364-7.558c.098-.139.224-.257.37-.346L54.59 20.43a1.267 1.267 0 0 1 1.32 0l11.333 6.926c.147.09.273.207.371.346L55.25 35.26Z" stroke="url(#G)" stroke-opacity=".1" stroke-width=".3"/></g><g filter="url(#H)"><path d="M42.678 27.752c-.116.21-.178.447-.178.687v12.578a1.417 1.417 0 0 0 .679 1.208l11.333 6.926c.222.136.477.208.738.208V35.436l-12.572-7.684Z" fill="#1D1D1D" fill-opacity=".05"/><path d="M42.678 27.752c-.116.21-.178.447-.178.687v12.578a1.417 1.417 0 0 0 .679 1.208l11.333 6.926c.222.136.477.208.738.208V35.436l-12.572-7.684Z" fill="url(#I)" fill-opacity=".2"/><path d="M43.257 42.097a1.268 1.268 0 0 1-.607-1.08V28.439c0-.162.032-.322.092-.472L55.1 35.52V49.2a1.265 1.265 0 0 1-.51-.177l-11.333-6.926Z" stroke="url(#J)" stroke-opacity=".1" stroke-width=".3"/></g><g filter="url(#K)"><path d="M67.822 27.752c.116.21.178.447.178.687v12.578a1.417 1.417 0 0 1-.679 1.208l-11.333 6.926a1.417 1.417 0 0 1-.738.208V35.436l12.572-7.684Z" fill="#1D1D1D" fill-opacity=".05"/><path d="M67.822 27.752c.116.21.178.447.178.687v12.578a1.417 1.417 0 0 1-.679 1.208l-11.333 6.926a1.417 1.417 0 0 1-.738.208V35.436l12.572-7.684Z" fill="url(#L)" fill-opacity=".2"/><path d="M68 41.017a1.417 1.417 0 0 1-.679 1.208l-11.333 6.926L68 41.017Zm0 0h-.15.15Zm-.15-12.578H68h-.15Zm-.092-.472.13-.08a1.434 1.434 0 0 0-.067-.135l-.128.079c.025.044.046.09.065.136Zm-12.43 7.597.072-.044v-.084h-.15l.078.128ZM55.4 49.2c-.05.006-.1.01-.15.01v.15c.05 0 .1-.003.15-.009v-.15Z" stroke="url(#M)" stroke-opacity=".1" stroke-width=".3"/></g><g filter="url(#N)"><path d="M25.322 27.751a1.403 1.403 0 0 0-.5-.523l-11.334-6.926a1.416 1.416 0 0 0-1.476 0L.679 27.228c-.21.128-.382.308-.5.523l12.571 7.684 12.572-7.684Z" fill="#1D1D1D" fill-opacity=".05"/><path d="M25.322 27.751a1.403 1.403 0 0 0-.5-.523l-11.334-6.926a1.416 1.416 0 0 0-1.476 0L.679 27.228c-.21.128-.382.308-.5.523l12.571 7.684 12.572-7.684Z" fill="url(#O)" fill-opacity=".2"/><path d="M12.75 35.26.386 27.701c.098-.139.224-.257.37-.346L12.09 20.43a1.266 1.266 0 0 1 1.32 0l11.333 6.926c.147.09.273.207.371.346L12.75 35.26Z" stroke="url(#P)" stroke-opacity=".1" stroke-width=".3"/></g><g filter="url(#Q)"><path d="M.178 27.752c-.116.21-.178.447-.178.687v12.578a1.417 1.417 0 0 0 .679 1.208l11.333 6.926c.222.136.477.208.738.208V35.436L.178 27.752Z" fill="#1D1D1D" fill-opacity=".05"/><path d="M.178 27.752c-.116.21-.178.447-.178.687v12.578a1.417 1.417 0 0 0 .679 1.208l11.333 6.926c.222.136.477.208.738.208V35.436L.178 27.752Z" fill="url(#R)" fill-opacity=".2"/><path d="M.757 42.097a1.267 1.267 0 0 1-.607-1.08V28.439c0-.162.032-.322.092-.472L12.6 35.52V49.2a1.265 1.265 0 0 1-.51-.177L.757 42.097Z" stroke="url(#S)" stroke-opacity=".1" stroke-width=".3"/></g><g filter="url(#T)"><path d="M25.322 27.752c.116.21.178.447.178.687v12.578a1.417 1.417 0 0 1-.679 1.208l-11.333 6.926a1.417 1.417 0 0 1-.738.208V35.436l12.572-7.684Z" fill="#1D1D1D" fill-opacity=".05"/><path d="M25.322 27.752c.116.21.178.447.178.687v12.578a1.417 1.417 0 0 1-.679 1.208l-11.333 6.926a1.417 1.417 0 0 1-.738.208V35.436l12.572-7.684Z" fill="url(#U)" fill-opacity=".2"/><path d="M25.5 41.017a1.417 1.417 0 0 1-.679 1.208l-11.333 6.926L25.5 41.017Zm0 0h-.15.15Zm-.15-12.578h.15-.15Zm-.092-.472.13-.08a1.434 1.434 0 0 0-.067-.135l-.128.079c.025.044.046.09.065.136Zm-12.43 7.597.072-.044v-.084h-.15l.078.128ZM12.9 49.2c-.05.006-.1.01-.15.01v.15c.05 0 .1-.003.15-.009v-.15Z" stroke="url(#V)" stroke-opacity=".1" stroke-width=".3"/></g><g filter="url(#W)"><path d="M46.572 41.901a1.403 1.403 0 0 0-.5-.523l-11.334-6.926a1.417 1.417 0 0 0-1.476 0l-11.334 6.926a1.418 1.418 0 0 0-.5.523L34 49.584 46.572 41.9Z" fill="#1D1D1D" fill-opacity=".05"/><path d="M46.572 41.901a1.403 1.403 0 0 0-.5-.523l-11.334-6.926a1.417 1.417 0 0 0-1.476 0l-11.334 6.926a1.418 1.418 0 0 0-.5.523L34 49.584 46.572 41.9Z" fill="url(#X)" fill-opacity=".2"/><path d="M45.993 41.506c.147.09.273.207.371.346L34 49.408l-12.364-7.556c.098-.139.224-.256.37-.345L33.34 34.58a1.266 1.266 0 0 1 1.32 0l11.333 6.926Z" stroke="url(#Y)" stroke-opacity=".1" stroke-width=".3"/></g><g filter="url(#Z)"><path d="M21.428 41.901a1.42 1.42 0 0 0-.178.686v12.577a1.417 1.417 0 0 0 .679 1.208l11.333 6.926c.222.136.477.208.738.209V49.584L21.428 41.9Z" fill="#1D1D1D" fill-opacity=".05"/><path d="M21.428 41.901a1.42 1.42 0 0 0-.178.686v12.577a1.417 1.417 0 0 0 .679 1.208l11.333 6.926c.222.136.477.208.738.209V49.584L21.428 41.9Z" fill="url(#aa)" fill-opacity=".2"/><path d="M22.007 56.244a1.267 1.267 0 0 1-.607-1.08V42.587c0-.162.032-.322.092-.471l12.358 7.552v13.68a1.265 1.265 0 0 1-.51-.178l-11.333-6.926Z" stroke="url(#ab)" stroke-opacity=".1" stroke-width=".3"/></g><g filter="url(#ac)"><path d="M46.572 41.901c.116.21.177.446.178.686v12.577a1.417 1.417 0 0 1-.679 1.208l-11.333 6.926a1.417 1.417 0 0 1-.738.209V49.584L46.572 41.9Z" fill="#1D1D1D" fill-opacity=".05"/><path d="M46.572 41.901c.116.21.177.446.178.686v12.577a1.417 1.417 0 0 1-.679 1.208l-11.333 6.926a1.417 1.417 0 0 1-.738.209V49.584L46.572 41.9Z" fill="url(#ad)" fill-opacity=".2"/><path d="M46.75 55.164a1.417 1.417 0 0 1-.679 1.208l-11.333 6.926 12.012-8.134Zm0 0h-.15.15Zm-.15-12.577h.15-.15Zm-.092-.471.13-.08a1.41 1.41 0 0 0-.066-.135l-.129.078c.025.044.046.09.065.137Zm-12.43 7.596.072-.044v-.084H34l.078.128Zm.072 13.635c-.05.006-.1.01-.15.01v.15c.05 0 .1-.003.15-.008v-.152Z" stroke="url(#ae)" stroke-opacity=".1" stroke-width=".3"/></g></g><defs><linearGradient id="c" x1="2.467" y1="22.927" x2="27.051" y2="28.366" gradientUnits="userSpaceOnUse"><stop stop-color="#FFD39E"/><stop offset=".703" stop-color="#FF4E16" stop-opacity=".35"/></linearGradient><linearGradient id="d" x1="2.467" y1="22.927" x2="27.051" y2="28.366" gradientUnits="userSpaceOnUse"><stop stop-color="#FFD39E"/><stop offset=".703" stop-color="#FF4E16" stop-opacity=".35"/></linearGradient><linearGradient id="e" x1="2.467" y1="22.927" x2="27.051" y2="28.366" gradientUnits="userSpaceOnUse"><stop stop-color="#FFD39E"/><stop offset=".703" stop-color="#FF4E16" stop-opacity=".35"/></linearGradient><linearGradient id="g" x1="2.468" y1="22.927" x2="27.052" y2="28.366" gradientUnits="userSpaceOnUse"><stop stop-color="#FFD39E"/><stop offset=".703" stop-color="#FF4E16" stop-opacity=".35"/></linearGradient><linearGradient id="h" x1="2.468" y1="22.927" x2="27.052" y2="28.366" gradientUnits="userSpaceOnUse"><stop stop-color="#FFD39E"/><stop offset=".703" stop-color="#FF4E16" stop-opacity=".35"/></linearGradient><linearGradient id="i" x1="2.468" y1="22.927" x2="27.052" y2="28.366" gradientUnits="userSpaceOnUse"><stop stop-color="#FFD39E"/><stop offset=".703" stop-color="#FF4E16" stop-opacity=".35"/></linearGradient><linearGradient id="k" x1="30.371" y1="25.282" x2="39.048" y2="27.202" gradientUnits="userSpaceOnUse"><stop stop-color="#FFD39E"/><stop offset=".703" stop-color="#FF4E16" stop-opacity=".35"/></linearGradient><linearGradient id="l" x1="30.371" y1="25.282" x2="39.048" y2="27.202" gradientUnits="userSpaceOnUse"><stop stop-color="#FFD39E"/><stop offset=".703" stop-color="#FF4E16" stop-opacity=".35"/></linearGradient><linearGradient id="m" x1="30.371" y1="25.282" x2="39.048" y2="27.202" gradientUnits="userSpaceOnUse"><stop stop-color="#FFD39E"/><stop offset=".703" stop-color="#FF4E16" stop-opacity=".35"/></linearGradient><linearGradient id="o" x1="37.871" y1="30.092" x2="46.548" y2="32.011" gradientUnits="userSpaceOnUse"><stop stop-color="#FFD39E"/><stop offset=".703" stop-color="#FF4E16" stop-opacity=".35"/></linearGradient><linearGradient id="p" x1="37.871" y1="30.092" x2="46.548" y2="32.011" gradientUnits="userSpaceOnUse"><stop stop-color="#FFD39E"/><stop offset=".703" stop-color="#FF4E16" stop-opacity=".35"/></linearGradient><linearGradient id="q" x1="37.871" y1="30.092" x2="46.548" y2="32.011" gradientUnits="userSpaceOnUse"><stop stop-color="#FFD39E"/><stop offset=".703" stop-color="#FF4E16" stop-opacity=".35"/></linearGradient><linearGradient id="s" x1="30.371" y1="35.608" x2="39.048" y2="37.528" gradientUnits="userSpaceOnUse"><stop stop-color="#FFD39E"/><stop offset=".703" stop-color="#FF4E16" stop-opacity=".35"/></linearGradient><linearGradient id="t" x1="30.371" y1="35.608" x2="39.048" y2="37.528" gradientUnits="userSpaceOnUse"><stop stop-color="#FFD39E"/><stop offset=".703" stop-color="#FF4E16" stop-opacity=".35"/></linearGradient><linearGradient id="u" x1="30.371" y1="35.608" x2="39.048" y2="37.528" gradientUnits="userSpaceOnUse"><stop stop-color="#FFD39E"/><stop offset=".703" stop-color="#FF4E16" stop-opacity=".35"/></linearGradient><linearGradient id="w" x1="21.428" y1="7.085" x2="48.301" y2="18.269" gradientUnits="userSpaceOnUse"><stop stop-color="#FF4E16" stop-opacity=".4"/><stop offset=".776" stop-color="#612D1D" stop-opacity=".62"/></linearGradient><linearGradient id="x" x1="22.214" y1="7.782" x2="46.572" y2="7.782" gradientUnits="userSpaceOnUse"><stop stop-color="#E9D100"/><stop offset=".656" stop-color="#FF4E16"/></linearGradient><linearGradient id="z" x1="21.25" y1="14.741" x2="36.886" y2="17.084" gradientUnits="userSpaceOnUse"><stop stop-color="#FF4E16" stop-opacity=".4"/><stop offset=".776" stop-color="#612D1D" stop-opacity=".62"/></linearGradient><linearGradient id="A" x1="21.648" y1="15.723" x2="34" y2="15.723" gradientUnits="userSpaceOnUse"><stop stop-color="#E9D100"/><stop offset=".656" stop-color="#FF4E16"/></linearGradient><linearGradient id="C" x1="34" y1="14.741" x2="49.636" y2="17.084" gradientUnits="userSpaceOnUse"><stop stop-color="#FF4E16" stop-opacity=".4"/><stop offset=".776" stop-color="#612D1D" stop-opacity=".62"/></linearGradient><linearGradient id="D" x1="34.398" y1="15.723" x2="46.75" y2="15.723" gradientUnits="userSpaceOnUse"><stop stop-color="#E9D100"/><stop offset=".656" stop-color="#FF4E16"/></linearGradient><linearGradient id="F" x1="42.678" y1="20.095" x2="69.551" y2="31.279" gradientUnits="userSpaceOnUse"><stop stop-color="#FF4E16" stop-opacity=".4"/><stop offset=".776" stop-color="#612D1D" stop-opacity=".62"/></linearGradient><linearGradient id="G" x1="43.464" y1="20.792" x2="67.822" y2="20.792" gradientUnits="userSpaceOnUse"><stop stop-color="#E9D100"/><stop offset=".656" stop-color="#FF4E16"/></linearGradient><linearGradient id="I" x1="42.5" y1="27.752" x2="58.136" y2="30.095" gradientUnits="userSpaceOnUse"><stop stop-color="#FF4E16" stop-opacity=".4"/><stop offset=".776" stop-color="#612D1D" stop-opacity=".62"/></linearGradient><linearGradient id="J" x1="42.898" y1="28.735" x2="55.25" y2="28.735" gradientUnits="userSpaceOnUse"><stop stop-color="#E9D100"/><stop offset=".656" stop-color="#FF4E16"/></linearGradient><linearGradient id="L" x1="55.25" y1="27.752" x2="70.886" y2="30.095" gradientUnits="userSpaceOnUse"><stop stop-color="#FF4E16" stop-opacity=".4"/><stop offset=".776" stop-color="#612D1D" stop-opacity=".62"/></linearGradient><linearGradient id="M" x1="55.648" y1="28.735" x2="68" y2="28.735" gradientUnits="userSpaceOnUse"><stop stop-color="#E9D100"/><stop offset=".656" stop-color="#FF4E16"/></linearGradient><linearGradient id="O" x1=".178" y1="20.095" x2="27.051" y2="31.279" gradientUnits="userSpaceOnUse"><stop stop-color="#FF4E16" stop-opacity=".4"/><stop offset=".776" stop-color="#612D1D" stop-opacity=".62"/></linearGradient><linearGradient id="P" x1=".964" y1="20.792" x2="25.322" y2="20.792" gradientUnits="userSpaceOnUse"><stop stop-color="#E9D100"/><stop offset=".656" stop-color="#FF4E16"/></linearGradient><linearGradient id="R" x1="0" y1="27.752" x2="15.636" y2="30.095" gradientUnits="userSpaceOnUse"><stop stop-color="#FF4E16" stop-opacity=".4"/><stop offset=".776" stop-color="#612D1D" stop-opacity=".62"/></linearGradient><linearGradient id="S" x1=".398" y1="28.735" x2="12.75" y2="28.735" gradientUnits="userSpaceOnUse"><stop stop-color="#E9D100"/><stop offset=".656" stop-color="#FF4E16"/></linearGradient><linearGradient id="U" x1="12.75" y1="27.752" x2="28.386" y2="30.095" gradientUnits="userSpaceOnUse"><stop stop-color="#FF4E16" stop-opacity=".4"/><stop offset=".776" stop-color="#612D1D" stop-opacity=".62"/></linearGradient><linearGradient id="V" x1="13.148" y1="28.735" x2="25.5" y2="28.735" gradientUnits="userSpaceOnUse"><stop stop-color="#E9D100"/><stop offset=".656" stop-color="#FF4E16"/></linearGradient><linearGradient id="X" x1="21.428" y1="34.245" x2="48.301" y2="45.429" gradientUnits="userSpaceOnUse"><stop stop-color="#FF4E16" stop-opacity=".4"/><stop offset=".776" stop-color="#612D1D" stop-opacity=".62"/></linearGradient><linearGradient id="Y" x1="22.214" y1="34.942" x2="46.572" y2="34.942" gradientUnits="userSpaceOnUse"><stop stop-color="#E9D100"/><stop offset=".656" stop-color="#FF4E16"/></linearGradient><linearGradient id="aa" x1="21.25" y1="41.901" x2="36.886" y2="44.244" gradientUnits="userSpaceOnUse"><stop stop-color="#FF4E16" stop-opacity=".4"/><stop offset=".776" stop-color="#612D1D" stop-opacity=".62"/></linearGradient><linearGradient id="ab" x1="21.648" y1="42.883" x2="34" y2="42.883" gradientUnits="userSpaceOnUse"><stop stop-color="#E9D100"/><stop offset=".656" stop-color="#FF4E16"/></linearGradient><linearGradient id="ad" x1="34" y1="41.901" x2="49.636" y2="44.244" gradientUnits="userSpaceOnUse"><stop stop-color="#FF4E16" stop-opacity=".4"/><stop offset=".776" stop-color="#612D1D" stop-opacity=".62"/></linearGradient><linearGradient id="ae" x1="34.398" y1="42.883" x2="46.75" y2="42.883" gradientUnits="userSpaceOnUse"><stop stop-color="#E9D100"/><stop offset=".656" stop-color="#FF4E16"/></linearGradient><filter id="b" x=".048" y="20.507" width="25.405" height="28.441" filterUnits="userSpaceOnUse" color-interpolation-filters="sRGB"><feFlood flood-opacity="0" result="BackgroundImageFix"/><feGaussianBlur in="BackgroundImageFix" stdDeviation="1.21"/><feComposite in2="SourceAlpha" operator="in" result="effect1_backgroundBlur_206_6306"/><feBlend in="SourceGraphic" in2="effect1_backgroundBlur_206_6306" result="shape"/><feColorMatrix in="SourceAlpha" values="0 0 0 0 0 0 0 0 0 0 0 0 0 0 0 0 0 0 127 0" result="hardAlpha"/><feOffset dy=".403"/><feGaussianBlur stdDeviation=".806"/><feComposite in2="hardAlpha" operator="arithmetic" k2="-1" k3="1"/><feColorMatrix values="0 0 0 0 1 0 0 0 0 1 0 0 0 0 1 0 0 0 0.4 0"/><feBlend in2="shape" result="effect2_innerShadow_206_6306"/></filter><filter id="f" x=".049" y="20.507" width="25.405" height="28.441" filterUnits="userSpaceOnUse" color-interpolation-filters="sRGB"><feFlood flood-opacity="0" result="BackgroundImageFix"/><feGaussianBlur in="BackgroundImageFix" stdDeviation="1.21"/><feComposite in2="SourceAlpha" operator="in" result="effect1_backgroundBlur_206_6306"/><feBlend in="SourceGraphic" in2="effect1_backgroundBlur_206_6306" result="shape"/><feColorMatrix in="SourceAlpha" values="0 0 0 0 0 0 0 0 0 0 0 0 0 0 0 0 0 0 127 0" result="hardAlpha"/><feOffset dy=".403"/><feGaussianBlur stdDeviation=".806"/><feComposite in2="hardAlpha" operator="arithmetic" k2="-1" k3="1"/><feColorMatrix values="0 0 0 0 1 0 0 0 0 1 0 0 0 0 1 0 0 0 0.4 0"/><feBlend in2="shape" result="effect2_innerShadow_206_6306"/></filter><filter id="j" x="27.952" y="22.863" width="12.098" height="13.169" filterUnits="userSpaceOnUse" color-interpolation-filters="sRGB"><feFlood flood-opacity="0" result="BackgroundImageFix"/><feGaussianBlur in="BackgroundImageFix" stdDeviation="1.21"/><feComposite in2="SourceAlpha" operator="in" result="effect1_backgroundBlur_206_6306"/><feBlend in="SourceGraphic" in2="effect1_backgroundBlur_206_6306" result="shape"/><feColorMatrix in="SourceAlpha" values="0 0 0 0 0 0 0 0 0 0 0 0 0 0 0 0 0 0 127 0" result="hardAlpha"/><feOffset dy=".403"/><feGaussianBlur stdDeviation=".806"/><feComposite in2="hardAlpha" operator="arithmetic" k2="-1" k3="1"/><feColorMatrix values="0 0 0 0 1 0 0 0 0 1 0 0 0 0 1 0 0 0 0.4 0"/><feBlend in2="shape" result="effect2_innerShadow_206_6306"/></filter><filter id="n" x="35.452" y="27.672" width="12.098" height="13.169" filterUnits="userSpaceOnUse" color-interpolation-filters="sRGB"><feFlood flood-opacity="0" result="BackgroundImageFix"/><feGaussianBlur in="BackgroundImageFix" stdDeviation="1.21"/><feComposite in2="SourceAlpha" operator="in" result="effect1_backgroundBlur_206_6306"/><feBlend in="SourceGraphic" in2="effect1_backgroundBlur_206_6306" result="shape"/><feColorMatrix in="SourceAlpha" values="0 0 0 0 0 0 0 0 0 0 0 0 0 0 0 0 0 0 127 0" result="hardAlpha"/><feOffset dy=".403"/><feGaussianBlur stdDeviation=".806"/><feComposite in2="hardAlpha" operator="arithmetic" k2="-1" k3="1"/><feColorMatrix values="0 0 0 0 1 0 0 0 0 1 0 0 0 0 1 0 0 0 0.4 0"/><feBlend in2="shape" result="effect2_innerShadow_206_6306"/></filter><filter id="r" x="27.951" y="33.188" width="12.098" height="13.169" filterUnits="userSpaceOnUse" color-interpolation-filters="sRGB"><feFlood flood-opacity="0" result="BackgroundImageFix"/><feGaussianBlur in="BackgroundImageFix" stdDeviation="1.21"/><feComposite in2="SourceAlpha" operator="in" result="effect1_backgroundBlur_206_6306"/><feBlend in="SourceGraphic" in2="effect1_backgroundBlur_206_6306" result="shape"/><feColorMatrix in="SourceAlpha" values="0 0 0 0 0 0 0 0 0 0 0 0 0 0 0 0 0 0 127 0" result="hardAlpha"/><feOffset dy=".403"/><feGaussianBlur stdDeviation=".806"/><feComposite in2="hardAlpha" operator="arithmetic" k2="-1" k3="1"/><feColorMatrix values="0 0 0 0 1 0 0 0 0 1 0 0 0 0 1 0 0 0 0.4 0"/><feBlend in2="shape" result="effect2_innerShadow_206_6306"/></filter><filter id="v" x="15.428" y="1.085" width="37.143" height="27.339" filterUnits="userSpaceOnUse" color-interpolation-filters="sRGB"><feFlood flood-opacity="0" result="BackgroundImageFix"/><feGaussianBlur in="BackgroundImageFix" stdDeviation="3"/><feComposite in2="SourceAlpha" operator="in" result="effect1_backgroundBlur_206_6306"/><feBlend in="SourceGraphic" in2="effect1_backgroundBlur_206_6306" result="shape"/><feColorMatrix in="SourceAlpha" values="0 0 0 0 0 0 0 0 0 0 0 0 0 0 0 0 0 0 127 0" result="hardAlpha"/><feOffset dy="1"/><feGaussianBlur stdDeviation="1.5"/><feComposite in2="hardAlpha" operator="arithmetic" k2="-1" k3="1"/><feColorMatrix values="0 0 0 0 1 0 0 0 0 1 0 0 0 0 1 0 0 0 0.15 0"/><feBlend in2="shape" result="effect2_innerShadow_206_6306"/></filter><filter id="y" x="15.25" y="8.741" width="24.75" height="33.606" filterUnits="userSpaceOnUse" color-interpolation-filters="sRGB"><feFlood flood-opacity="0" result="BackgroundImageFix"/><feGaussianBlur in="BackgroundImageFix" stdDeviation="3"/><feComposite in2="SourceAlpha" operator="in" result="effect1_backgroundBlur_206_6306"/><feBlend in="SourceGraphic" in2="effect1_backgroundBlur_206_6306" result="shape"/><feColorMatrix in="SourceAlpha" values="0 0 0 0 0 0 0 0 0 0 0 0 0 0 0 0 0 0 127 0" result="hardAlpha"/><feOffset dy="1"/><feGaussianBlur stdDeviation="1.5"/><feComposite in2="hardAlpha" operator="arithmetic" k2="-1" k3="1"/><feColorMatrix values="0 0 0 0 1 0 0 0 0 1 0 0 0 0 1 0 0 0 0.15 0"/><feBlend in2="shape" result="effect2_innerShadow_206_6306"/></filter><filter id="B" x="28" y="8.741" width="24.75" height="33.606" filterUnits="userSpaceOnUse" color-interpolation-filters="sRGB"><feFlood flood-opacity="0" result="BackgroundImageFix"/><feGaussianBlur in="BackgroundImageFix" stdDeviation="3"/><feComposite in2="SourceAlpha" operator="in" result="effect1_backgroundBlur_206_6306"/><feBlend in="SourceGraphic" in2="effect1_backgroundBlur_206_6306" result="shape"/><feColorMatrix in="SourceAlpha" values="0 0 0 0 0 0 0 0 0 0 0 0 0 0 0 0 0 0 127 0" result="hardAlpha"/><feOffset dy="1"/><feGaussianBlur stdDeviation="1.5"/><feComposite in2="hardAlpha" operator="arithmetic" k2="-1" k3="1"/><feColorMatrix values="0 0 0 0 1 0 0 0 0 1 0 0 0 0 1 0 0 0 0.15 0"/><feBlend in2="shape" result="effect2_innerShadow_206_6306"/></filter><filter id="E" x="36.678" y="14.095" width="37.143" height="27.34" filterUnits="userSpaceOnUse" color-interpolation-filters="sRGB"><feFlood flood-opacity="0" result="BackgroundImageFix"/><feGaussianBlur in="BackgroundImageFix" stdDeviation="3"/><feComposite in2="SourceAlpha" operator="in" result="effect1_backgroundBlur_206_6306"/><feBlend in="SourceGraphic" in2="effect1_backgroundBlur_206_6306" result="shape"/><feColorMatrix in="SourceAlpha" values="0 0 0 0 0 0 0 0 0 0 0 0 0 0 0 0 0 0 127 0" result="hardAlpha"/><feOffset dy="1"/><feGaussianBlur stdDeviation="1.5"/><feComposite in2="hardAlpha" operator="arithmetic" k2="-1" k3="1"/><feColorMatrix values="0 0 0 0 1 0 0 0 0 1 0 0 0 0 1 0 0 0 0.15 0"/><feBlend in2="shape" result="effect2_innerShadow_206_6306"/></filter><filter id="H" x="36.5" y="21.752" width="24.75" height="33.607" filterUnits="userSpaceOnUse" color-interpolation-filters="sRGB"><feFlood flood-opacity="0" result="BackgroundImageFix"/><feGaussianBlur in="BackgroundImageFix" stdDeviation="3"/><feComposite in2="SourceAlpha" operator="in" result="effect1_backgroundBlur_206_6306"/><feBlend in="SourceGraphic" in2="effect1_backgroundBlur_206_6306" result="shape"/><feColorMatrix in="SourceAlpha" values="0 0 0 0 0 0 0 0 0 0 0 0 0 0 0 0 0 0 127 0" result="hardAlpha"/><feOffset dy="1"/><feGaussianBlur stdDeviation="1.5"/><feComposite in2="hardAlpha" operator="arithmetic" k2="-1" k3="1"/><feColorMatrix values="0 0 0 0 1 0 0 0 0 1 0 0 0 0 1 0 0 0 0.15 0"/><feBlend in2="shape" result="effect2_innerShadow_206_6306"/></filter><filter id="K" x="49.25" y="21.752" width="24.75" height="33.607" filterUnits="userSpaceOnUse" color-interpolation-filters="sRGB"><feFlood flood-opacity="0" result="BackgroundImageFix"/><feGaussianBlur in="BackgroundImageFix" stdDeviation="3"/><feComposite in2="SourceAlpha" operator="in" result="effect1_backgroundBlur_206_6306"/><feBlend in="SourceGraphic" in2="effect1_backgroundBlur_206_6306" result="shape"/><feColorMatrix in="SourceAlpha" values="0 0 0 0 0 0 0 0 0 0 0 0 0 0 0 0 0 0 127 0" result="hardAlpha"/><feOffset dy="1"/><feGaussianBlur stdDeviation="1.5"/><feComposite in2="hardAlpha" operator="arithmetic" k2="-1" k3="1"/><feColorMatrix values="0 0 0 0 1 0 0 0 0 1 0 0 0 0 1 0 0 0 0.15 0"/><feBlend in2="shape" result="effect2_innerShadow_206_6306"/></filter><filter id="N" x="-5.822" y="14.095" width="37.143" height="27.34" filterUnits="userSpaceOnUse" color-interpolation-filters="sRGB"><feFlood flood-opacity="0" result="BackgroundImageFix"/><feGaussianBlur in="BackgroundImageFix" stdDeviation="3"/><feComposite in2="SourceAlpha" operator="in" result="effect1_backgroundBlur_206_6306"/><feBlend in="SourceGraphic" in2="effect1_backgroundBlur_206_6306" result="shape"/><feColorMatrix in="SourceAlpha" values="0 0 0 0 0 0 0 0 0 0 0 0 0 0 0 0 0 0 127 0" result="hardAlpha"/><feOffset dy="1"/><feGaussianBlur stdDeviation="1.5"/><feComposite in2="hardAlpha" operator="arithmetic" k2="-1" k3="1"/><feColorMatrix values="0 0 0 0 1 0 0 0 0 1 0 0 0 0 1 0 0 0 0.15 0"/><feBlend in2="shape" result="effect2_innerShadow_206_6306"/></filter><filter id="Q" x="-6" y="21.752" width="24.75" height="33.607" filterUnits="userSpaceOnUse" color-interpolation-filters="sRGB"><feFlood flood-opacity="0" result="BackgroundImageFix"/><feGaussianBlur in="BackgroundImageFix" stdDeviation="3"/><feComposite in2="SourceAlpha" operator="in" result="effect1_backgroundBlur_206_6306"/><feBlend in="SourceGraphic" in2="effect1_backgroundBlur_206_6306" result="shape"/><feColorMatrix in="SourceAlpha" values="0 0 0 0 0 0 0 0 0 0 0 0 0 0 0 0 0 0 127 0" result="hardAlpha"/><feOffset dy="1"/><feGaussianBlur stdDeviation="1.5"/><feComposite in2="hardAlpha" operator="arithmetic" k2="-1" k3="1"/><feColorMatrix values="0 0 0 0 1 0 0 0 0 1 0 0 0 0 1 0 0 0 0.15 0"/><feBlend in2="shape" result="effect2_innerShadow_206_6306"/></filter><filter id="T" x="6.75" y="21.752" width="24.75" height="33.607" filterUnits="userSpaceOnUse" color-interpolation-filters="sRGB"><feFlood flood-opacity="0" result="BackgroundImageFix"/><feGaussianBlur in="BackgroundImageFix" stdDeviation="3"/><feComposite in2="SourceAlpha" operator="in" result="effect1_backgroundBlur_206_6306"/><feBlend in="SourceGraphic" in2="effect1_backgroundBlur_206_6306" result="shape"/><feColorMatrix in="SourceAlpha" values="0 0 0 0 0 0 0 0 0 0 0 0 0 0 0 0 0 0 127 0" result="hardAlpha"/><feOffset dy="1"/><feGaussianBlur stdDeviation="1.5"/><feComposite in2="hardAlpha" operator="arithmetic" k2="-1" k3="1"/><feColorMatrix values="0 0 0 0 1 0 0 0 0 1 0 0 0 0 1 0 0 0 0.15 0"/><feBlend in2="shape" result="effect2_innerShadow_206_6306"/></filter><filter id="W" x="15.428" y="28.245" width="37.143" height="27.339" filterUnits="userSpaceOnUse" color-interpolation-filters="sRGB"><feFlood flood-opacity="0" result="BackgroundImageFix"/><feGaussianBlur in="BackgroundImageFix" stdDeviation="3"/><feComposite in2="SourceAlpha" operator="in" result="effect1_backgroundBlur_206_6306"/><feBlend in="SourceGraphic" in2="effect1_backgroundBlur_206_6306" result="shape"/><feColorMatrix in="SourceAlpha" values="0 0 0 0 0 0 0 0 0 0 0 0 0 0 0 0 0 0 127 0" result="hardAlpha"/><feOffset dy="1"/><feGaussianBlur stdDeviation="1.5"/><feComposite in2="hardAlpha" operator="arithmetic" k2="-1" k3="1"/><feColorMatrix values="0 0 0 0 1 0 0 0 0 1 0 0 0 0 1 0 0 0 0.15 0"/><feBlend in2="shape" result="effect2_innerShadow_206_6306"/></filter><filter id="Z" x="15.25" y="35.901" width="24.75" height="33.606" filterUnits="userSpaceOnUse" color-interpolation-filters="sRGB"><feFlood flood-opacity="0" result="BackgroundImageFix"/><feGaussianBlur in="BackgroundImageFix" stdDeviation="3"/><feComposite in2="SourceAlpha" operator="in" result="effect1_backgroundBlur_206_6306"/><feBlend in="SourceGraphic" in2="effect1_backgroundBlur_206_6306" result="shape"/><feColorMatrix in="SourceAlpha" values="0 0 0 0 0 0 0 0 0 0 0 0 0 0 0 0 0 0 127 0" result="hardAlpha"/><feOffset dy="1"/><feGaussianBlur stdDeviation="1.5"/><feComposite in2="hardAlpha" operator="arithmetic" k2="-1" k3="1"/><feColorMatrix values="0 0 0 0 1 0 0 0 0 1 0 0 0 0 1 0 0 0 0.15 0"/><feBlend in2="shape" result="effect2_innerShadow_206_6306"/></filter><filter id="ac" x="28" y="35.901" width="24.75" height="33.606" filterUnits="userSpaceOnUse" color-interpolation-filters="sRGB"><feFlood flood-opacity="0" result="BackgroundImageFix"/><feGaussianBlur in="BackgroundImageFix" stdDeviation="3"/><feComposite in2="SourceAlpha" operator="in" result="effect1_backgroundBlur_206_6306"/><feBlend in="SourceGraphic" in2="effect1_backgroundBlur_206_6306" result="shape"/><feColorMatrix in="SourceAlpha" values="0 0 0 0 0 0 0 0 0 0 0 0 0 0 0 0 0 0 127 0" result="hardAlpha"/><feOffset dy="1"/><feGaussianBlur stdDeviation="1.5"/><feComposite in2="hardAlpha" operator="arithmetic" k2="-1" k3="1"/><feColorMatrix values="0 0 0 0 1 0 0 0 0 1 0 0 0 0 1 0 0 0 0.15 0"/><feBlend in2="shape" result="effect2_innerShadow_206_6306"/></filter><clipPath id="a"><path fill="#fff" d="M0 0h68v68H0z"/></clipPath></defs></svg>