<svg width="128" height="44" viewBox="0 0 128 44" fill="none" xmlns="http://www.w3.org/2000/svg">
<path d="M7.66532 26.1622H10.9335L9.62622 8.56216H9.21027L7.66532 26.1622ZM0 43.1676L4.81311 0.832432H14.2611L19.0742 43.1676H12.7161L11.5277 31.6919H7.07111L5.70443 43.1676H0Z" fill="white"/>
<path d="M26.2052 0.832432V37.6378H34.227V43.1676H19.9065V0.832432H26.2052Z" fill="white"/>
<path d="M41.4388 0.832432V37.6378H49.4606V43.1676H35.1402V0.832432H41.4388Z" fill="white"/>
<path d="M66.8334 16.0541H60.5348V7.67027C60.5348 6.63964 60.3763 5.94595 60.0594 5.58919C59.7821 5.23243 59.3067 5.05405 58.6333 5.05405C57.9202 5.05405 57.4053 5.23243 57.0884 5.58919C56.8111 5.94595 56.6724 6.63964 56.6724 7.67027V12.9027C56.6724 13.7351 57.5043 15.2216 59.1681 17.3622C60.8715 19.5027 62.5749 21.7423 64.2783 24.0811C65.9817 26.3802 66.8334 28.1441 66.8334 29.373V36.8649C66.8334 39.4018 66.0213 41.2252 64.3971 42.3351C62.8126 43.445 60.8715 44 58.5739 44C56.3159 44 54.3748 43.445 52.7506 42.3351C51.166 41.2252 50.3738 39.4018 50.3738 36.8649V27.1135H56.6724V36.3297C56.6724 37.3604 56.8111 38.0541 57.0884 38.4108C57.4053 38.7676 57.9202 38.9459 58.6333 38.9459C59.3067 38.9459 59.7821 38.7676 60.0594 38.4108C60.3763 38.0541 60.5348 37.3604 60.5348 36.3297V31.8703C60.5348 30.8 60.1782 29.6306 59.4652 28.3622C58.7918 27.0937 57.9401 25.8649 56.9101 24.6757C55.9197 23.4865 54.9294 22.2973 53.939 21.1081C52.9487 19.8793 52.097 18.5712 51.3839 17.1838C50.7105 15.7964 50.3738 14.4685 50.3738 13.2V7.13514C50.3738 4.5982 51.166 2.77477 52.7506 1.66486C54.3748 0.554955 56.3159 0 58.5739 0C60.8715 0 62.8126 0.554955 64.3971 1.66486C66.0213 2.77477 66.8334 4.5982 66.8334 7.13514V16.0541Z" fill="white"/>
<path d="M75.4499 0.832432V43.1676H69.1513V0.832432H75.4499Z" fill="white"/>
<path d="M77.7655 43.1676V0.832432H85.3714C88.5801 0.832432 90.858 1.52613 92.2048 2.91351C93.5517 4.26126 94.2252 6.75856 94.2252 10.4054V35.4973C94.2252 37.6378 93.5517 39.4613 92.2048 40.9676C90.8976 42.4342 89.0753 43.1676 86.7381 43.1676H77.7655ZM84.0641 5.88649V38.1135H85.5497C86.4212 38.1135 87.0352 37.9153 87.3917 37.5189C87.7482 37.1225 87.9265 36.2703 87.9265 34.9622V9.03784C87.9265 7.72973 87.7482 6.87748 87.3917 6.48108C87.0352 6.08468 86.4212 5.88649 85.5497 5.88649H84.0641Z" fill="white"/>
<path d="M96.3648 0.832432H110.388V6.36216H102.663V17.0649H110.091V22.5946H102.663V37.6378H110.507V43.1676H96.3648V0.832432Z" fill="white"/>
<path d="M128 16.0541H121.701V7.67027C121.701 6.63964 121.543 5.94595 121.226 5.58919C120.949 5.23243 120.473 5.05405 119.8 5.05405C119.087 5.05405 118.572 5.23243 118.255 5.58919C117.978 5.94595 117.839 6.63964 117.839 7.67027V12.9027C117.839 13.7351 118.671 15.2216 120.335 17.3622C122.038 19.5027 123.741 21.7423 125.445 24.0811C127.148 26.3802 128 28.1441 128 29.373V36.8649C128 39.4018 127.188 41.2252 125.564 42.3351C123.979 43.445 122.038 44 119.74 44C117.482 44 115.541 43.445 113.917 42.3351C112.333 41.2252 111.54 39.4018 111.54 36.8649V27.1135H117.839V36.3297C117.839 37.3604 117.978 38.0541 118.255 38.4108C118.572 38.7676 119.087 38.9459 119.8 38.9459C120.473 38.9459 120.949 38.7676 121.226 38.4108C121.543 38.0541 121.701 37.3604 121.701 36.3297V31.8703C121.701 30.8 121.345 29.6306 120.632 28.3622C119.958 27.0937 119.107 25.8649 118.077 24.6757C117.086 23.4865 116.096 22.2973 115.106 21.1081C114.115 19.8793 113.264 18.5712 112.551 17.1838C111.877 15.7964 111.54 14.4685 111.54 13.2V7.13514C111.54 4.5982 112.333 2.77477 113.917 1.66486C115.541 0.554955 117.482 0 119.74 0C122.038 0 123.979 0.554955 125.564 1.66486C127.188 2.77477 128 4.5982 128 7.13514V16.0541Z" fill="white"/>
</svg>
