<svg width="85" height="20" viewBox="0 0 85 20" fill="none" xmlns="http://www.w3.org/2000/svg">
<path d="M0 20V0H1.04485V20H0ZM3.13454 20V0H4.17939V20H3.13454ZM5.22424 20V0H7.31393V20H5.22424Z" fill="white"/>
<path d="M10.7995 20V0H12.8892V20H10.7995ZM14.9789 20V0H16.0237V20H14.9789ZM17.0686 20V0H18.1134V20H17.0686Z" fill="white"/>
<path d="M21.599 20V0H23.6887V20H21.599ZM25.7784 20V0H26.8232V20H25.7784ZM27.868 20V0H28.9129V20H27.868Z" fill="white"/>
<path d="M32.3984 20V0H33.4433V20H32.3984ZM34.4881 20V0H38.6675V20H34.4881ZM40.7572 20V0H41.8021V20H40.7572Z" fill="white"/>
<path d="M43.1979 20V0H44.2428V20H43.1979ZM48.4222 20V0H50.5119V20H48.4222ZM51.5567 20V0H52.6016V20H51.5567Z" fill="white"/>
<path d="M53.9974 20V0H55.0423V20H53.9974ZM59.2216 20V0H60.2665V20H59.2216ZM62.3562 20V0H64.4459V20H62.3562Z" fill="white"/>
<path d="M64.7969 20V0H65.8417V20H64.7969ZM66.8866 20V0H68.9763V20H66.8866ZM71.066 20V0H72.1108V20H71.066Z" fill="white"/>
<path d="M75.5964 20V0H76.6412V20H75.5964ZM77.6861 20V0H81.8654V20H77.6861ZM83.9551 20V0H85V20H83.9551Z" fill="white"/>
</svg>
