<svg width="125" height="60" viewBox="0 0 125 60" fill="none" xmlns="http://www.w3.org/2000/svg">
<path fill-rule="evenodd" clip-rule="evenodd" d="M62.738 59.6786C76.1651 59.1665 105.617 52.363 124.404 28.4272C123.978 28.4272 122.589 27.2815 120.37 25.4501C111.49 18.1229 89.3076 -0.180746 62.2021 0.00134884C35.0967 -0.180746 12.9144 18.1229 4.03449 25.4501C1.81508 27.2815 0.426643 28.4272 0 28.4272C18.7868 52.363 48.2391 59.1665 61.6662 59.6786V59.7068C61.8416 59.7044 62.0202 59.7007 62.2021 59.6959C62.384 59.7007 62.5627 59.7044 62.738 59.7068V59.6786Z" fill="white"/>
<circle cx="62.2018" cy="29.6711" r="22.8788" fill="black"/>
<circle cx="73.4623" cy="18.7678" r="11.2607" fill="white"/>
</svg>
