<svg width="195" height="131" viewBox="0 0 195 131" fill="none" xmlns="http://www.w3.org/2000/svg">
<path d="M285 1C269.4 8.79789 253.079 14.7436 236.704 20.7038C212.539 29.4993 188.338 38.0948 164.601 48.016C144.902 56.2495 123.501 64.6844 106.158 77.4742C97.9326 83.5401 90.7226 91.4964 92.0107 102.299C92.9558 110.226 97.8697 117.354 103.621 122.637C111.399 129.781 121.866 133.601 130.062 125.271C139.983 115.187 132.999 101.565 127.038 91.3254C113.519 68.1067 95.9575 44.9426 72.3995 31.141C57.5617 22.4481 43.2487 26.4282 28.2988 32.7992C19.1192 36.7112 9.70885 40.9408 0.999756 46.1139" stroke="black" stroke-linecap="round"/>
</svg>
