<svg width="399" height="274" viewBox="0 0 399 274" fill="none" xmlns="http://www.w3.org/2000/svg">
<path d="M77.0717 49.9345C61.4392 59.4264 47.3534 72.9335 35.3602 86.6468C17.9016 106.609 16.825 130.27 21.2697 155.631C25.5268 179.922 34.6849 205.528 52.2302 223.492C76.89 248.739 117.159 263.077 151.966 264.494C190.2 266.052 229.778 250.569 265.134 238.225C310.808 222.277 357.304 206.136 384.47 163.453C397.624 142.785 402.77 123.937 392.663 101.181C377.078 66.089 348.684 40.3627 313.688 24.9943C269.23 5.47048 219.797 -3.30083 171.52 3.38602C137.638 8.07903 100.611 21.0552 70.2855 36.9842C49.9941 47.6427 28.8035 63.5041 16.3202 83.063C-2.83732 113.079 -3.17468 154.138 9.30509 186.716C34.8629 253.431 116.875 275.275 181.465 272.321C218.515 270.626 255.351 262.71 287.627 243.771C322.654 223.217 349.757 194.622 375.761 164.161" stroke="white" stroke-width="1.5" stroke-linecap="round"/>
</svg>
