<svg width="658" height="679" viewBox="0 0 658 679" fill="none" xmlns="http://www.w3.org/2000/svg">
<path d="M94.1034 173.215C-50.1563 283.717 54.1982 500.324 171.876 589.708C285.644 676.123 510.925 691.699 585.575 545.428C608.962 499.604 640.961 319.946 627.81 273.389C600.746 177.572 578.632 144.952 521.302 63.2868C482.307 7.73866 358.002 28.5146 290.583 18.1437C205.94 5.12325 128.911 45.0623 77.7848 112.275C23.4867 183.658 -4.44506 276.985 2.56718 366.386C8.62418 443.608 56.29 515.102 115.692 562.563C178.532 612.772 257.485 640.432 337.365 645.499C408.611 650.019 500.07 637.469 560.02 595.222C607.361 561.86 632.473 499.929 644.136 445.482C662.902 357.876 662.444 247.615 627.81 163.414C567.885 17.7235 395.749 -26.2164 255.279 17.5179C133.326 55.4875 49.8166 181.837 41.9019 307.224C29.2679 507.373 226.173 628.031 392.622 677.817" stroke="white" stroke-width="2" stroke-linecap="round"/>
</svg>
