<svg width="390" height="252" viewBox="0 0 390 252" fill="none" xmlns="http://www.w3.org/2000/svg">
<path d="M51.3571 171.2C70.4215 217.136 123.503 244.735 171.879 245.799C220.89 246.878 275.215 227.549 318.045 205.378C352.005 187.798 378.661 161.644 386.967 123.355C390.546 106.856 386.652 91.8427 380.186 76.7775C368.672 49.9511 348.195 35.8935 322.825 22.4517C304.057 12.5072 290.417 5.70991 269.158 2.7473C244.485 -0.691147 221.106 2.70084 196.658 6.62719C143.259 15.2028 86.6712 28.3424 40.8067 58.4232C20.9095 71.473 5.98998 87.874 2.13968 112.226C-3.30018 146.632 7.93595 181.671 34.4946 204.442C64.4531 230.129 105.316 248.071 144.871 250.198C174.3 251.781 202.801 241.54 230.922 234.781" stroke="white" stroke-width="1.5" stroke-linecap="round"/>
</svg>
