<svg width="661" height="681" viewBox="0 0 661 681" fill="none" xmlns="http://www.w3.org/2000/svg">
<path d="M545.252 538.792C701.942 446.761 624.858 219.019 518.994 115.915C416.646 16.2363 194.96 -26.7706 102.984 109.274C74.1697 151.895 20.4415 326.292 27.8 374.107C42.9444 472.514 60.9038 507.593 107.817 595.656C139.727 655.556 265.639 650.137 331.284 668.674C413.7 691.947 495.034 661.727 553.996 601.27C616.616 537.063 655.75 447.852 659.723 358.265C663.154 280.882 624.589 204.095 571.436 149.726C515.208 92.2107 440.229 55.1032 361.569 40.306C291.41 27.1082 199.103 28.3796 134.437 62.9787C83.3708 90.3017 50.875 148.697 32.6414 201.309C3.30263 285.963 -9.72585 395.452 14.3518 483.257C56.0123 635.181 221.483 699.841 366.246 673.612C491.928 650.84 590.261 535.651 613.449 412.173C650.463 215.071 469.79 71.2404 310.678 1.47381" stroke="white" stroke-width="2" stroke-linecap="round"/>
</svg>
