<svg width="458" height="352" viewBox="0 0 458 352" fill="none" xmlns="http://www.w3.org/2000/svg">
<mask id="mask0_1_398" style="mask-type:alpha" maskUnits="userSpaceOnUse" x="0" y="0" width="458" height="352">
<path d="M191.24 104.956C210.686 110.683 255.307 85.2397 256.088 100.488C256.869 115.736 224.699 107.47 216.164 116.613C210.725 122.439 198.092 148.057 211.398 151.743C224.633 155.409 239.764 146.844 248.119 137.19C262.655 120.394 225.834 118.498 217.336 120.212C199.036 123.904 178.722 142.96 178.193 162.853C177.978 170.912 184.825 173.643 192.178 172.085C208.459 168.634 227.072 154.926 234.524 139.85C245.704 117.232 205.551 110.539 192.178 110.276C160.827 109.659 119.29 132.291 115.689 166.686C113.212 190.342 133.032 204.007 155.301 199.547C203.13 189.968 259.656 138.672 241.087 85.2397C234.205 65.436 215.717 57.5214 196.631 54.6483C165.756 50.0005 133.797 55.2876 104.673 65.9929C89.284 71.6494 53.9158 84.8683 50.7633 105.66C48.5155 120.485 60.3714 133.59 69.9832 142.276C90.9483 161.222 109.59 170.654 138.581 173.493C182.097 177.754 226.127 159.941 256.088 128.271C265.671 118.141 281.37 93.5853 275.933 76.7899C269.927 58.2365 242.905 50.1434 227.493 48.9369C180.005 45.2195 130.342 64.8871 90.7657 89.1516C60.0051 108.011 24.1363 138.303 19.9803 177.092C13.8139 234.644 86.2748 249.762 128.424 234.911C169.625 220.394 208.076 189.551 239.056 159.567C255.354 143.792 272.65 123.206 282.339 102.139C286.266 93.6021 293.226 68.0312 290.465 57.2302C283.278 29.112 237.093 24.1155 216.32 21.475C167.346 15.25 117.24 18.0142 69.6707 31.7243C50.3881 37.2819 19.3667 47.8349 11.0735 69.3572C1.96861 92.986 21.9216 120.436 37.5594 135.938C83.2305 181.214 158.784 190.952 217.023 167.078C260.995 149.052 301.497 117.356 335.311 84.4573C341.925 78.0231 380.371 31.7243 364.376 10.2869C348.381 -11.1506 308.309 14.5909 287.34 24.8393C255.5 40.401 226.189 64.1595 202.179 90.0905C184.213 109.493 169.208 131.599 164.442 158.002C159.61 184.768 166.14 215.483 189.053 232.485C241.442 271.362 316.987 245.295 360 205.493C380.448 186.572 401.791 160.459 407.191 132.027C412.131 106.013 379.715 101.02 361.25 99.7921C325.724 97.4302 294.7 121.848 282.965 154.716C278.956 165.943 276.39 180.866 283.043 191.723C294.131 209.817 322.118 217.926 341.952 215.273C368.296 211.749 394.641 196.225 416.097 181.473C431.247 171.058 450.407 156.439 455.084 137.269C459.353 119.773 448.157 106.021 432.817 98.6968C402.812 84.3713 362.1 86.3338 331.405 97.132C310.57 104.461 292.066 118.134 278.511 135.469C265.654 151.912 252.715 176.968 255.307 198.764C256.805 211.364 268.264 211.153 278.277 207.605C305.841 197.838 331.619 173.62 343.124 146.735C362.636 101.145 326.807 69.5307 285.621 58.3255C249.336 48.4536 193.418 48.916 183.974 94.7066C181.14 108.451 180.77 126.159 186.396 139.381C191.645 151.717 202.406 154.174 214.523 154.09C221.115 154.044 232.066 153.74 235.774 146.579C242.273 134.028 232.993 121.664 222.492 115.44C194.278 98.7164 144.981 93.3188 116.392 112.154C92.7797 127.71 122.606 156.086 140.065 159.723C152.06 162.221 162.779 156.479 171.239 148.3C177.659 142.094 190.62 127.656 189.443 117.318C188.532 109.308 171.108 110.346 166.708 110.433C149.586 110.77 133.626 116.177 120.611 127.489C116.297 131.238 107.343 139.625 107.72 146.422C108.271 156.363 131.634 145.178 132.018 145.014C160.753 132.733 187.424 115.249 214.132 99.2445C244.613 80.9795 275.74 59.9811 311.091 52.5359C323.519 49.9183 341.498 47.5595 352.812 55.9784C360.113 61.4105 360.955 73.4194 361.797 81.406C363.061 93.3862 363.205 105.487 352.031 113.406C319.696 136.321 266.318 132.997 229.524 132.965C191.509 132.932 151.153 132.964 113.658 125.454C102.775 123.275 85.3495 117.904 79.6713 106.364C73.0659 92.9403 90.447 79.4932 98.8131 73.5039C130.662 50.7031 170.609 45.0395 208.898 46.9027C231.651 48.0098 260.741 51.4285 276.089 71.3132C294.163 94.7287 284.486 132.689 264.995 152.056C246.516 170.416 216.785 169.562 193.115 169.268C163.821 168.905 125.924 168.402 100.766 150.491C67.0732 126.504 130.812 98.8012 148.503 96.1149C168.382 93.0967 190.902 96.2473 207.023 109.337C221.86 121.385 228.785 145.754 208.585 156.75C186.612 168.712 152.942 167.435 129.362 168.486C97.3457 169.912 63.8561 171.537 32.0122 166.452C23.5283 165.097 5.92082 161.997 2.47925 151.508C-1.36719 139.785 18.9945 134.585 25.9181 132.965C58.0617 125.448 89.5677 135.502 116.861 152.682C121.602 155.666 119.191 153.093 118.424 148.613C116.804 139.15 117.446 127.879 107.642 122.481C82.455 108.615 52.8178 126.229 40.919 149.083C34.4748 161.46 29.6232 177.688 31.6216 191.801C34.5244 212.302 60.6554 204.326 73.4991 200.564C95.8593 194.014 115.755 183.345 133.737 168.486C148.525 156.267 168.107 139.374 175.068 120.682C181.348 103.816 167.371 97.3958 167.958 120.134C168.505 141.321 174.73 165.364 198.272 173.806C224.734 183.295 256.28 168.712 278.433 157.376C284.871 154.081 291.26 150.069 295.934 144.545C303.757 135.298 273.211 153.508 263.276 160.427C256.257 165.316 210.013 197.04 234.055 213.238C254.255 226.847 285.075 207.394 298.669 193.913C304.45 188.18 315.207 175.899 310.779 165.435C307.494 157.671 294.029 157.091 288.355 156.437C275.986 155.01 226.519 152.849 240.853 179.674C248.991 194.904 268.171 197.099 283.59 195.087C312.549 191.309 347.713 175.034 363.282 148.926C387.649 108.065 309.688 101.175 299.294 136.095C290.871 164.39 324.975 188.459 339.999 205.728C355.938 224.047 369.055 237.203 370.626 262.998C373.238 305.895 357.222 306.204 351.562 350" stroke="#0088CC" stroke-width="3" stroke-linecap="round"/>
</mask>
<g mask="url(#mask0_1_398)">
<rect x="-22" y="-16" width="503" height="401" fill="#D9D9D9"/>
</g>
</svg>
