<svg width="38" height="32" viewBox="0 0 38 32" fill="none" xmlns="http://www.w3.org/2000/svg">
<path fill-rule="evenodd" clip-rule="evenodd" d="M21.8932 0.751413L1.10318 21.543C0.954029 21.6921 0.810257 21.8446 0.67186 22.0002H4.40769L23.7748 2.63385C24.2932 2.11464 24.2932 1.27142 23.7748 0.751413C23.2532 0.232202 22.4124 0.233002 21.8932 0.751413ZM26.8654 22.0002L33.7638 15.1021C35.8631 13.0029 35.8631 9.58439 33.7638 7.48595C31.6662 5.3867 28.2469 5.3875 26.1477 7.48675L9.25054 24.3839C8.20251 25.4335 8.20092 27.1383 9.25214 28.1888C10.2978 29.2368 12.0026 29.236 13.0522 28.1864L27.8421 13.3997C28.3621 12.8813 29.2029 12.8805 29.7237 13.4005C30.243 13.9197 30.243 14.7621 29.7237 15.2821L14.9355 30.0704C12.8498 32.1568 9.45294 32.1592 7.3673 30.0736C5.28086 27.9848 5.28086 24.5887 7.3673 22.5006L24.2636 5.60271C27.4021 2.46425 32.5094 2.46505 35.6471 5.60271C38.7839 8.74117 38.7839 13.8477 35.6455 16.9853L30.631 22.0002H26.8654Z" fill="#BC1010"/>
</svg>
