<svg width="112" height="112" viewBox="0 0 112 112" fill="none" xmlns="http://www.w3.org/2000/svg">
<path d="M69.1026 16.9057C69.7366 16.4831 70.1592 16.0604 70.7932 15.4265L74.5969 11.834C72.695 10.1435 69.7366 10.5661 68.046 12.2567C66.3554 13.7359 65.5101 16.6944 66.9894 18.8076L69.1026 16.9057Z" fill="#BC1010"/>
<path d="M24.3018 61.7057C24.9358 61.283 25.3584 60.8604 25.9924 60.2264L29.7962 56.634C27.8943 54.9434 24.9358 55.366 23.2452 57.0566C21.5546 58.5358 20.7094 61.4943 22.1886 63.6075L24.3018 61.7057Z" fill="#BC1010"/>
<path d="M69.948 102.702C73.1178 106.083 77.7668 107.985 82.2046 107.985C86.8536 107.985 91.2914 106.083 94.4612 102.702C97.631 99.5321 99.3216 94.8831 99.1102 90.4453C98.8989 86.0076 96.997 81.7812 93.6159 78.8227C90.4461 76.0755 86.0083 74.5963 81.9933 75.0189C86.0083 75.4416 89.6008 77.3434 92.1367 80.3019C94.6725 83.0491 95.9404 86.8529 95.7291 90.4453C95.5178 94.0378 94.0385 97.4189 91.5027 99.9548C88.9668 102.491 85.5857 103.759 81.9933 103.759C78.4008 103.759 75.0197 102.491 72.4838 99.9548C69.948 97.6302 68.4687 94.0378 68.2574 90.4453C68.0461 86.8529 69.314 83.0491 71.8499 80.3019C74.3857 77.3434 77.9782 75.4416 81.9933 75.0189C77.9782 74.5963 73.5404 75.8642 70.3706 78.8227C68.2574 80.7246 66.7782 83.0491 65.7216 85.7963C60.4385 80.7246 50.9291 75.6529 43.7442 74.1736C45.6461 71.2151 46.4914 67.834 46.4914 64.4529C46.28 60.0151 44.3782 55.7887 40.997 52.8302L40.7857 52.6189C42.8989 51.351 45.0121 50.0831 46.914 48.6038C51.1404 45.2227 54.9442 41.6302 58.5367 36.9812C59.8046 35.2906 61.0725 33.6 62.1291 31.9095C65.2989 35.2906 69.948 37.1925 74.3857 37.1925C79.0348 37.1925 83.4725 35.2906 86.6423 31.9095C89.8121 28.7397 91.5027 24.0906 91.2914 19.6529C91.08 15.2151 89.1782 10.9887 85.797 8.03024C82.6272 5.28307 78.1895 3.80382 74.1744 4.22646C78.1895 4.6491 81.7819 6.55099 84.3178 9.50948C86.8536 12.2567 88.1216 16.0604 87.9102 19.6529C87.6989 23.2453 86.2197 26.6265 83.6838 29.1623C81.148 31.6982 77.7668 32.9661 74.1744 32.9661C70.5819 32.9661 67.2008 31.6982 64.665 29.1623C62.1291 26.8378 60.6499 23.2453 60.4385 19.6529C60.2272 16.0604 61.4951 12.2567 64.031 9.50948C66.5668 6.55099 70.1593 4.6491 74.1744 4.22646C70.1593 3.80382 65.7216 5.07175 62.5517 8.03024C59.3819 10.7774 57.2687 15.2151 57.0574 19.6529C56.8461 23.8793 58.3253 27.8944 61.0725 31.0642C59.1706 32.1208 57.48 33.3887 55.7895 34.6567C51.3517 38.2491 47.548 42.0529 44.1668 46.2793C42.6876 48.1812 41.2083 50.2944 40.1517 52.4076C36.9819 49.8717 32.9668 48.6038 29.1631 49.2378C33.1782 49.6604 36.7706 51.5623 39.3065 54.5208C41.8423 57.268 43.1102 61.0717 42.8989 64.6642C42.6876 68.2567 41.2083 71.6378 38.6725 74.1736C36.1366 76.7095 32.7555 77.9774 29.1631 77.9774C25.5706 77.9774 22.1895 76.7095 19.6536 74.1736C17.1178 71.8491 15.6385 68.2567 15.4272 64.6642C15.2159 61.0717 16.4838 57.268 19.0197 54.5208C21.5555 51.5623 25.148 49.6604 29.1631 49.2378C25.148 48.8151 20.7102 50.0831 17.5404 53.0416C14.7933 55.7887 12.68 60.0151 12.68 64.4529C12.4687 68.8906 14.3706 73.5397 17.3291 76.7095C20.4989 80.0906 25.148 81.9925 29.5857 81.9925C34.2348 81.9925 38.6725 80.0906 41.8423 76.7095C42.4763 76.0755 42.8989 75.4416 43.3216 74.8076C48.6046 80.0906 58.3253 85.1623 65.7216 86.4302C65.2989 87.6982 65.0876 88.9661 65.0876 90.234C65.0876 94.8831 66.7782 99.3208 69.948 102.702Z" fill="#BC1010"/>
<path d="M76.921 87.4868C77.5549 87.0641 77.9776 86.6415 78.6115 86.0075L82.4153 82.4151C80.5134 80.7245 77.5549 81.1472 75.8644 82.8377C74.1738 84.317 73.3285 87.2755 74.8077 89.3887L76.921 87.4868Z" fill="#BC1010"/>
</svg>
