<svg width="105" height="105" viewBox="0 0 105 105" fill="none" xmlns="http://www.w3.org/2000/svg">
<path d="M102.135 46.0075C100.459 44.332 97.9463 43.4943 95.6425 43.7037C93.3387 43.9132 91.2444 44.9604 89.7784 46.6358C88.5218 48.3113 87.8934 50.6151 88.3123 52.2905C87.0557 51.4528 85.5897 51.0339 84.3331 50.6151C80.9821 49.7773 77.0029 49.9868 73.8614 51.4528C73.8614 46.4264 71.9765 41.4 68.6255 37.6302C69.0444 37.4207 69.4633 37.4207 69.6727 37.2113C71.3482 36.3736 73.0236 34.9075 73.8614 33.0226C74.2803 32.1849 74.6991 31.1377 74.9086 29.6717C73.2331 26.7396 74.0708 23.3886 76.1652 21.9226C78.0501 20.4566 80.9821 20.666 82.4482 22.3415C84.1236 23.8075 84.3331 26.7396 82.867 28.6245C81.401 30.5094 78.0501 31.5566 75.118 29.8811C75.9557 31.3471 77.6312 32.3943 79.5161 32.8132C81.401 33.0226 83.4953 32.3943 85.1708 31.1377C86.8463 29.8811 87.684 27.5773 87.8935 25.483C87.8935 23.3887 87.0557 21.0849 85.5897 19.6188C84.1236 18.1528 81.8199 17.1056 79.7255 17.3151C77.6312 17.3151 75.5368 18.3622 74.0708 20.0377C72.6048 21.5037 72.1859 23.8075 72.3953 25.6924C72.6048 27.5773 73.6519 29.2528 75.3274 30.0905C74.0708 30.0905 73.0236 30.5094 71.9765 31.1377C70.0916 32.1849 68.6255 33.6509 67.7878 35.3264C67.5784 35.7453 67.5784 35.9547 67.3689 36.3736C63.5991 33.0226 58.7821 30.9283 53.7557 30.7188C54.8029 27.7868 55.2218 24.2264 54.384 20.666C53.9652 19.4094 53.5463 17.9434 52.7085 16.6868C48.9387 15.849 46.8444 12.4981 47.2633 9.56601C47.4727 6.63393 50.1953 4.53959 52.7085 4.53959C55.4312 4.53959 57.9444 6.63393 58.1538 9.56601C58.5727 12.4981 56.4784 15.849 52.7085 16.6868C54.5935 17.1056 56.6878 16.6868 58.5727 15.4302C60.0387 13.7547 61.0859 11.6603 61.2953 9.35657C61.5048 7.0528 60.667 4.74903 58.9916 2.86412C57.3161 1.18865 55.0123 0.141479 52.4991 0.141479C49.9859 0.141479 47.6821 1.18865 46.0067 2.86412C44.3312 4.53959 43.4935 7.0528 43.7029 9.35657C43.9123 11.6603 44.9595 13.7547 46.635 15.0113C48.3104 16.2679 50.6142 16.8962 52.2897 16.4773C51.4519 17.7339 51.0331 19.2 50.6142 20.4566C49.7765 23.8075 50.1953 27.5773 51.2425 30.5094C46.2161 30.7188 41.3991 32.8132 37.6293 36.1641C37.4199 35.7453 37.4199 35.5358 37.2104 35.117C36.3727 33.4415 34.9067 31.766 33.0218 30.9283C32.184 30.5094 31.1369 30.0905 29.6708 29.8811C26.7387 31.5566 23.3878 30.7188 21.9218 28.6245C20.4557 26.7396 20.6652 23.8075 22.3406 22.3415C23.8067 20.666 26.7387 20.4566 28.6236 21.9226C30.5086 23.3886 31.5557 26.7396 29.8802 29.6717C31.3463 28.8339 32.3935 27.1585 32.8123 25.2736C33.0218 23.3886 32.3935 21.2943 31.1369 19.6188C29.8802 17.9434 27.5765 17.1056 25.4821 16.8962C23.3878 16.8962 21.084 17.7339 19.618 19.2C18.1519 20.666 17.1048 22.9698 17.3142 25.0641C17.3142 27.1585 18.3614 29.2528 20.0369 30.7188C21.5029 32.1849 23.8067 32.6037 25.6916 32.3943C27.5765 32.1849 29.2519 31.1377 30.0897 29.4622C30.0897 30.7188 30.5085 31.766 31.1369 32.8132C32.184 34.6981 33.6501 36.1641 35.3255 37.0019C35.7444 37.2113 35.9538 37.4207 36.3727 37.4207C33.0218 41.1905 31.1369 46.2169 31.1369 51.2434C27.9953 49.7773 24.0161 49.7773 20.6652 50.4056C19.4086 50.8245 17.9425 51.2434 16.6859 52.0811C15.8482 55.8509 12.4972 57.9453 9.56515 57.5264C6.63308 57.317 4.53874 54.5943 4.53874 52.0811C4.53874 49.3585 6.63308 46.8453 9.56515 46.6358C12.4972 46.217 15.8482 48.3113 16.6859 52.0811C17.1048 50.1962 16.6859 48.1019 15.4293 46.2169C13.7538 44.9603 11.6595 43.9132 9.35572 43.7037C7.05195 43.4943 4.74817 44.332 2.86327 46.0075C1.18779 47.683 0.140625 49.9868 0.140625 52.5C0.140625 55.0132 1.18779 57.317 2.86327 58.9924C4.53874 60.6679 7.05195 61.5056 9.35572 61.2962C11.6595 61.0868 13.7538 60.0396 15.0104 58.3641C16.267 56.6886 16.8953 54.3849 16.4765 52.7094C17.7331 53.5471 19.1991 53.966 20.4557 54.3849C23.8067 55.2226 27.7859 55.0132 30.9274 53.5471C31.3463 58.783 33.6501 63.6 37.2104 67.1603C36.3727 67.3698 35.7444 67.5792 35.1161 67.7887C33.4406 68.6264 31.7652 70.0924 30.9274 71.9773C30.5086 72.8151 30.0897 73.8622 29.8802 75.3283C31.5557 78.2604 30.718 81.6113 28.6236 83.0773C26.7387 84.5434 23.8067 84.3339 22.3406 82.6585C20.6652 81.1924 20.4557 78.2604 21.9218 76.3754C23.3878 74.4905 26.7387 73.4434 29.6708 75.1188C28.8331 73.6528 27.1576 72.6056 25.2727 72.1868C23.3878 71.9773 21.2935 72.6056 19.618 73.8622C17.9425 75.1188 17.1048 77.4226 16.8953 79.517C16.8953 81.6113 17.7331 83.9151 19.1991 85.3811C20.6652 86.8471 22.9689 87.8943 25.0633 87.6849C27.1576 87.6849 29.2519 86.6377 30.718 84.9622C32.184 83.4962 32.6029 81.1924 32.3935 79.3075C32.184 77.4226 31.1369 75.7471 29.4614 74.9094C30.718 74.9094 31.7652 74.4905 32.8123 73.8622C34.6972 72.8151 36.1633 71.349 37.001 69.6736C37.4199 69.0453 37.6293 68.2075 37.8387 67.5792C41.818 70.9302 47.0538 72.8151 52.0802 72.3962C46.8444 71.9773 42.0274 69.4641 38.6765 65.9037C38.2576 65.2754 37.6293 64.8566 37.2104 64.2283C39.7236 61.2962 42.8652 58.9924 46.2161 58.1547C46.4255 58.1547 46.635 57.9453 46.8444 57.7358C47.2633 57.317 47.2633 56.4792 46.8444 56.0603L46.635 55.8509C44.3312 53.5471 43.7029 49.7773 44.7501 47.0547C46.0067 44.1226 48.7293 42.2377 51.8708 42.2377C54.8029 42.2377 57.735 44.1226 58.9916 47.0547C60.2482 49.9868 59.6199 53.5471 57.3161 55.8509H57.735C57.5255 56.0603 57.5255 56.2698 57.3161 56.4792C57.1067 57.1075 57.5255 57.9453 58.1538 57.9453C61.5048 58.9924 64.8557 61.0868 67.1595 64.0188C66.7406 64.6471 66.3218 65.2754 65.6935 65.6943C62.3425 69.4641 57.5255 71.7679 52.2897 72.1868C51.4519 73.4434 51.0331 74.9094 50.6142 76.166C49.9859 78.6792 49.9859 81.4019 50.6142 84.1245C51.0331 85.3811 51.4519 86.8471 52.2897 88.1037C56.0595 88.9415 58.1538 92.2924 57.735 95.2245C57.5255 98.1566 54.8029 100.251 52.2897 100.251C49.567 100.251 47.0538 98.1566 46.8444 95.2245C46.4255 92.2924 48.5199 88.9415 52.2897 88.1037C50.4048 87.6849 48.3104 88.1037 46.4255 89.3603C44.7501 90.617 43.4935 92.9207 43.4935 95.2245C43.284 97.5283 44.1218 99.832 45.7972 101.717C47.4727 103.392 49.7765 104.44 52.2897 104.44C54.8029 104.44 57.1067 103.392 58.7821 101.717C60.4576 100.041 61.2953 97.5283 61.0859 95.2245C60.8765 92.9207 59.8293 90.8264 58.1538 89.3603C56.4784 88.1037 54.1746 87.4754 52.4991 87.8943C53.3368 86.6377 53.7557 85.1717 54.1746 83.9151C54.8029 81.1924 54.8029 78.4698 54.1746 75.9566C53.7557 74.7 53.3368 73.2339 52.4991 71.9773C57.5255 72.3962 62.7614 70.7207 66.9501 67.1603C67.1595 67.9981 67.3689 68.6264 67.7878 69.2547C68.6255 70.9302 70.0916 72.6056 71.9765 73.4434C72.8142 73.8622 73.8614 74.2811 75.3274 74.4905C78.2595 72.8151 81.6104 73.6528 83.0765 75.7471C84.5425 77.632 84.3331 80.5641 82.6576 82.0302C81.1916 83.7056 78.2595 83.9151 76.3746 82.449C74.4897 80.983 73.4425 77.632 75.118 74.7C73.6519 75.5377 72.6048 77.2132 72.1859 79.0981C71.9765 80.983 72.6048 83.0773 73.8614 84.7528C75.118 86.4283 77.4218 87.266 79.5161 87.4754C81.6104 87.4754 83.9142 86.6377 85.3802 85.1717C86.8463 83.7056 87.8935 81.4019 87.684 79.3075C87.684 77.2132 86.6368 75.1188 84.9614 73.6528C83.4953 72.1868 81.1916 71.7679 79.3067 71.9773C77.4218 72.1868 75.7463 73.2339 74.9086 74.9094C74.9086 73.6528 74.4897 72.6056 73.8614 71.5585C72.8142 69.6736 71.3482 68.2075 69.6727 67.3698C69.0444 67.1603 68.4161 66.7415 67.5784 66.7415C71.1387 63.1811 73.4425 58.3641 73.8614 53.1283C77.0029 54.5943 80.9821 54.8037 84.3331 53.966C85.5897 53.5471 87.0557 53.1283 88.3123 52.2905C89.1501 48.5207 92.501 46.4264 95.4331 46.8453C98.3652 47.0547 100.459 49.7773 100.459 52.2905C100.459 55.0132 98.3652 57.5264 95.4331 57.7358C92.501 58.1547 89.1501 56.0603 88.3123 52.2905C87.8934 54.1754 88.3123 56.2698 89.5689 58.1547C90.8255 59.8302 93.1293 61.0868 95.4331 61.0868C97.7369 61.2962 100.041 60.4585 101.926 58.783C103.601 57.1075 104.648 54.8037 104.648 52.2905C104.858 50.1962 103.81 47.683 102.135 46.0075ZM67.5784 63.8094C66.3218 60.8773 64.018 58.1547 61.0859 56.4792C63.5991 53.7566 64.6463 49.3585 63.3897 45.5886C61.9236 41.1905 57.3161 38.049 52.7085 38.049C48.101 38.049 43.4935 41.1905 42.0274 45.5886C40.7708 49.3585 41.6086 53.7566 44.3312 56.4792C41.3991 58.1547 39.0953 60.8773 37.8387 63.8094C35.535 60.4585 34.2784 56.4792 34.4878 52.5C34.6972 47.683 36.5821 43.0754 40.1425 39.7245C43.4935 36.3736 48.101 34.4886 52.918 34.4886C57.5255 34.4886 62.3425 36.3736 65.6935 39.7245C69.0444 43.0754 71.1387 47.683 71.3482 52.5C70.9293 56.4792 69.8821 60.4585 67.5784 63.8094Z" fill="#BC1010"/>
</svg>
