<svg width="95" height="103" viewBox="0 0 95 103" fill="none" xmlns="http://www.w3.org/2000/svg">
<path d="M16.7139 75.1661V75.3755C17.3422 77.4699 19.4365 78.9359 21.5309 79.1453C22.578 79.3548 23.8346 78.9359 24.2535 78.7265L25.929 78.0982C26.9761 82.9151 28.0233 87.9416 29.4893 92.5491C29.9082 93.8057 30.3271 95.6906 31.1648 98.2038C31.1648 98.4133 31.3743 98.6227 31.3743 98.8321C32.4214 101.345 34.7252 103.021 38.495 102.811C38.7044 102.811 44.1497 102.393 43.7309 102.393C47.7101 101.974 50.0139 98.4133 49.8044 95.0623C49.595 93.3868 48.9667 92.1302 44.778 84.5906H45.6158H46.8724C47.5007 84.5906 47.9195 84.3812 48.5478 83.9623C49.595 83.334 50.4327 82.2868 50.8516 81.0302C51.2705 79.7736 51.2705 78.517 50.6422 77.2604C49.595 74.7472 46.8724 73.2812 44.3592 74.1189C43.1026 74.5378 42.6837 74.9566 41.846 75.585C41.2176 76.0038 40.5893 76.6321 39.961 77.051C39.3327 76.0038 38.495 74.7472 37.8667 73.7L41.4271 72.234C41.6365 72.0246 42.2648 71.8151 42.4743 71.8151C42.8931 71.6057 43.312 71.3963 43.5214 70.9774C44.1497 70.3491 44.5686 69.5114 44.778 68.6736C44.9875 68.2548 44.9875 67.6265 44.778 67.2076C49.3856 67.6265 53.7837 68.0453 58.3912 68.4642C62.9988 68.8831 67.3969 69.0925 72.0044 69.5114L72.8422 71.8151C74.5176 76.4227 79.5441 78.9359 84.1516 77.4699C88.7592 76.2133 91.6912 71.3963 90.6441 66.5793C90.4346 65.5321 90.4346 65.7416 84.1516 47.9397C87.5026 47.1019 90.4346 44.7982 92.3195 41.6566C94.4139 38.0963 94.8327 33.4887 93.3667 29.5095C92.1101 25.5302 88.9686 22.1793 85.1988 20.5038C81.6384 19.0378 77.4497 19.0378 74.3082 20.7133C74.3082 20.5038 74.0988 20.2944 74.0988 20.0849L70.1195 10.0321L68.2346 5.0057C67.3969 3.33023 65.9309 1.86419 64.2554 1.23589C65.9309 2.07363 66.978 3.53966 67.6063 5.21514C67.6063 5.42457 72.4233 21.9699 72.2139 20.9227C91.0629 83.334 85.8271 61.134 86.8743 67.417C87.712 71.6057 83.1044 75.1661 79.3346 73.0717C78.078 72.4434 77.2403 71.3963 76.8214 70.3491L75.3554 65.1133C55.878 7.72834 63.4177 29.9283 57.3441 12.3359C57.3441 12.1265 57.1346 11.917 56.9252 11.7076C56.7158 11.4982 56.2969 11.2887 55.878 11.2887C55.6686 10.451 55.2497 9.82268 55.0403 8.98495C54.6214 7.51891 54.8309 5.634 55.6686 4.16797C57.1346 1.23589 61.3233 -0.439581 64.6743 1.02646C63.2082 0.188721 61.1139 -0.0207134 59.229 0.398155C57.3441 0.817023 55.6686 2.07363 54.6214 3.7491C53.5743 5.42457 53.1554 7.51891 53.3648 9.40382C53.5743 10.2416 53.7837 11.0793 53.9931 11.917C50.4327 15.6868 46.8724 19.4566 43.312 23.2265C39.3327 27.4151 35.5629 31.3944 32.8403 34.3265L32.6309 34.5359C32.4214 34.7453 32.212 35.1642 32.4214 35.5831C33.8875 39.5623 35.5629 43.3321 37.029 47.3114C37.2384 47.9397 37.4478 48.568 37.6573 49.1963C37.6573 49.4057 43.1026 68.0453 42.6837 66.7887C42.8931 67.2076 42.8931 67.6265 42.6837 68.0453C42.4743 68.4642 42.2648 68.8831 42.0554 69.0925C41.846 69.3019 41.6365 69.3019 41.4271 69.3019H41.2177C40.5893 69.5114 32.4214 71.8151 32.8403 71.6057L25.0912 74.1189C23.8346 74.5378 22.1592 75.1661 21.9497 74.9567C21.3214 74.9567 20.9026 74.5378 20.6931 73.9095C14.829 56.7359 13.7818 55.2699 10.8497 47.3114C10.6403 46.0548 10.2214 45.0076 10.012 43.751C10.012 43.5416 9.80256 43.5416 9.80256 43.3321C9.59312 43.1227 9.38369 42.9133 9.17425 42.9133L8.54595 41.6566C8.33652 41.2378 8.33652 40.6095 8.33652 40.1906C8.54595 39.1434 9.17425 38.3057 10.4309 37.8868L17.9705 34.9548L25.5101 32.2321L27.395 31.6038C28.0233 31.3944 28.6516 31.1849 29.2799 31.1849C30.5365 31.1849 31.7931 32.2321 32.4214 33.4887C32.0026 32.2321 30.746 31.1849 29.4893 31.1849C28.861 31.1849 28.0233 31.3944 27.395 31.6038L25.5101 32.2321L17.761 34.7453L10.012 37.0491C9.38369 37.2585 8.54595 37.468 7.91765 38.0963C6.66105 39.1434 6.03274 41.0283 6.66105 42.7038L7.07991 43.9604C1.21576 48.1491 -1.50688 55.8982 1.00633 63.6472C3.72897 70.5585 10.012 74.9566 16.7139 75.1661ZM74.9365 21.1321C78.4969 20.9227 81.6384 21.9699 84.361 23.4359C90.0158 26.9963 92.3195 33.9076 90.0158 40.1906C88.9686 42.9133 87.0837 45.4265 84.5705 47.3114C81.0101 37.468 78.4969 30.7661 74.9365 21.1321ZM45.4063 25.1114C48.5478 22.1793 51.4799 19.2472 54.6214 16.3151C58.1818 27.6246 55.878 20.5038 71.1667 65.7416C67.1875 65.5321 62.9988 65.5321 59.0195 65.3227C54.2026 65.3227 49.3856 65.1133 44.5686 65.1133C44.5686 64.9038 37.6573 47.7302 38.0761 48.7774C37.8667 48.1491 37.6573 47.5208 37.4478 46.8925C36.4007 43.1227 35.3535 39.3529 34.3063 35.3736C37.4478 32.651 41.0082 29.3 45.4063 25.1114ZM42.6837 77.2604C43.5214 77.2604 44.5686 77.051 44.9875 77.2604C46.0346 77.4699 46.6629 78.0982 46.8724 78.7265C47.0818 79.3548 47.0818 80.4019 46.6629 81.2397C46.4535 81.4491 46.2441 81.6585 46.0346 81.868L44.9875 82.7057C44.778 82.9151 44.3592 83.1246 44.1497 83.334C42.8931 81.2397 41.6365 79.1453 40.3799 77.2604H42.6837ZM34.0969 75.1661L37.6573 73.7C41.6365 85.8472 46.0346 94.0152 46.0346 95.2718C46.0346 96.5284 45.4063 97.785 44.1497 97.9944C43.9403 97.9944 43.7309 97.9944 43.5214 98.2038C43.312 98.2038 37.8667 98.8321 38.2856 98.8321H37.8667C36.4007 98.8321 35.5629 98.2038 35.1441 97.3661C34.9346 96.9472 34.5158 95.6906 32.8403 91.7114C30.9554 87.1038 29.0705 82.4963 26.7667 78.0982L34.0969 75.1661ZM8.12708 47.1019C8.33652 47.5208 8.54595 47.9397 8.54595 48.3585C11.0592 56.7359 11.0592 57.7831 15.6667 71.6057C10.012 70.1397 6.45161 65.951 5.19501 61.7623C3.3101 57.3642 4.35727 51.5 8.12708 47.1019Z" fill="#BC1010"/>
</svg>
