<svg width="105" height="103" viewBox="0 0 105 103" fill="none" xmlns="http://www.w3.org/2000/svg">
<path d="M52.4999 102.811C47.2641 102.392 42.6565 99.4604 39.515 95.6906C36.1641 91.9208 33.8603 87.3132 32.1848 82.4963C31.5565 80.6114 30.9282 78.7265 30.2999 76.8415C37.2113 77.051 44.1226 77.2604 50.8245 77.2604V77.6793C51.2433 86.0566 51.6622 94.434 52.4999 102.811C53.3377 94.434 53.7565 86.0566 54.1754 77.6793C54.1754 77.4698 54.1754 77.4698 54.1754 77.2604C61.0867 77.2604 67.7886 77.051 74.6999 76.8415C74.0716 78.7265 73.6528 80.6114 72.815 82.4963C71.1396 87.3132 68.6263 91.9208 65.4848 95.6906C62.3433 99.4604 57.7358 102.392 52.4999 102.811C65.6943 103.23 79.098 98.2038 88.732 88.7793C98.366 79.3548 104.23 66.1604 104.44 52.5472C104.649 38.934 98.9943 25.3208 89.3603 15.6868C79.7263 5.84344 66.3226 0.188721 52.4999 0.188721C38.6773 0.188721 25.2735 5.84344 15.6396 15.6868C6.00559 25.3208 0.350874 38.934 0.560308 52.5472C0.769742 66.1604 6.42446 79.5642 16.0584 88.7793C25.9018 97.9944 39.3056 103.23 52.4999 102.811ZM38.6773 96.3189C39.515 97.3661 40.5622 97.9944 41.6094 99.0415C42.0282 99.4604 42.6565 99.6699 43.2848 100.089C43.9131 100.508 44.332 100.926 44.9603 101.136C46.4263 101.974 48.1018 102.392 49.7773 102.602C44.1226 102.183 38.4679 100.717 33.4414 98.4133C27.5773 95.6906 22.132 91.9208 17.7339 87.3132C14.1735 83.7529 11.4509 79.5642 9.1471 75.1661C15.4301 75.7944 21.5037 76.2132 27.7867 76.6321C28.415 78.9359 29.2528 81.0302 30.0905 83.1246C32.3943 87.9415 35.1169 92.5491 38.6773 96.3189ZM9.56597 30.1378C15.2207 30.7661 20.666 31.1849 26.3207 31.3944C24.8546 37.8868 24.2263 44.3793 24.0169 51.0812C17.315 51.2906 10.6131 51.7095 3.70182 52.3378C3.91125 46.0548 5.16785 39.7717 7.68106 33.9076C8.30936 32.651 8.93767 31.3944 9.56597 30.1378ZM97.3188 33.9076C99.832 39.7717 101.089 46.0548 101.298 52.3378C94.5962 51.7095 87.8943 51.2906 80.9829 51.0812C80.9829 44.5887 80.3547 37.8868 78.6792 31.3944C84.3339 31.1849 89.7792 30.7661 95.4339 30.1378C96.0622 31.3944 96.6905 32.651 97.3188 33.9076ZM54.5943 50.4529C54.5943 44.3793 54.3848 38.0963 54.1754 32.0227C61.0867 32.0227 67.998 31.8132 74.6999 31.6038C75.1188 33.4887 75.7471 35.5831 75.9565 37.468C76.7943 41.8661 77.2131 46.4736 77.4226 50.8717C69.883 50.6623 62.3433 50.4529 54.5943 50.4529ZM27.3679 50.8717C27.5773 44.3793 28.415 37.8868 30.0905 31.6038C37.0018 31.8132 43.9131 32.0227 50.615 32.0227C50.4056 38.0963 50.4056 44.3793 50.1962 50.4529C42.6565 50.4529 35.1169 50.6623 27.3679 50.8717ZM80.7735 54.0132C87.4754 53.8038 94.3867 53.3849 101.089 52.7566C101.298 60.5057 99.4131 68.2548 96.0622 75.1661C89.9886 74.5378 84.1245 74.1189 78.0509 73.9095C78.4697 72.0246 78.8886 70.3491 79.3075 68.4642C80.1452 63.4378 80.7735 58.8302 80.7735 54.0132ZM54.1754 27.834C54.1754 27.6246 54.1754 27.6246 54.1754 27.4151C53.966 19.6661 53.5471 12.1265 52.7094 4.3774C57.1075 4.58683 61.2962 6.89061 64.4377 10.451C67.7886 14.0114 70.0924 18.4095 71.9773 23.017C72.6056 24.6925 73.2339 26.5774 73.8622 28.2529C67.3697 28.0434 60.6679 27.834 54.1754 27.834ZM52.2905 4.3774C51.6622 12.1265 51.0339 19.6661 50.8245 27.4151V27.834C44.332 27.834 37.6301 28.0434 31.1377 28.2529C31.766 26.368 32.3943 24.6925 33.0226 23.017C34.9075 18.4095 37.4207 14.0114 40.5622 10.451C43.7037 6.89061 47.8924 4.58683 52.2905 4.3774ZM24.2263 54.0132C24.4358 60.7151 25.2735 67.2076 26.949 73.7C20.8754 73.9095 15.0113 74.3283 8.93767 74.9566C5.58672 68.0453 3.70182 60.2963 3.91125 52.5472C10.6131 53.3849 17.315 53.8038 24.2263 54.0132ZM30.0905 73.4906C29.8811 73.4906 29.6716 73.4906 29.4622 73.4906C27.9962 67.2076 27.3679 60.7151 27.3679 54.2227C27.9962 54.2227 34.2792 54.6416 50.4056 54.6416C50.4056 60.7151 50.615 66.9982 50.8245 73.0717C43.9131 73.0717 37.0018 73.2812 30.0905 73.4906ZM74.9094 73.4906C67.998 73.2812 61.0867 73.0717 54.1754 73.0717C54.3848 66.9982 54.3848 60.7151 54.5943 54.6416C62.3433 54.6416 69.8829 54.4321 77.632 54.2227C77.632 60.7151 77.0037 67.2076 75.5377 73.7C75.3282 73.4906 75.1188 73.4906 74.9094 73.4906ZM87.266 87.3132C82.8679 91.9208 77.4226 95.6906 71.5584 98.4133C66.3226 100.717 60.8773 101.974 55.2226 102.602C56.898 102.392 58.5735 101.974 60.0396 101.136C60.6679 100.926 61.0867 100.508 61.715 100.089C62.3433 99.6699 62.7622 99.4604 63.3905 99.0415C64.4377 98.2038 65.4848 97.3661 66.3226 96.3189C69.8829 92.5491 72.6056 87.9415 74.9094 83.1246C75.7471 81.0302 76.5848 78.7265 77.2131 76.6321C83.4962 76.4227 89.5697 76.0038 95.8528 75.1661C93.7584 79.7736 90.8263 83.7529 87.266 87.3132ZM95.2245 29.7189C89.5697 29.0906 83.7056 28.6717 78.0509 28.4623C77.4226 26.1585 76.5848 23.8548 75.7471 21.551C73.8622 16.5246 71.1395 11.917 67.3697 7.72834C66.9509 7.30947 66.532 6.68117 65.9037 6.26231C79.098 10.0321 89.1509 18.6189 95.2245 29.7189ZM38.8867 6.26231C38.4679 6.68117 37.8396 7.10004 37.4207 7.72834C32.1848 13.5925 29.0433 20.9227 26.949 28.4623C21.2943 28.6717 15.4301 29.0906 9.7754 29.7189C15.849 18.6189 26.1112 10.0321 38.8867 6.26231Z" fill="#D30000"/>
</svg>
