<svg width="16" height="16" viewBox="0 0 16 16" fill="none" xmlns="http://www.w3.org/2000/svg">
<g clip-path="url(#clip0_1_132)">
<path fill-rule="evenodd" clip-rule="evenodd" d="M0 8.04428C0 11.9954 2.88889 15.2806 6.66667 15.9466L6.7112 15.911C6.69636 15.9081 6.68151 15.9052 6.66667 15.9022V10.2641H4.66667V8.04434H6.66667V6.26855C6.66667 4.27078 7.95556 3.16091 9.77778 3.16091C10.3556 3.16091 10.9778 3.2497 11.5556 3.33849V5.38065H10.5333C9.55556 5.38065 9.33333 5.86899 9.33333 6.49052V8.04434H11.4667L11.1111 10.2641H9.33333V15.9022C9.31849 15.9052 9.30364 15.9081 9.2888 15.911L9.33333 15.9466C13.1111 15.2806 16 11.9954 16 8.04428C16 3.6492 12.4 0.0532227 8 0.0532227C3.6 0.0532227 0 3.6492 0 8.04428Z" fill="white"/>
</g>
<defs>
<clipPath id="clip0_1_132">
<rect width="16" height="16" fill="white"/>
</clipPath>
</defs>
</svg>
