<svg width="16" height="12" viewBox="0 0 16 12" fill="none" xmlns="http://www.w3.org/2000/svg">
<path fill-rule="evenodd" clip-rule="evenodd" d="M7.18291 7.02286L0.626562 2.6518C0.23425 2.39039 0 1.95289 0 1.48149C0 0.668832 0.660531 0.00833203 1.47241 0.00830078H14.5276C15.3395 0.00830078 16 0.668801 16 1.48071C16 1.95289 15.7658 2.39039 15.3734 2.6518L8.81709 7.02286C8.56891 7.1883 8.28444 7.27105 7.99997 7.27105C7.71553 7.27105 7.43109 7.18833 7.18291 7.02286ZM8 8.20857C8.47672 8.20857 8.93909 8.06829 9.33716 7.80292L15.8932 3.43201C15.9297 3.40773 15.9652 3.38239 16 3.35632V10.5188C16 11.3253 15.3482 11.9917 14.5271 11.9917H1.47291C0.666406 11.9917 0 11.3399 0 10.5188V3.35635C0.0347187 3.38235 0.0701562 3.40764 0.106531 3.43189L6.66288 7.80292C7.06094 8.06829 7.52331 8.20857 8 8.20857Z" fill="white"/>
</svg>
