<svg width="16" height="16" viewBox="0 0 16 16" fill="none" xmlns="http://www.w3.org/2000/svg">
<g clip-path="url(#clip0_1_126)">
<path d="M13.4185 9.53763C13.0706 9.17563 12.6509 8.98208 12.2062 8.98208C11.765 8.98208 11.3418 9.17204 10.9795 9.53405L9.84608 10.6631C9.75283 10.6129 9.65957 10.5663 9.5699 10.5197C9.44078 10.4552 9.31883 10.3943 9.21481 10.3297C8.15313 9.65591 7.18829 8.77778 6.2629 7.64158C5.81456 7.07527 5.51327 6.59857 5.29448 6.1147C5.58859 5.84588 5.86119 5.56631 6.12661 5.29749C6.22704 5.19713 6.32747 5.09319 6.4279 4.99283C7.18112 4.24014 7.18112 3.26523 6.4279 2.51254L5.44871 1.53405C5.33752 1.42294 5.22274 1.30824 5.11514 1.19355C4.89993 0.971326 4.67397 0.741935 4.44083 0.526882C4.09291 0.182796 3.67685 0 3.23926 0C2.80168 0 2.37844 0.182796 2.01976 0.526882C2.01617 0.530466 2.01617 0.530466 2.01259 0.53405L0.793087 1.76344C0.333981 2.22222 0.0721473 2.78136 0.014759 3.43011C-0.0713234 4.4767 0.237138 5.45161 0.473865 6.08961C1.05492 7.65591 1.92292 9.10753 3.21774 10.6631C4.78874 12.5376 6.67897 14.0179 8.8382 15.0609C8.8382 15.0609 10.7643 15.914 11.9946 15.9928C12.0699 15.9964 12.1488 16 12.2205 16C13.0491 16 13.7449 15.7025 14.2901 15.1111C14.2937 15.1039 14.3008 15.1004 14.3044 15.0932C14.4909 14.8674 14.7062 14.6631 14.9321 14.4444C15.0863 14.2975 15.2442 14.1434 15.3984 13.9821C15.7535 13.6129 15.94 13.1828 15.94 12.7419C15.94 12.2975 15.7499 11.871 15.3876 11.5125L13.4185 9.53763Z" fill="white"/>
</g>
<defs>
<clipPath id="clip0_1_126">
<rect width="16" height="16" fill="white"/>
</clipPath>
</defs>
</svg>
