<svg width="170" height="38" viewBox="0 0 170 38" fill="none" xmlns="http://www.w3.org/2000/svg">
<path fill-rule="evenodd" clip-rule="evenodd" d="M23.7681 2.08586C25.2293 2.58486 26.3901 3.1324 27.5734 3.90309C27.5054 3.86259 27.437 3.82253 27.3684 3.78292C26.2072 3.13863 25.1498 2.66628 24.037 2.31296L24.0067 2.30199L24.0275 2.30993C23.1171 2.02151 22.1693 1.81261 21.0971 1.65427C18.6201 1.36276 16.711 1.50334 14.2973 2.13792C11.9156 2.84115 10.2143 3.70519 8.24834 5.23515C7.60081 5.75707 6.99027 6.3243 6.42125 6.93265C6.99761 6.33265 7.61494 5.77433 8.26865 5.26179C10.2459 3.76662 11.9497 2.92861 14.3284 2.25985C16.3646 1.74721 17.9888 1.60082 20.0809 1.75505C20.413 1.77886 20.7378 1.81115 21.0682 1.85315C23.4162 2.19317 25.1621 2.78 27.2402 3.92126C27.6935 4.21777 28.1454 4.54642 28.617 4.91932C30.3723 6.38204 31.5104 7.74133 32.6488 9.73175C33.724 11.7391 34.2737 13.4179 34.5877 15.6791C34.5989 15.7664 34.6093 15.8536 34.6186 15.9411C34.6579 16.2509 34.6881 16.5619 34.7095 16.8735C33.8794 8.46031 27.032 1.89263 18.6983 1.86459C19.0475 1.84741 19.4073 1.83968 19.7835 1.84061C17.8122 1.72856 16.2728 1.88058 14.356 2.36377C11.9915 3.02844 10.2988 3.86097 8.33389 5.34673C7.60136 5.92113 6.9152 6.55359 6.28192 7.2381C6.13344 7.56482 5.99598 7.89604 5.86951 8.23174C6.34459 7.65791 6.80204 7.16236 7.29564 6.6925C6.43607 7.57223 5.67131 8.55118 5.01868 9.6114C4.83117 9.89415 4.64579 10.1897 4.4601 10.5008C3.32871 12.5209 2.73979 14.2171 2.37836 16.5099C2.33838 16.7937 2.30568 17.0741 2.27902 17.3592C2.33437 17.7893 2.40653 18.2166 2.49553 18.6411C2.49651 19.0198 2.50964 19.3954 2.53452 19.7678C2.40843 19.3105 2.3023 18.8485 2.2161 18.3819C2.1834 20.0872 2.33931 21.438 2.74955 23.0926C3.38869 25.4177 4.18935 27.0829 5.61813 29.0151C7.04536 30.8336 8.38147 32.0201 10.3465 33.2196C12.3439 34.3631 14.0216 34.9589 16.2888 35.3245C18.6547 35.6364 20.4824 35.5253 22.7995 34.9483C23.6395 34.7185 24.3729 34.4657 25.1274 34.1386C25.0894 34.0839 25.0525 34.0287 25.0165 33.9729C26.6653 33.2387 28.1724 32.2282 29.4835 30.9977C30.3812 30.2571 31.1798 29.4283 32.0105 28.3972C32.7118 27.4882 33.2414 26.6566 33.7701 25.6353C34.3093 24.5196 34.6737 23.5329 34.9946 22.3338C35.5813 19.9243 35.6941 18.0238 35.3773 15.5632C35.1193 13.8857 34.7421 12.575 34.0723 11.0268C34.3574 11.5778 34.609 12.1435 34.8383 12.745C35.1214 13.6287 35.3238 14.5216 35.4824 15.5482C35.8012 18.024 35.6877 19.9365 35.0973 22.3613C34.8044 23.4604 34.4722 24.3835 33.9952 25.4142C34.49 24.3899 34.8377 23.471 35.1485 22.3748C35.7818 19.9437 35.9266 18.0211 35.6476 15.5241C35.5834 15.069 35.5103 14.6361 35.4263 14.2189C35.445 14.285 35.4636 14.3517 35.4821 14.4189C35.4604 14.3352 35.4385 14.2524 35.4164 14.1704C35.0549 12.3992 34.4926 10.9071 33.5676 9.18901C32.9301 8.06371 32.3019 7.16849 31.4614 6.18896C30.7778 5.43426 30.032 4.73967 29.2321 4.11265C27.2161 2.58802 25.4775 1.73276 23.0515 1.05085C20.8601 0.501523 19.1176 0.360783 16.8703 0.567035C19.1152 0.397927 20.8499 0.565311 23.0267 1.14693C25.4212 1.86034 27.1314 2.73455 29.1056 4.27878C30.8983 5.7649 32.0798 7.14991 33.2455 9.13906C33.0236 8.78905 32.7842 8.43534 32.5247 8.07267C31.4491 6.65857 30.4183 5.5944 29.1512 4.61966C29.0882 4.56881 29.0248 4.51839 28.961 4.46842C26.9961 2.98265 25.3034 2.15012 22.9389 1.48545C21.0222 1.00226 19.4828 0.850239 17.5115 0.962298C17.5675 0.962159 17.6233 0.962212 17.6786 0.962461C16.5216 1.02405 15.4063 1.207 14.1388 1.52575C11.655 2.22381 9.87504 3.09959 7.81114 4.66027C7.12848 5.19545 6.48386 5.7785 5.88207 6.4051C6.49107 5.78669 7.14225 5.21229 7.83082 4.68613C9.90541 3.15915 11.6877 2.30907 14.1697 1.64455C16.6572 1.05777 18.6155 0.963418 21.1439 1.33109C21.2863 1.35592 21.4265 1.38158 21.5646 1.40813C21.9852 1.50855 22.4153 1.62753 22.866 1.76662C23.1715 1.86551 23.4685 1.97036 23.7681 2.08586ZM32.5877 27.0416C33.5409 25.551 34.1555 24.1093 34.6673 22.2474C35.1062 20.4742 35.2596 19.0388 35.1942 17.2126L35.1951 17.2118C35.1973 16.6648 35.1767 16.1444 35.1301 15.5991C34.9607 13.9126 34.651 12.5877 34.0613 11.0054C33.5819 10.0822 33.0081 9.19954 32.2876 8.25776C31.976 7.87332 31.6689 7.51651 31.3596 7.18165C31.3819 7.23878 31.4038 7.29604 31.4255 7.35343C31.1161 6.97975 30.8142 6.63927 30.5049 6.31746C29.912 5.7598 29.2911 5.26031 28.5998 4.7824L28.6771 4.84095C30.4757 6.28409 31.6487 7.63522 32.8349 9.6225C33.9662 11.6426 34.5551 13.3388 34.9166 15.6315C34.9565 15.9154 34.9892 16.1957 35.0159 16.4808C34.9563 16.9439 34.8772 17.4038 34.7786 17.8605C34.7888 18.1041 34.7939 18.3489 34.7939 18.595C34.7939 18.6532 34.7936 18.7113 34.7931 18.7693C34.9049 18.3513 35.0002 17.9294 35.0788 17.5037C35.1116 19.209 34.9556 20.5596 34.5454 22.2143C34.2816 23.1739 33.9903 24.021 33.6387 24.8209C33.3405 25.5911 32.9886 26.333 32.5877 27.0416ZM32.3747 8.19084C31.9868 7.69115 31.6095 7.24518 31.2159 6.8253C31.185 6.75124 31.1535 6.6774 31.1215 6.60378C31.5735 7.07319 32 7.57152 32.4399 8.13865C33.0143 8.91545 33.493 9.65157 33.903 10.4006C33.9433 10.4863 33.9832 10.5728 34.0228 10.6602C34.2418 11.1415 34.4324 11.6003 34.5996 12.053C34.0459 10.7074 33.3484 9.5077 32.3747 8.19084ZM19.3911 10.0178C18.9815 9.83654 18.5654 9.6483 18.1426 9.45311L17.9642 9.4322C17.7528 9.4322 17.4358 9.59254 17.013 9.91322L17.0724 9.97597C17.0724 10.1154 17.013 10.2269 16.8941 10.3106C17.5524 10.6376 17.8892 11.0577 17.9042 11.5711C17.8997 11.5103 17.8669 12.6238 17.8056 14.9116C15.7314 15.4694 14.179 15.8668 13.1485 16.1037L12.1775 15.6855L11.9793 16.3756C11.9925 16.5151 12.1444 16.7522 12.4351 17.0867C12.7389 17.4213 12.9239 17.7281 12.9899 18.0069L13.644 18.258C13.6704 18.2719 13.7034 18.2719 13.743 18.258L14.1988 17.5887C15.1633 17.0588 16.0023 16.78 16.7157 16.7522C16.1344 18.0069 15.0576 19.4152 13.4854 20.9767C11.966 22.4686 10.5788 23.5561 9.32366 24.2393L9.7002 24.1557C9.77947 24.1557 9.90498 24.1906 10.0767 24.2603C10.2617 24.316 10.4004 24.3439 10.4929 24.3439C10.5325 24.3439 10.843 24.316 11.4243 24.2603L11.7018 24.3648C12.9041 23.8629 14.0403 22.9078 15.1104 21.4996C16.0089 20.2866 16.9007 19.0596 17.7858 17.8187C17.9047 17.9861 17.9708 18.8156 17.984 20.3075C17.9708 21.144 17.9642 21.9806 17.9642 22.8171C17.9642 22.8868 17.951 22.9985 17.9246 23.1518C17.9113 23.2912 17.9047 23.3958 17.9047 23.4655C17.9047 24.1488 17.7924 24.7482 17.5678 25.2641C17.6735 25.78 17.7792 26.3029 17.8849 26.8326C18.0038 27.4461 18.2218 27.9202 18.539 28.2548L18.8956 28.2966C19.3713 27.725 19.6091 27.0418 19.6091 26.2471C19.6091 26.1635 19.5959 26.0449 19.5695 25.8916C19.5563 25.7382 19.5496 25.6266 19.5496 25.5569C19.5496 23.7444 19.4572 22.5104 19.2722 21.8551L19.4307 21.0814C19.325 20.914 19.2722 20.4887 19.2722 19.8055C19.2722 19.7358 19.2854 19.6313 19.3118 19.4919C19.3514 19.3384 19.3713 19.2269 19.3713 19.1572L19.2722 18.5716L19.4505 17.9651C20.5471 19.5127 21.3926 20.6491 21.9872 21.3741C22.0269 21.4299 22.3242 21.9248 22.879 22.859C23.2357 23.4585 23.5793 23.9047 23.9095 24.1975C24.3852 24.6298 24.9467 24.8458 25.594 24.8458C26.5849 24.8458 27.1729 24.7274 27.3579 24.4902H27.7145L27.6749 24.3439L27.7541 24.2603L27.8334 24.2185H27.9722V23.7793C27.3909 23.2215 26.3208 22.3571 24.7617 21.1859C23.3348 20.1402 22.2845 19.2409 21.6107 18.4879C20.5141 17.3029 19.8998 16.4314 19.7677 15.8737C20.0582 15.6924 20.818 15.6019 22.0467 15.6019C22.3242 15.6019 22.7336 15.6646 23.2754 15.79C23.8302 15.9156 24.2398 15.9783 24.5041 15.9783C24.6758 15.9783 24.874 15.8389 25.0986 15.5601C25.0722 15.1835 24.9335 14.8908 24.6825 14.6816L23.9293 14.0542C23.7312 14.0821 23.5264 14.0472 23.315 13.9496C23.1036 13.8381 22.9583 13.7823 22.879 13.7823C22.8526 13.7823 22.7204 13.8102 22.4827 13.866L22.1458 13.7823C21.789 13.7823 21.5049 13.9914 21.2936 14.4098L19.6289 14.7235L19.3713 14.6607C19.3713 14.1866 19.477 13.5383 19.6884 12.7157C19.913 11.7955 20.1507 11.2169 20.4018 10.9798C20.2036 10.5755 19.8668 10.2548 19.3911 10.0178Z" fill="#454545" fill-opacity="0.66"/>
<path d="M37.2548 19.223C37.1643 20.4829 36.99 21.5569 36.6813 22.7807C35.9563 25.4184 35.0466 27.3082 33.4257 29.5002C31.8067 31.5635 30.2919 32.9092 28.0624 34.2699C25.7961 35.5674 23.8934 36.2424 21.3216 36.6574C18.6374 37.0107 16.5636 36.8857 13.9342 36.231C12.6211 35.8619 11.4954 35.4454 10.4248 34.9145C10.5354 34.8465 10.6435 34.7748 10.7489 34.6994C11.8409 35.2208 12.833 35.5864 14.0176 35.9097C16.5998 36.5523 18.6378 36.6759 21.2744 36.3288C23.8005 35.9213 25.6701 35.2577 27.8961 33.9834C30.0862 32.6465 31.5745 31.3248 33.1655 29.2972C34.7577 27.144 35.6511 25.2876 36.3633 22.6964C36.8207 20.853 36.9938 19.3474 36.9575 17.4472C37.086 18.0336 37.1854 18.6265 37.2548 19.223Z" fill="#454545" fill-opacity="0.66"/>
<path d="M34.7004 10.3367C35.4942 12.0814 35.9312 13.5422 36.2243 15.4403C36.5572 18.0249 36.4389 20.023 35.8224 22.5543C35.517 23.7013 35.1698 24.6654 34.6721 25.7411C35.1526 24.6597 35.4844 23.6907 35.7725 22.5409C36.3475 20.0152 36.4352 18.0273 36.0631 15.4639C35.6392 13.0229 34.9837 11.2226 33.7425 9.08634C33.0639 7.97359 32.4016 7.092 31.5232 6.133C30.8364 5.37457 30.087 4.67661 29.2833 4.04667C27.2573 2.51467 25.5109 1.65549 23.073 0.970135C20.8713 0.418145 19.1209 0.276778 16.862 0.484284C19.1247 0.240418 20.881 0.356082 23.0972 0.876098C25.5659 1.53043 27.3401 2.37111 29.4069 3.88398C31.3652 5.40736 32.6474 6.84156 33.9559 8.96002C34.226 9.41453 34.4669 9.86135 34.7004 10.3367Z" fill="#454545" fill-opacity="0.66"/>
<path d="M36.8226 17.1358C36.7465 16.5419 36.6491 15.9816 36.52 15.3971C36.3333 14.5676 36.0911 13.7518 35.795 12.9554C36.0268 13.7658 36.2043 14.591 36.3263 15.4254C36.6612 18.0251 36.5422 20.0346 35.9222 22.5806C35.5839 23.8471 35.1985 24.8903 34.6289 26.0689C34.0958 27.165 33.5562 28.0608 32.8377 29.0429C31.3032 31.0471 29.8595 32.3592 27.7299 33.6948C25.5535 34.9759 23.7219 35.65 21.2393 36.081C18.6356 36.4572 16.6199 36.3577 14.0593 35.7519C12.9254 35.4571 11.9656 35.1192 10.8976 34.6349C11.9613 35.1324 12.9178 35.4812 14.0495 35.7901C16.6144 36.4287 18.6388 36.5512 21.2574 36.2062C23.7673 35.8014 25.6238 35.1425 27.8349 33.8766C30.0101 32.5489 31.4886 31.236 33.0683 29.2227C34.6492 27.084 35.5373 25.2396 36.2455 22.6662C36.7271 20.7187 36.8942 19.1416 36.8226 17.1358Z" fill="#454545" fill-opacity="0.66"/>
<path d="M37.1448 15.614C37.2433 16.3915 37.2935 17.1747 37.2949 17.9586C37.1857 17.3802 37.0484 16.8084 36.8832 16.2429C36.8545 15.9461 36.8198 15.6541 36.7779 15.3589C36.375 12.8043 35.7189 10.9138 34.4587 8.66255C33.1368 6.44786 31.8297 4.94282 29.8248 3.33388C28.1129 2.03305 26.6349 1.23124 24.6174 0.503247C26.6516 1.20068 28.1469 1.9807 29.8848 3.25677C31.9313 4.84612 33.2725 6.34333 34.6408 8.55411C35.9557 10.8175 36.6502 12.7246 37.0995 15.3107C37.1155 15.4116 37.1308 15.5123 37.1452 15.6129L37.1448 15.614Z" fill="#454545" fill-opacity="0.66"/>
<path fill-rule="evenodd" clip-rule="evenodd" d="M17.1501 0.121306C19.3337 -0.0396519 21.031 0.112999 23.1562 0.647435C25.6399 1.34549 27.4199 2.22128 29.4838 3.78196C30.1664 4.31714 30.8111 4.90019 31.4129 5.52679C30.8038 4.90838 30.1526 4.33398 29.4641 3.80782C27.3895 2.28083 25.6072 1.43076 23.1253 0.766233C20.6377 0.179451 18.6794 0.0851024 16.1511 0.452782C13.7413 0.872964 11.9628 1.52917 9.85103 2.77484C9.80338 2.80405 9.75586 2.83347 9.70849 2.86311C10.7256 2.28127 11.7753 1.82234 13.0247 1.39567L13.0259 1.39551C13.3669 1.31338 13.7036 1.24098 14.0487 1.17609C14.1753 1.15341 14.3002 1.13212 14.4237 1.11219C14.984 0.978863 15.5696 0.868726 16.1978 0.775951C18.6748 0.484441 20.5839 0.625023 22.9976 1.25961C25.3794 1.96284 27.0806 2.82686 29.0466 4.35682C29.6941 4.87875 30.3046 5.44598 30.8737 6.05432C30.2974 5.45434 29.68 4.89601 29.0262 4.38347C27.049 2.8883 25.3453 2.05029 22.9665 1.38154C20.9303 0.868889 19.3061 0.722507 17.2141 0.876725L17.1793 0.879249C17.2392 0.878691 17.2994 0.878381 17.36 0.878316C16.2132 0.970158 15.2282 1.13723 14.1132 1.42466C12.303 1.93355 10.8648 2.53609 9.41986 3.42674C7.66246 4.53168 6.37809 5.68821 5.00735 7.37944C4.57201 7.94848 4.19024 8.49595 3.85048 9.04382C4.99292 7.34483 6.18481 6.08729 7.88801 4.7623C9.95486 3.24942 11.729 2.40875 14.1977 1.75442C16.4139 1.2344 18.1702 1.11873 20.4329 1.3626C18.174 1.1551 16.4236 1.29646 14.222 1.84845C11.7841 2.53382 10.0376 3.39299 8.01169 4.92498C7.20787 5.55492 6.4585 6.25289 5.77172 7.01132C4.89327 7.97033 4.23103 8.85191 3.55236 9.96467C2.31126 12.101 1.65569 13.9013 1.23181 16.3421C0.85969 18.9055 0.94741 20.8935 1.5224 23.4193C1.81051 24.569 2.14233 25.5381 2.62278 26.6195C2.12512 25.5437 1.77796 24.5795 1.47248 23.4326C0.855967 20.9013 0.737716 18.9032 1.07062 16.3187C1.32847 14.6487 1.69776 13.3172 2.32343 11.8331C2.89881 10.1692 3.6456 8.76597 4.77022 7.19435C4.83009 7.11564 4.88982 7.03801 4.94947 6.96142C4.83585 7.03416 4.72304 7.1082 4.61104 7.18356C5.21334 6.45624 5.78987 5.84317 6.43137 5.25589C7.08276 4.59306 7.76885 4.00546 8.54742 3.43956C8.19401 3.67693 7.83747 3.93307 7.47018 4.21219C5.46517 5.82115 4.15819 7.32618 2.83619 9.54088C1.57603 11.7921 0.919976 13.6827 0.51702 16.2373C0.475176 16.5325 0.440459 16.8245 0.411786 17.1212C0.246472 17.6867 0.109212 18.2586 0 18.8369C0.00142604 18.053 0.0515835 17.2699 0.150177 16.4923L0.149712 16.4912C0.164178 16.3906 0.179416 16.2898 0.195432 16.189C0.644727 13.6029 1.3392 11.6959 2.65409 9.43242C4.02243 7.22164 5.36365 5.72445 7.4102 4.13508C8.17324 3.57479 8.88952 3.11013 9.6252 2.7061C9.6706 2.67703 9.71632 2.64797 9.76237 2.61889C11.8932 1.35489 13.689 0.687558 16.1237 0.256718C16.4668 0.20155 16.8045 0.157353 17.1501 0.121306ZM4.85499 7.26033C4.98312 7.09512 5.11012 6.93576 5.23696 6.78124C5.30957 6.73669 5.38251 6.69267 5.45577 6.64916C5.27774 6.86057 5.10012 7.08077 4.92025 7.31253C4.20315 8.28236 3.63583 9.18865 3.16546 10.1365C2.9637 10.4901 2.77682 10.8439 2.59456 11.2151L2.54457 11.3256C3.11265 9.89797 3.83218 8.64362 4.85499 7.26033Z" fill="#454545" fill-opacity="0.66"/>
<path d="M24.2702 0.517353C26.4014 1.24519 27.9517 2.06691 29.7502 3.43245C30.8884 4.33457 31.7556 5.18418 32.6839 6.30525C32.3677 6.09252 32.0451 5.89023 31.716 5.6984C31.0463 4.97487 30.3208 4.30641 29.5462 3.69936C27.4695 2.12928 25.6798 1.24864 23.1817 0.546346C22.0667 0.258911 21.0817 0.0918415 19.9349 0C21.0985 0.0012538 22.1002 0.0924684 23.2462 0.297779C23.5913 0.362664 23.9281 0.435072 24.269 0.517196L24.2702 0.517353Z" fill="#454545" fill-opacity="0.66"/>
<path d="M0.613575 23.6591C0.304849 22.4352 0.130649 21.3611 0.0401382 20.1014C0.109579 19.5049 0.208892 18.9119 0.337394 18.3255C0.301128 20.2257 0.474245 21.7314 0.9316 23.5747C1.6439 26.1658 2.53723 28.0223 4.12937 30.1756C5.72042 32.2032 7.20872 33.5248 9.39878 34.8616C11.6248 36.136 13.4944 36.7996 16.0205 37.207C18.6572 37.5543 20.6952 37.4306 23.2773 36.788C24.4619 36.4647 25.4541 36.099 26.546 35.5778C26.6514 35.6531 26.7595 35.7248 26.8702 35.7928C25.7995 36.3238 24.6739 36.7402 23.3608 37.1094C20.7313 37.7639 18.6575 37.8891 15.9733 37.5358C13.4015 37.1207 11.4988 36.4457 9.23248 35.1481C7.00306 33.7875 5.48826 32.4418 3.86915 30.3786C2.24833 28.1866 1.33859 26.2967 0.613575 23.6591Z" fill="#454545" fill-opacity="0.66"/>
<path d="M0.774914 16.2754C0.645814 16.86 0.548484 17.4201 0.472233 18.0141C0.400631 20.0198 0.567857 21.5971 1.04939 23.5446C1.75766 26.118 2.64571 27.9623 4.22654 30.1009C5.80627 32.1142 7.28481 33.4272 9.46 34.755C11.6711 36.0208 13.5277 36.6797 16.0375 37.0845C18.6561 37.4294 20.6806 37.3071 23.2455 36.6684C24.3771 36.3595 25.3336 36.0106 26.3973 35.5132C25.3293 35.9974 24.3695 36.3354 23.2357 36.6302C20.675 37.2361 18.6593 37.3354 16.0556 36.9594C13.573 36.5283 11.7415 35.8543 9.56507 34.5731C7.43545 33.2375 5.99164 31.9254 4.4573 29.9212C3.73881 28.9392 3.19915 28.0433 2.66601 26.9472C2.09645 25.7686 1.71101 24.7254 1.37268 23.459C0.752749 20.9129 0.633725 18.9034 0.968643 16.3038C1.09067 15.4693 1.26816 14.6441 1.49992 13.8338C1.2038 14.63 0.961575 15.4458 0.774914 16.2754Z" fill="#454545" fill-opacity="0.66"/>
<path d="M3.94555 10.1963C3.69975 10.6405 3.48154 11.0759 3.27215 11.5385C2.51181 13.2097 2.09336 14.6084 1.81253 16.4264C1.49372 18.9023 1.60717 20.8148 2.19765 23.2397C2.49058 24.3386 2.8227 25.2618 3.29974 26.2925C2.80487 25.2681 2.45726 24.3493 2.14636 23.2532C1.51309 20.822 1.36834 18.8995 1.64731 16.4023C1.98734 13.9922 2.57659 12.2048 3.72734 10.0673C4.36478 8.94203 4.99308 8.04681 5.83355 7.06727C6.51716 6.31257 7.26294 5.61798 8.06282 4.99097C10.0788 3.46633 11.8174 2.61107 14.2434 1.92916C16.4348 1.37984 18.1773 1.2391 20.4246 1.44536C18.1797 1.27624 16.4451 1.44363 14.2682 2.02524C11.8737 2.73866 10.1636 3.61287 8.18929 5.15709C6.34329 6.68736 5.14543 8.11044 3.94555 10.1963Z" fill="#454545" fill-opacity="0.66"/>
<path d="M2.62757 23.1257C2.18867 21.3525 2.03539 19.917 2.10063 18.0909L2.09987 18.0901C2.09754 17.5431 2.1183 17.0226 2.1648 16.4774C2.33528 14.7803 2.64788 13.4495 3.24472 11.854C2.56109 13.4245 2.17844 14.7456 1.9176 16.4416C1.60082 18.9022 1.71364 20.8025 2.3004 23.2121C2.62122 24.4111 2.98559 25.3979 3.52478 26.5137C4.05357 27.5349 4.58316 28.3665 5.28445 29.2755C6.76825 31.1175 8.14992 32.3138 10.1763 33.5146C12.2249 34.652 13.9396 35.2365 16.2527 35.5787C18.6527 35.8617 20.5027 35.7259 22.8418 35.1114C23.6919 34.8681 24.4323 34.6006 25.2079 34.2517L25.2036 34.2458C24.4259 34.5835 23.6835 34.8409 22.8323 35.0726C20.4973 35.6541 18.6558 35.7655 16.2715 35.452C13.9864 35.0835 12.2963 34.4833 10.2833 33.3308C8.30273 32.1219 6.95672 30.9275 5.51832 29.0938C4.07853 27.1466 3.27169 25.4689 2.62757 23.1257Z" fill="#454545" fill-opacity="0.66"/>
<path d="M151.195 7.98482C150.237 8.5171 149.853 9.23592 149.853 10.4951C149.853 12.4941 152.016 13.1375 153.528 11.5885C154.163 10.9376 154.35 10.485 154.35 9.58971C154.35 7.76112 152.912 7.02993 151.195 7.98482Z" fill="#454545" fill-opacity="0.66"/>
<path fill-rule="evenodd" clip-rule="evenodd" d="M115.338 8.03807L113.281 8.13768L113.672 14.6512L111.526 14.5101C109.917 14.4042 109.066 14.4917 108.124 14.8608C106.401 15.5347 104.747 17.5216 104.059 19.7428C103.752 20.7354 103.509 21.1998 103.5 20.8117C103.397 16.3505 98.5139 13.1695 93.884 14.5484C91.3755 15.2954 88.5901 18.2642 88.5901 20.1911C88.5901 20.514 88.4636 20.7783 88.309 20.7783C88.1545 20.7783 88.028 20.4493 88.028 20.0471C88.028 18.9529 87.0857 17.2711 85.8118 16.0923C82.1357 12.6901 75.6754 14.1502 73.6857 18.8331C72.8772 20.7363 72.801 24.0725 73.5263 25.8161C74.9849 29.3227 78.9009 31.0285 82.8159 29.8629C84.9705 29.2211 87.2374 26.9913 87.8217 24.9387L88.2163 23.5517L88.5336 24.8426C88.9866 26.6849 90.2242 28.2735 91.984 29.2706C93.3207 30.0281 93.7842 30.1343 95.7561 30.1343C97.7511 30.1343 98.1785 30.0338 99.5499 29.2412C101.34 28.2067 102.769 26.4535 103.23 24.7245L103.553 23.5131L103.902 24.903C104.361 26.7276 105.626 28.5334 107.009 29.3354C108.375 30.1283 111.573 30.2442 112.876 29.5485C113.439 29.2476 113.788 29.203 113.986 29.4063C114.145 29.5692 115.201 29.7025 116.333 29.7025H118.389L118.183 28.9108C118.069 28.4753 117.973 23.5529 117.97 17.9715C117.965 11.2966 117.865 7.84345 117.679 7.88117C117.523 7.91254 116.469 7.98309 115.338 8.03807ZM82.2255 18.4414C83.653 19.7149 84.0821 22.8148 83.1188 24.8932C81.9081 27.5062 78.9706 27.244 77.93 24.4301C77.765 23.9844 77.6301 22.87 77.6301 21.9537C77.6301 18.5994 80.2007 16.6346 82.2255 18.4414ZM97.4847 18.3495C98.9996 19.3262 99.4628 23.626 98.2359 25.3242C96.8204 27.284 94.6382 27.1107 93.5375 24.9511C92.7876 23.4797 92.7534 20.7614 93.4678 19.3893C94.3052 17.7794 95.9436 17.3555 97.4847 18.3495ZM113.268 18.1486C113.528 18.3173 113.686 19.497 113.8 22.1097L113.961 25.8305L113.206 26.1831C112.284 26.6136 110.665 26.6409 109.93 26.2385C108.589 25.5032 107.929 22.7378 108.548 20.4539C109.001 18.7857 110.062 17.8986 111.602 17.9038C112.316 17.9064 113.065 18.0164 113.268 18.1486Z" fill="#454545" fill-opacity="0.66"/>
<path fill-rule="evenodd" clip-rule="evenodd" d="M137.909 14.5395C134.526 15.8985 132.63 18.4517 132.251 22.1552C131.9 25.6045 133.221 28.3538 135.906 29.7572C136.837 30.2437 137.407 30.3237 139.19 30.2181C142.494 30.022 144.682 28.4387 146.264 25.099C147.132 23.2688 147.144 19.4092 146.286 17.7556C145.527 16.292 144.378 15.1736 143.048 14.6042C141.833 14.0846 139.127 14.0507 137.909 14.5395ZM141.273 17.1951C144.068 18.5536 143.786 25.0113 140.841 27.0643C140.088 27.5892 139.629 27.7038 138.753 27.586C135.987 27.2143 134.96 23.0298 136.748 19.4152C137.539 17.8166 137.963 17.3863 139.086 17.0408C140.207 16.696 140.254 16.6991 141.273 17.1951Z" fill="#454545" fill-opacity="0.66"/>
<path d="M163.932 14.5014C163.02 14.7099 162.345 15.1521 161.363 16.1847L160.031 17.5851L159.648 14.4448L158.053 14.6289C157.175 14.73 156.412 14.8523 156.355 14.9011C156.3 14.9494 156.264 16.5831 156.274 18.5314C156.286 20.4797 156.067 23.8226 155.788 25.9601C155.509 28.0976 155.32 29.8945 155.365 29.9532C155.41 30.0122 156.255 29.9717 157.241 29.8637L159.033 29.667L159.335 25.8418C159.687 21.3829 160.288 19.6032 161.971 18.0458C163.267 16.847 164.219 16.757 165.181 17.7427C166.046 18.6276 166.075 20.128 165.337 25.6722C165.053 27.8097 164.918 29.6696 165.04 29.8058C165.16 29.9417 166.005 29.9641 166.918 29.8556L168.577 29.6584L169.08 24.2394C169.358 21.2421 169.496 18.289 169.387 17.6304C169.136 16.1053 168.083 14.8296 166.767 14.4551L166.749 14.4501C166.263 14.3117 165.981 14.2316 165.695 14.2133C165.303 14.1881 164.904 14.2794 163.956 14.4961L163.932 14.5014Z" fill="#454545" fill-opacity="0.66"/>
<path d="M125.964 14.7139C123.714 15.4151 121.765 17.2159 120.694 19.5828C120.08 20.9407 120.012 21.4156 120.119 23.6131C120.257 26.5036 120.902 27.9542 122.605 29.2076C123.893 30.1567 126.181 30.4909 128.115 30.0127C130.044 29.5357 130.645 28.9514 130.869 27.3341L131.057 25.9734L129.846 26.5361C128.346 27.2339 126.053 27.2858 125.156 26.6421C123.149 25.2026 123.311 20.3842 125.436 18.3009C126.236 17.5158 126.424 17.4678 128.667 17.4678H131.048L131.423 16.1723C131.63 15.4598 131.743 14.7798 131.676 14.6609C131.518 14.3829 126.889 14.4258 125.964 14.7139Z" fill="#454545" fill-opacity="0.66"/>
<path d="M152.071 14.5723C152.002 14.6426 151.349 14.7315 150.618 14.7701L149.291 14.8405L149.285 17.3057C149.283 18.6616 149.032 21.7139 148.729 24.0889L148.693 24.3723C148.162 28.5294 148.024 29.6113 148.427 29.8922C148.569 29.9911 148.778 29.9908 149.061 29.9904L149.116 29.9904C149.637 29.9904 150.441 29.9129 150.903 29.8184L151.741 29.6466L152.088 25.3218C152.278 22.9435 152.61 19.8145 152.825 18.3691C153.348 14.8421 153.338 14.445 152.71 14.445C152.427 14.445 152.139 14.5023 152.071 14.5723Z" fill="#454545" fill-opacity="0.66"/>
<path d="M51.3335 15.7267C51.436 16.2861 52.2183 18.6556 53.0721 20.9919C54.8867 25.9575 55.7016 28.4962 55.7067 29.1987C55.7098 29.6334 55.9995 29.7025 57.818 29.7025C59.5415 29.7025 59.9257 29.6205 59.9257 29.2528C59.9257 28.3865 62.508 20.7178 62.7174 20.9628C62.8907 21.1658 65.146 28.1002 65.4424 29.3426C65.5012 29.5876 66.1523 29.7025 67.4821 29.7025H69.4358L69.6311 28.7668C69.7382 28.2521 70.8232 25.2173 72.042 22.0225C73.2608 18.8277 74.2578 15.8807 74.2578 15.4734C74.2578 14.7447 74.2244 14.7329 72.1814 14.7329H70.1051L69.9223 15.8124C69.6716 17.2924 68.054 22.8812 67.7904 23.1786C67.5993 23.3939 66.5572 20.3235 65.4613 16.3162L65.0676 14.8769L63.0586 14.7922C61.3769 14.7213 61.0498 14.7822 61.0498 15.1644C61.0498 15.7393 58.8148 22.8585 58.5391 23.1619C58.3427 23.3781 56.8066 18.4033 56.3362 16.0283L56.108 14.8769L51.1471 14.7096L51.3335 15.7267Z" fill="#454545" fill-opacity="0.66"/>
</svg>
