<svg width="122" height="39" viewBox="0 0 122 39" fill="none" xmlns="http://www.w3.org/2000/svg">
<path fill-rule="evenodd" clip-rule="evenodd" d="M121.017 24.5507V31.4943C121.017 35.3292 117.902 38.438 114.06 38.438H6.95788C3.11515 38.438 0 35.3292 0 31.4943V24.5507H121.017ZM31.0908 35.5424C31.6163 35.7574 32.2107 35.8649 32.874 35.8649C33.6407 35.8649 34.3169 35.7015 34.9027 35.3748C35.4885 35.0481 35.9623 34.5753 36.3241 33.9563L35.1224 33.1955C34.8812 33.5824 34.5754 33.8876 34.2049 34.1111C33.8431 34.3346 33.4038 34.4463 32.8869 34.4463C32.4734 34.4463 32.0986 34.3733 31.7627 34.2271C31.4353 34.0724 31.1511 33.8661 30.9099 33.6082C30.6773 33.3416 30.4964 33.0322 30.3672 32.6797C30.238 32.3272 30.1733 31.9489 30.1733 31.5449C30.1733 31.1408 30.238 30.7626 30.3672 30.4101C30.4964 30.049 30.6773 29.7396 30.9099 29.4817C31.1425 29.2152 31.4267 29.0045 31.7627 28.8498C32.0986 28.6951 32.4734 28.6177 32.8869 28.6177C33.8345 28.6177 34.571 29.0174 35.0965 29.817L36.3112 29.0174C35.9149 28.3984 35.4238 27.9428 34.8381 27.6505C34.2609 27.3496 33.6062 27.1992 32.874 27.1992C32.2452 27.1992 31.668 27.3153 31.1425 27.5474C30.617 27.7709 30.1647 28.0804 29.7857 28.4758C29.4153 28.8627 29.1223 29.3227 28.907 29.8556C28.7003 30.3801 28.5969 30.9431 28.5969 31.5449C28.5969 32.1639 28.6959 32.7356 28.8941 33.26C29.0922 33.7844 29.3765 34.24 29.7469 34.6269C30.1173 35.0137 30.5653 35.3189 31.0908 35.5424ZM42.8387 33.9047H46.2371L46.9607 35.7101H48.5889L44.8804 27.2379H44.1826L40.5128 35.7101H42.115L42.8387 33.9047ZM44.5444 29.6493L45.7073 32.5894H43.3685L44.5444 29.6493ZM52.9042 33.7758C53.2746 35.1685 54.2566 35.8649 55.8503 35.8649C56.2983 35.8649 56.6988 35.809 57.052 35.6972C57.4138 35.5768 57.7197 35.4092 57.9695 35.1943C58.2279 34.9707 58.426 34.7042 58.5639 34.3948C58.7017 34.0853 58.7707 33.7371 58.7707 33.3503C58.7707 32.6453 58.5854 32.0865 58.215 31.6739C57.8532 31.2612 57.2717 30.9431 56.4706 30.7196C56.1088 30.625 55.8116 30.5347 55.5789 30.4488C55.3464 30.3628 55.1611 30.2726 55.0233 30.178C54.8941 30.0748 54.7994 29.9674 54.739 29.8556C54.6873 29.7439 54.6615 29.6106 54.6615 29.4558V29.4172C54.6615 29.1679 54.7606 28.9701 54.9587 28.824C55.1569 28.6692 55.4325 28.5919 55.7857 28.5919C56.5007 28.5919 56.94 28.8928 57.1038 29.4946L58.4735 28.9271C58.0858 27.7838 57.2114 27.2121 55.8503 27.2121C55.4282 27.2121 55.0492 27.268 54.7132 27.3798C54.3772 27.4915 54.0929 27.6505 53.8603 27.8568C53.6278 28.0631 53.4468 28.3125 53.3176 28.6048C53.197 28.8885 53.1367 29.2023 53.1367 29.5461C53.1367 30.2339 53.3306 30.7798 53.7182 31.1838C54.1059 31.5793 54.7132 31.8802 55.5402 32.0865C55.8761 32.1725 56.1518 32.2585 56.3672 32.3444C56.5911 32.4304 56.7634 32.525 56.8841 32.6281C57.0133 32.7313 57.1038 32.8473 57.1554 32.9763C57.2071 33.1052 57.233 33.2471 57.233 33.4019C57.233 33.7371 57.1166 34.0036 56.8841 34.2014C56.6514 34.3904 56.3327 34.485 55.9278 34.485C55.4885 34.485 55.1396 34.3948 54.8812 34.2142C54.6314 34.0251 54.4332 33.707 54.2868 33.26L52.9042 33.7758ZM65.7916 27.3798H64.2022V35.7101H65.7916V27.3798ZM78.6634 35.7746V27.3798H77.1521V32.6281L72.4745 27.3024H71.7633V35.7101H73.2881V30.4359L77.9658 35.7746H78.6634ZM86.6015 35.5296C87.1268 35.7531 87.7169 35.8649 88.3719 35.8649C88.9919 35.8649 89.565 35.7531 90.0903 35.5296C90.6157 35.306 91.0677 35.0009 91.4471 34.614C91.8259 34.2271 92.1191 33.7715 92.3256 33.2471C92.5413 32.7141 92.6488 32.1424 92.6488 31.532C92.6488 30.9303 92.5498 30.3671 92.3519 29.8427C92.1533 29.3097 91.8693 28.8498 91.4991 28.4629C91.1282 28.0675 90.6762 27.758 90.1423 27.5344C89.6162 27.311 89.0261 27.1992 88.3719 27.1992C87.7511 27.1992 87.1788 27.311 86.6534 27.5344C86.1359 27.758 85.6881 28.0675 85.3094 28.4629C84.93 28.8498 84.6331 29.3097 84.4174 29.8427C84.211 30.3671 84.1078 30.9303 84.1078 31.532C84.1078 32.1424 84.2067 32.7141 84.4046 33.2471C84.6025 33.7715 84.8873 34.2271 85.2575 34.614C85.6276 35.0009 86.0761 35.306 86.6015 35.5296ZM89.4703 34.2142C89.1428 34.3604 88.7769 34.4334 88.3719 34.4334C87.9668 34.4334 87.6009 34.3604 87.2735 34.2142C86.946 34.0595 86.6662 33.8532 86.4335 33.5953C86.2007 33.3374 86.0199 33.0322 85.891 32.6797C85.7615 32.3272 85.6967 31.9447 85.6967 31.532C85.6967 31.1193 85.7615 30.7368 85.891 30.3843C86.0199 30.0319 86.2007 29.7267 86.4335 29.4688C86.6662 29.2109 86.946 29.0089 87.2735 28.8627C87.6009 28.708 87.9668 28.6306 88.3719 28.6306C88.7769 28.6306 89.1428 28.708 89.4703 28.8627C89.8063 29.0089 90.0903 29.2109 90.3231 29.4688C90.5552 29.7267 90.7367 30.0319 90.8655 30.3843C90.9951 30.7368 91.0592 31.1193 91.0592 31.532C91.0592 31.9447 90.9951 32.3272 90.8655 32.6797C90.7367 33.0322 90.5552 33.3374 90.3231 33.5953C90.0903 33.8532 89.8063 34.0595 89.4703 34.2142Z" fill="#454545" fill-opacity="0.66"/>
<path fill-rule="evenodd" clip-rule="evenodd" d="M15.9037 7.84221C15.9037 12.1734 12.3436 15.6844 7.95184 15.6844C7.78498 15.6844 7.61925 15.6793 7.45488 15.6693V10.1121C7.6147 10.1483 7.78106 10.1675 7.95184 10.1675C9.187 10.1675 10.1883 9.16821 10.1883 7.93554C10.1883 6.70292 9.187 5.70368 7.95184 5.70368C6.7167 5.70368 5.7154 6.70292 5.7154 7.93554V20.8309H0V7.84221C0 3.51107 3.56017 0 7.95184 0C12.3436 0 15.9037 3.51107 15.9037 7.84221Z" fill="#454545" fill-opacity="0.66"/>
<path fill-rule="evenodd" clip-rule="evenodd" d="M87.4706 7.84221C87.4706 12.1734 83.9106 15.6844 79.5184 15.6844C79.3518 15.6844 79.1859 15.6793 79.0215 15.6693V10.1121C79.1817 10.1483 79.3475 10.1675 79.5184 10.1675C80.7535 10.1675 81.7551 9.16821 81.7551 7.93554C81.7551 6.70292 80.7535 5.70368 79.5184 5.70368C78.2833 5.70368 77.2824 6.70292 77.2824 7.93554V20.8309H71.5668V7.84221C71.5668 3.51107 75.1269 0 79.5184 0C83.9106 0 87.4706 3.51107 87.4706 7.84221Z" fill="#454545" fill-opacity="0.66"/>
<path d="M23.3586 2.85185C23.3586 3.60081 23.0535 4.34978 22.5262 4.86829C21.9991 5.41562 21.2778 5.70368 20.5009 5.70368C19.7518 5.70368 19.0305 5.41562 18.4756 4.86829C17.9484 4.32098 17.6432 3.60081 17.6432 2.85185C17.6432 2.10288 17.9484 1.35391 18.4756 0.835397C19.0027 0.288071 19.7241 0 20.5009 0C21.25 0 21.9713 0.288071 22.5262 0.835397C23.0535 1.35391 23.3586 2.10288 23.3586 2.85185Z" fill="#454545" fill-opacity="0.66"/>
<path d="M23.3586 7.19164H17.6432V20.8309H23.3586V7.19164Z" fill="#454545" fill-opacity="0.66"/>
<path d="M52.184 13.1432V7.43951H42.7412V13.1432H52.184Z" fill="#454545" fill-opacity="0.66"/>
<path fill-rule="evenodd" clip-rule="evenodd" d="M41.0018 20.8309V7.85816C41.0018 3.51772 37.4292 0 33.0787 0C28.6706 0 25.098 3.51772 25.098 7.85816V20.8309H30.8134V8.02836C30.8134 8.0132 30.8136 7.99804 30.8139 7.98288C30.8136 7.96714 30.8134 7.95134 30.8134 7.93554C30.8134 6.70292 31.8147 5.70368 33.0498 5.70368C34.285 5.70368 35.2863 6.70292 35.2863 7.93554C35.2863 7.95134 35.2862 7.96714 35.2858 7.98288C35.2862 7.99804 35.2863 8.0132 35.2863 8.02836V20.8309H41.0018Z" fill="#454545" fill-opacity="0.66"/>
<path fill-rule="evenodd" clip-rule="evenodd" d="M69.8273 0.24793V12.9727C69.8273 17.3131 66.2547 20.8308 61.9042 20.8308C57.4961 20.8308 53.9236 17.3131 53.9236 12.9727V0.24793H59.639V12.8024C59.639 12.8176 59.6391 12.8328 59.6395 12.8479C59.6391 12.8636 59.639 12.8795 59.639 12.8953C59.639 14.1279 60.6402 15.1271 61.8754 15.1271C63.1106 15.1271 64.1119 14.1279 64.1119 12.8953C64.1119 12.8795 64.1117 12.8636 64.1114 12.8479C64.1117 12.8328 64.1119 12.8176 64.1119 12.8024V0.24793H69.8273Z" fill="#454545" fill-opacity="0.66"/>
<path fill-rule="evenodd" clip-rule="evenodd" d="M121.017 15.8711H116.642V12.2812H114.169V7.93554H116.642V6.11682C116.642 6.10528 116.642 6.09373 116.641 6.08218C116.642 6.0702 116.642 6.05818 116.642 6.04614C116.642 5.10699 115.875 4.34566 114.929 4.34566C113.983 4.34566 113.217 5.10699 113.217 6.04614C113.217 6.05818 113.217 6.0702 113.217 6.08218C113.217 6.09373 113.217 6.10528 113.217 6.11682V15.8711H108.841V5.98714C108.841 2.68016 111.577 0 114.952 0C118.282 0 121.017 2.68016 121.017 5.98714V15.8711Z" fill="#454545" fill-opacity="0.66"/>
<path fill-rule="evenodd" clip-rule="evenodd" d="M107.102 0.24789V9.97746C107.102 13.2328 104.422 15.871 101.159 15.871C97.8532 15.871 95.1738 13.2328 95.1738 9.97746V0.24789H99.4606V9.84975C99.4606 9.86114 99.4606 9.87253 99.4606 9.88385C99.4606 9.89566 99.4606 9.90748 99.4606 9.91937C99.4606 10.8438 100.212 11.5933 101.138 11.5933C102.064 11.5933 102.815 10.8438 102.815 9.91937C102.815 9.90748 102.815 9.89566 102.815 9.88385C102.815 9.87253 102.815 9.86114 102.815 9.84975V0.24789H107.102Z" fill="#454545" fill-opacity="0.66"/>
<path d="M91.3226 15.8712C92.4772 15.8712 93.4347 14.9312 93.4347 13.7633C93.4347 12.5954 92.505 11.6554 91.3226 11.6554C90.1672 11.6554 89.2097 12.5954 89.2097 13.7633C89.2097 14.9312 90.1672 15.8712 91.3226 15.8712Z" fill="#454545" fill-opacity="0.66"/>
</svg>
