<svg width="146" height="28" viewBox="0 0 146 28" fill="none" xmlns="http://www.w3.org/2000/svg">
<path d="M5.14559 21.4143C4.04077 21.4143 3.11548 21.2118 2.36972 20.8067C1.62396 20.3923 1.05774 19.8491 0.671049 19.177C0.293567 18.4957 0.104826 17.75 0.104826 16.9398C0.104826 16.1848 0.238325 15.5219 0.505325 14.9511C0.772324 14.3803 1.16822 13.8969 1.69301 13.501C2.2178 13.0959 2.86229 12.7691 3.62646 12.5205C4.28935 12.3271 5.03971 12.1568 5.87754 12.0095C6.71536 11.8622 7.59462 11.7241 8.51531 11.5952C9.4452 11.4663 10.3659 11.3374 11.2774 11.2085L10.2278 11.7885C10.2462 10.6192 9.99762 9.7538 9.48203 9.19218C8.97565 8.62135 8.101 8.33594 6.85807 8.33594C6.07549 8.33594 5.35735 8.52008 4.70366 8.88835C4.04997 9.24742 3.59423 9.84587 3.33644 10.6837L0.643428 9.85507C1.0117 8.57532 1.71143 7.55796 2.7426 6.80299C3.78297 6.04803 5.16401 5.67055 6.88569 5.67055C8.22069 5.67055 9.38076 5.90072 10.3659 6.36106C11.3602 6.8122 12.0876 7.53034 12.5479 8.51547C12.7873 9.00344 12.9346 9.51902 12.9899 10.0622C13.0451 10.6054 13.0727 11.1901 13.0727 11.8161V21H10.5178V17.5889L11.015 18.0308C10.3981 19.1724 9.61093 20.0241 8.65341 20.5857C7.7051 21.1381 6.53583 21.4143 5.14559 21.4143ZM5.65657 19.0527C6.47599 19.0527 7.18031 18.91 7.76955 18.6246C8.35879 18.33 8.83295 17.9571 9.19202 17.506C9.55108 17.0549 9.78586 16.5853 9.89634 16.0973C10.0529 15.6554 10.1403 15.1582 10.1587 14.6058C10.1864 14.0534 10.2002 13.6115 10.2002 13.28L11.1393 13.6253C10.2278 13.7634 9.39917 13.8877 8.65341 13.9982C7.90766 14.1087 7.23095 14.2191 6.6233 14.3296C6.02485 14.4309 5.49085 14.5552 5.0213 14.7025C4.6254 14.8406 4.27094 15.0063 3.9579 15.1997C3.65408 15.393 3.4101 15.6278 3.22596 15.904C3.05103 16.1802 2.96356 16.5162 2.96356 16.9121C2.96356 17.2988 3.06023 17.6579 3.25358 17.9894C3.44692 18.3116 3.74154 18.5694 4.13744 18.7627C4.53333 18.9561 5.03971 19.0527 5.65657 19.0527ZM23.0392 21.4143C21.6858 21.4143 20.4889 21.1197 19.4485 20.5304C18.4082 19.932 17.5888 19.1126 16.9903 18.0722C16.4011 17.0318 16.1065 15.8349 16.1065 14.4815V7.63161C16.1065 6.2782 16.4011 5.08131 16.9903 4.04093C17.5888 3.00055 18.4082 2.18574 19.4485 1.5965C20.4889 0.998055 21.6858 0.698832 23.0392 0.698832C24.3926 0.698832 25.5895 0.998055 26.6299 1.5965C27.6703 2.18574 28.4851 3.00055 29.0743 4.04093C29.6728 5.08131 29.972 6.2782 29.972 7.63161V14.4815C29.972 15.8349 29.6728 17.0318 29.0743 18.0722C28.4851 19.1126 27.6703 19.932 26.6299 20.5304C25.5895 21.1197 24.3926 21.4143 23.0392 21.4143ZM23.0392 18.6522C23.7758 18.6522 24.4433 18.4773 25.0417 18.1275C25.6494 17.7684 26.1327 17.2896 26.4918 16.6912C26.8509 16.0835 27.0304 15.4068 27.0304 14.6611V7.42446C27.0304 6.68791 26.8509 6.02041 26.4918 5.42196C26.1327 4.81431 25.6494 4.33555 25.0417 3.98569C24.4433 3.62662 23.7758 3.44709 23.0392 3.44709C22.3027 3.44709 21.6306 3.62662 21.0229 3.98569C20.4245 4.33555 19.9457 4.81431 19.5867 5.42196C19.2276 6.02041 19.0481 6.68791 19.0481 7.42446V14.6611C19.0481 15.4068 19.2276 16.0835 19.5867 16.6912C19.9457 17.2896 20.4245 17.7684 21.0229 18.1275C21.6306 18.4773 22.3027 18.6522 23.0392 18.6522ZM36.7419 21V4.28951L32.9993 6.56822V3.35041L36.7419 1.11314H39.6835V21H36.7419ZM44.3617 21L44.3755 1.11314H47.3033V13.2662L53.1589 6.08486H56.8324L50.6454 13.5424L57.4677 21H53.5456L47.3033 13.8186V21H44.3617ZM58.8049 21V17.9479H61.857V21H58.8049ZM72.0389 21.4143C70.5105 21.4143 69.2124 21.0737 68.1444 20.3923C67.0764 19.711 66.257 18.7765 65.6861 17.5889C65.1245 16.4012 64.8391 15.0524 64.8299 13.5424C64.8391 12.0049 65.1337 10.6469 65.7138 9.46838C66.2938 8.2807 67.1224 7.3508 68.1996 6.6787C69.2768 6.0066 70.5704 5.67055 72.0803 5.67055C73.7099 5.67055 75.1002 6.07565 76.251 6.88585C77.4111 7.69606 78.1753 8.80549 78.5435 10.2141L75.671 11.0428C75.3856 10.2049 74.916 9.55585 74.2623 9.09551C73.6179 8.62595 72.8767 8.39118 72.0389 8.39118C71.0906 8.39118 70.3126 8.61675 69.7049 9.06788C69.0973 9.50981 68.6462 10.1175 68.3515 10.8908C68.0569 11.6642 67.905 12.5481 67.8958 13.5424C67.905 15.08 68.2549 16.3229 68.9454 17.2712C69.6451 18.2195 70.6763 18.6937 72.0389 18.6937C72.9688 18.6937 73.7191 18.4819 74.29 18.0584C74.87 17.6257 75.3119 17.0088 75.6158 16.2078L78.5435 16.8983C78.0556 18.353 77.25 19.4717 76.1267 20.2542C75.0035 21.0276 73.6409 21.4143 72.0389 21.4143ZM80.8046 21V6.08486H83.3733V9.70316L83.0142 9.23361C83.1983 8.75485 83.4377 8.31752 83.7323 7.92163C84.027 7.51653 84.3676 7.18508 84.7543 6.92729C85.1318 6.65108 85.5507 6.43932 86.011 6.29201C86.4806 6.13549 86.9594 6.04343 87.4473 6.0158C87.9353 5.97898 88.4048 6.00199 88.856 6.08486V8.79168C88.368 8.66278 87.8248 8.62595 87.2264 8.6812C86.6371 8.73644 86.0939 8.92518 85.5967 9.24742C85.1272 9.55125 84.7543 9.91952 84.4781 10.3522C84.2111 10.785 84.0178 11.2683 83.8981 11.8023C83.7784 12.3271 83.7185 12.8841 83.7185 13.4734V21H80.8046ZM92.5722 27.629L95.4586 19.7709L95.5 22.091L88.9954 6.08486H92.006L96.8672 18.4451H95.9834L100.624 6.08486H103.551L95.3205 27.629H92.5722ZM112.164 21.4143C110.737 21.4143 109.54 21.0691 108.574 20.3785C107.607 19.6788 106.875 18.7351 106.378 17.5474C105.881 16.3597 105.632 15.0201 105.632 13.5286C105.632 12.0371 105.876 10.6975 106.364 9.50982C106.861 8.32213 107.589 7.38763 108.546 6.70632C109.513 6.0158 110.7 5.67055 112.109 5.67055C113.509 5.67055 114.715 6.0158 115.727 6.70632C116.749 7.38763 117.537 8.32213 118.089 9.50982C118.641 10.6883 118.918 12.0279 118.918 13.5286C118.918 15.0201 118.641 16.3643 118.089 17.5612C117.546 18.7489 116.768 19.688 115.755 20.3785C114.751 21.0691 113.555 21.4143 112.164 21.4143ZM105.149 27.629V6.08486H107.717V16.8155H108.049V27.629H105.149ZM111.764 18.8042C112.685 18.8042 113.444 18.5694 114.043 18.0998C114.65 17.6303 115.101 16.9996 115.396 16.2078C115.7 15.4068 115.852 14.5138 115.852 13.5286C115.852 12.5527 115.7 11.6688 115.396 10.877C115.101 10.0852 114.646 9.45457 114.029 8.98502C113.412 8.51547 112.625 8.2807 111.667 8.2807C110.765 8.2807 110.019 8.50166 109.43 8.94359C108.85 9.38552 108.417 10.0024 108.132 10.7942C107.856 11.586 107.717 12.4974 107.717 13.5286C107.717 14.5598 107.856 15.4713 108.132 16.2631C108.408 17.0549 108.845 17.6763 109.444 18.1275C110.042 18.5786 110.816 18.8042 111.764 18.8042ZM129.949 21C129.01 21.1841 128.089 21.2624 127.187 21.2348C126.285 21.2072 125.479 21.0322 124.77 20.71C124.061 20.3877 123.527 19.8814 123.168 19.1908C122.846 18.574 122.671 17.9479 122.644 17.3126C122.625 16.6682 122.616 15.9408 122.616 15.1306V1.94176H125.516V14.9925C125.516 15.591 125.521 16.1111 125.53 16.5531C125.548 16.995 125.645 17.3679 125.82 17.6717C126.151 18.2425 126.676 18.5694 127.394 18.6522C128.122 18.7259 128.973 18.6937 129.949 18.5556V21ZM119.757 8.40499V6.08486H129.949V8.40499H119.757ZM138.344 21.4143C136.853 21.4143 135.559 21.0783 134.463 20.4062C133.368 19.7341 132.521 18.8088 131.922 17.6303C131.333 16.4426 131.039 15.0754 131.039 13.5286C131.039 11.9727 131.342 10.6054 131.95 9.42695C132.558 8.23927 133.409 7.31858 134.505 6.66489C135.601 6.00199 136.88 5.67055 138.344 5.67055C139.836 5.67055 141.129 6.0066 142.225 6.6787C143.32 7.3508 144.168 8.27609 144.766 9.45457C145.364 10.6331 145.664 11.9911 145.664 13.5286C145.664 15.0846 145.36 16.4564 144.752 17.6441C144.154 18.8226 143.307 19.7479 142.211 20.42C141.115 21.0829 139.826 21.4143 138.344 21.4143ZM138.344 18.6937C139.771 18.6937 140.835 18.2149 141.534 17.2574C142.243 16.2907 142.598 15.0478 142.598 13.5286C142.598 11.9727 142.239 10.7297 141.521 9.79983C140.812 8.86073 139.753 8.39118 138.344 8.39118C137.377 8.39118 136.581 8.61214 135.955 9.05407C135.329 9.4868 134.864 10.0898 134.56 10.8632C134.256 11.6274 134.104 12.5159 134.104 13.5286C134.104 15.0938 134.463 16.3459 135.182 17.285C135.9 18.2241 136.954 18.6937 138.344 18.6937Z" fill="#454545" fill-opacity="0.66"/>
</svg>
