<svg width="200" height="37" viewBox="0 0 200 37" fill="none" xmlns="http://www.w3.org/2000/svg">
<path fill-rule="evenodd" clip-rule="evenodd" d="M27.3428 10.0327C30.2413 12.8074 32.034 16.6406 32.034 20.8747C32.034 29.3428 24.8629 36.2078 16.0169 36.2078C7.17098 36.2078 -3.84011e-05 29.343 1.52796e-10 20.8748C1.92553e-05 16.6288 1.80298 12.7857 4.71599 10.0092L14.5554 0.590022C15.3772 -0.196674 16.6572 -0.196674 17.4789 0.590022L27.3428 10.0327Z" fill="#454545" fill-opacity="0.66"/>
<path d="M49.0884 28.3772V7.91483H53.8225V11.7491C55.1788 9.01033 57.3959 7.62791 60.4737 7.60183V12.023C58.2567 12.049 56.5873 12.4925 55.4657 13.3532C54.3702 14.214 53.8225 15.6746 53.8225 17.7352V28.3772H49.0884Z" fill="#454545" fill-opacity="0.66"/>
<path d="M73.2557 28.7685C70.2039 28.7685 67.713 27.8295 65.7828 25.9515C63.8527 24.0735 62.8876 21.5434 62.8876 18.3612V18.0482C62.8876 14.9182 63.8396 12.3751 65.7437 10.4188C67.6739 8.46258 70.1127 7.48445 73.0601 7.48445C75.8249 7.48445 78.1202 8.3452 79.9461 10.0667C81.798 11.7882 82.724 14.3705 82.724 17.8135V19.1828H67.7391C67.8173 21.1391 68.339 22.6389 69.3041 23.6822C70.2692 24.7255 71.6255 25.2472 73.3731 25.2472C76.1379 25.2472 77.7029 24.2039 78.0681 22.1172H82.6457C82.3066 24.2561 81.3155 25.8993 79.6722 27.047C78.029 28.1946 75.8901 28.7685 73.2557 28.7685ZM67.8173 16.0137H78.029C77.7942 12.6229 76.1379 10.9275 73.0601 10.9275C71.6516 10.9275 70.4778 11.3839 69.5388 12.2968C68.6259 13.1837 68.0521 14.4226 67.8173 16.0137Z" fill="#454545" fill-opacity="0.66"/>
<path d="M89.926 28.6511C89.0653 28.6511 88.3349 28.3642 87.735 27.7903C87.1351 27.1904 86.8351 26.4601 86.8351 25.5993C86.8351 24.7386 87.1351 24.0083 87.735 23.4083C88.3349 22.8084 89.0653 22.5085 89.926 22.5085C90.8129 22.5085 91.5562 22.8084 92.1561 23.4083C92.7561 24.0083 93.056 24.7386 93.056 25.5993C93.056 26.4601 92.7561 27.1904 92.1561 27.7903C91.5562 28.3642 90.8129 28.6511 89.926 28.6511ZM89.926 17.2266C89.0653 17.2266 88.3349 16.9266 87.735 16.3267C87.1351 15.7268 86.8351 14.9965 86.8351 14.1357C86.8351 13.275 87.1351 12.5577 87.735 11.9838C88.3349 11.3839 89.0653 11.084 89.926 11.084C90.8129 11.084 91.5562 11.3839 92.1561 11.9838C92.7561 12.5577 93.056 13.275 93.056 14.1357C93.056 14.9965 92.7561 15.7268 92.1561 16.3267C91.5562 16.9266 90.8129 17.2266 89.926 17.2266Z" fill="#454545" fill-opacity="0.66"/>
<path d="M102.029 28.3772L95.7691 7.91483H100.816L104.885 22.7041L109.228 7.91483H113.18L117.17 22.7041L121.435 7.91483H126.052L119.635 28.3772H114.823L111.028 14.6052L106.881 28.3772H102.029Z" fill="#454545" fill-opacity="0.66"/>
<path d="M134.208 28.7685C132.199 28.7685 130.595 28.2598 129.395 27.2426C128.221 26.1993 127.635 24.7908 127.635 23.0171C127.635 18.4786 131.052 16.2093 137.885 16.2093H141.485L141.641 15.1138C141.876 13.7314 141.733 12.7142 141.211 12.0621C140.715 11.3839 139.776 11.0448 138.394 11.0448C136.125 11.0448 134.742 12.1142 134.247 14.2531H129.708C130.178 11.9317 131.221 10.2232 132.838 9.1277C134.455 8.0322 136.373 7.48445 138.59 7.48445C141.381 7.48445 143.467 8.14958 144.85 9.47983C146.232 10.8101 146.702 12.8576 146.258 15.6225L145.241 22.1563C144.824 24.7125 144.706 26.7861 144.889 28.3772H140.389C140.233 27.4382 140.207 26.4471 140.311 25.4037C138.824 27.6469 136.79 28.7685 134.208 28.7685ZM135.538 25.3646C136.894 25.3646 138.042 24.9864 138.981 24.23C139.92 23.4735 140.494 22.4041 140.702 21.0217L140.976 19.1828H138.003C136.02 19.1828 134.573 19.4437 133.66 19.9653C132.773 20.487 132.33 21.3738 132.33 22.6258C132.33 23.4344 132.603 24.0996 133.151 24.6212C133.699 25.1168 134.495 25.3646 135.538 25.3646Z" fill="#454545" fill-opacity="0.66"/>
<path d="M156.428 28.7293C154.29 28.7293 152.751 28.1555 151.812 27.0078C150.873 25.8602 150.573 24.243 150.912 22.1563L152.594 11.4752H149.855L150.403 7.91483H153.142L153.885 3.41545H158.619L157.876 7.91483H162.297L161.749 11.4752H157.328L155.646 22.1172C155.489 23.1345 155.581 23.8518 155.92 24.2691C156.259 24.6603 156.859 24.856 157.72 24.856C158.528 24.856 159.272 24.7255 159.95 24.4647L159.363 28.2207C158.554 28.5598 157.576 28.7293 156.428 28.7293Z" fill="#454545" fill-opacity="0.66"/>
<path d="M174.049 28.7685C170.997 28.7685 168.506 27.8295 166.576 25.9515C164.645 24.0735 163.68 21.5434 163.68 18.3612V18.0482C163.68 14.9182 164.632 12.3751 166.536 10.4188C168.467 8.46258 170.905 7.48445 173.853 7.48445C176.618 7.48445 178.913 8.3452 180.739 10.0667C182.591 11.7882 183.517 14.3705 183.517 17.8135V19.1828H168.532C168.61 21.1391 169.132 22.6389 170.097 23.6822C171.062 24.7255 172.418 25.2472 174.166 25.2472C176.931 25.2472 178.496 24.2039 178.861 22.1172H183.439C183.099 24.2561 182.108 25.8993 180.465 27.047C178.822 28.1946 176.683 28.7685 174.049 28.7685ZM168.61 16.0137H178.822C178.587 12.6229 176.931 10.9275 173.853 10.9275C172.444 10.9275 171.271 11.3839 170.332 12.2968C169.419 13.1837 168.845 14.4226 168.61 16.0137Z" fill="#454545" fill-opacity="0.66"/>
<path d="M187.745 28.3772V7.91483H192.479V11.7491C193.836 9.01033 196.053 7.62791 199.131 7.60183V12.023C196.914 12.049 195.244 12.4925 194.123 13.3532C193.027 14.214 192.479 15.6746 192.479 17.7352V28.3772H187.745Z" fill="#454545" fill-opacity="0.66"/>
</svg>
