<svg width="223" height="30" viewBox="0 0 223 30" fill="none" xmlns="http://www.w3.org/2000/svg">
<path d="M19.3476 29.8582H30.2504L38.7348 14.909H27.832L19.3476 29.8582ZM8.48439 29.8582H19.3872L10.8632 14.909H0L8.48439 29.8582ZM10.8632 14.909H27.832L19.3476 0L10.8632 14.909Z" fill="#454545" fill-opacity="0.66"/>
<path d="M56.4965 14.9894H73.7825V8.68019H48.3689V29.8582H56.4965V24.3929H68.5888V18.8473H56.4965V14.9894Z" fill="#454545" fill-opacity="0.66"/>
<path d="M83.2977 21.7808L87.1434 14.4268L90.9891 21.7808H83.2977ZM82.5047 8.68019L70.4521 29.8582H79.0951L80.7603 26.6433H93.5662L95.2313 29.8582H104.231L92.1389 8.68019H82.5047Z" fill="#454545" fill-opacity="0.66"/>
<path d="M124.253 8.68019L116.799 22.7855L109.346 8.68019H100.029L112.121 29.8582H121.358L133.451 8.68019H124.253Z" fill="#454545" fill-opacity="0.66"/>
<path d="M153.433 24.7144H143.481V21.4995H153.433C154.463 21.4995 155.217 22.1827 155.217 23.107C155.217 24.0714 154.463 24.7144 153.433 24.7144ZM152.759 13.824C153.789 13.824 154.543 14.5072 154.543 15.4314C154.543 16.3557 153.789 17.0389 152.759 17.0389H143.481V13.824H152.759ZM159.657 19.1286C161.758 18.0837 162.789 16.4361 162.789 14.5473C162.789 11.0512 159.895 8.68019 154.186 8.68019H135.592V29.8984H154.582C160.688 29.8984 163.424 27.4471 163.424 23.9107C163.424 21.9014 162.234 20.093 159.657 19.1286Z" fill="#454545" fill-opacity="0.66"/>
<path d="M175.833 21.6201H187.965V16.8781H175.833V14.3866H193.079V8.68019H167.666V29.8582H193.674V24.192H175.833V21.6201Z" fill="#454545" fill-opacity="0.66"/>
<path d="M222.814 8.68019H195.458V14.3866H205.053V29.8582H213.259V14.3866H222.814V8.68019Z" fill="#454545" fill-opacity="0.66"/>
</svg>
