<svg width="159" height="61" viewBox="0 0 159 61" fill="none" xmlns="http://www.w3.org/2000/svg">
<path d="M44.8802 34.0459L40.8029 21.5718H40.5437L36.4584 34.0459H44.8802Z" fill="#454545" fill-opacity="0.66"/>
<path d="M77.9982 39.0999C76.864 40.9992 75.3462 41.9489 73.445 41.9489C72.1811 41.9489 71.0793 41.5304 70.1395 40.6934C69.1997 39.8457 68.4705 38.5795 67.952 36.8948C67.4443 35.1994 67.1904 33.0855 67.1904 30.5531C67.2012 26.8082 67.7738 23.9968 68.908 22.119C70.0423 20.2412 71.5546 19.3023 73.445 19.3023C74.7089 19.3023 75.8053 19.7207 76.7343 20.5577C77.6741 21.3947 78.3979 22.6448 78.9056 24.308C79.4241 25.9712 79.6834 28.0529 79.6834 30.5531C79.6942 34.3517 79.1325 37.2007 77.9982 39.0999Z" fill="#454545" fill-opacity="0.66"/>
<path fill-rule="evenodd" clip-rule="evenodd" d="M16.5675 1.56681L0.0889986 57.7242C-0.327507 59.1436 0.771953 60.5535 2.25963 60.5076L155.912 55.7708C157.095 55.7344 158.034 54.7715 158.034 53.5962V5.8798C158.034 4.70127 157.09 3.73701 155.904 3.70499L18.7297 0.000811259C17.7344 -0.0260651 16.8461 0.617296 16.5675 1.56681ZM24.6966 47.0029H32.2151L34.6767 39.4862H46.6585L49.1154 47.0029H56.6338L45.1941 14.039H36.1525L24.6966 47.0029ZM66.2506 45.6831C68.2599 47.0351 70.658 47.7165 73.445 47.7272C76.232 47.7272 78.6247 47.0512 80.6232 45.6992C82.6216 44.3471 84.1556 42.3888 85.225 39.8242C86.3052 37.2597 86.8454 34.1693 86.8454 30.5531C86.8562 26.9584 86.3214 23.9003 85.2412 21.3786C84.161 18.8462 82.6162 16.9147 80.607 15.5842C78.6085 14.2536 76.2212 13.5883 73.445 13.5883C70.6688 13.5883 68.2761 14.2536 66.2668 15.5842C64.2684 16.904 62.729 18.8301 61.6488 21.3625C60.5794 23.8949 60.0447 26.9584 60.0447 30.5531C60.0339 34.1586 60.5632 37.2436 61.6326 39.8082C62.7128 42.3727 64.2522 44.331 66.2506 45.6831ZM106.286 47.0029V14.039H99.6907L91.4755 19.2057V25.3864L99.075 20.6543H99.2694V47.0029H106.286ZM114.367 14.039V47.0029H121.383V37.6352L124.835 33.4504L133.925 47.0029H142.318L129.858 28.7987L142.172 14.039H133.763L121.821 28.5734H121.383V14.039H114.367Z" fill="#454545" fill-opacity="0.66"/>
</svg>
