<svg width="165" height="58" viewBox="0 0 165 58" fill="none" xmlns="http://www.w3.org/2000/svg">
<path d="M46.4875 56.2586C43.9002 56.2586 41.3709 55.4849 39.2196 54.0352C37.0683 52.5856 35.3915 50.5252 34.4014 48.1146C33.4113 45.704 33.1522 43.0514 33.657 40.4923C34.1617 37.9332 35.4077 35.5826 37.2372 33.7375C39.0668 31.8925 41.3977 30.6361 43.9354 30.127C46.473 29.618 49.1034 29.8793 51.4938 30.8778C53.8842 31.8763 55.9273 33.5672 57.3648 35.7367C58.8023 37.9062 59.5695 40.4568 59.5695 43.0661C59.5656 46.5637 58.1861 49.917 55.7336 52.3903C53.2811 54.8635 49.9559 56.2547 46.4875 56.2586Z" fill="#454545" fill-opacity="0.66"/>
<path d="M12.8691 57.0693C10.0705 57.0655 7.35139 56.1301 5.13392 54.4083C2.91645 52.6865 1.32468 50.2747 0.605709 47.5471C0.522881 47.2425 0.45467 46.9329 0.396203 46.6234C-0.429657 43.3864 0.0466623 39.9514 1.72136 37.067C3.39605 34.1826 6.13336 32.0826 9.33675 31.2247L10.5743 30.9054C12.5963 30.414 14.5062 29.9227 16.0361 28.7287C19.1933 26.272 20.4211 22.9653 19.8657 18.3025C19.7926 17.6785 19.6659 17.0446 19.5343 16.3764C19.4028 15.7082 19.2907 15.1677 19.203 14.529C18.9932 12.7081 19.1669 10.863 19.7127 9.1144C20.2585 7.36583 21.1641 5.75312 22.3704 4.38174C23.5767 3.01037 25.0564 1.91121 26.7129 1.15614C28.3693 0.401075 30.1651 0.00710719 31.9829 0C34.5842 0.00608526 37.1209 0.816812 39.2509 2.32276C41.3808 3.8287 43.0013 5.95735 43.8937 8.42141C44.7861 10.8855 44.9073 13.5663 44.2411 16.1021C43.5749 18.6378 42.1534 20.9064 40.1683 22.6017L40.1049 22.6508C38.1776 24.1434 35.9267 25.1537 33.5371 25.5989C26.7599 27.0876 23.4809 31.6915 24.543 38.1969C24.6258 38.6882 24.7476 39.2238 24.8792 39.7741C24.9815 40.1966 25.0789 40.6143 25.1618 41.0319C25.6529 42.9261 25.7066 44.9087 25.3187 46.8271C24.9308 48.7455 24.1117 50.5486 22.9244 52.0976C21.737 53.6467 20.2131 54.9004 18.4699 55.7623C16.7267 56.6242 14.8106 57.0714 12.8691 57.0693Z" fill="#454545" fill-opacity="0.66"/>
<path d="M103.532 32.291C103.273 32.0063 103.073 31.6723 102.944 31.3086C102.815 30.9449 102.76 30.5589 102.781 30.1733V22.8474H107.829V18.7594H102.669V14.5339L97.7971 12.5194V18.784H94.3134V22.8474H97.685V30.8562C97.6049 31.7579 97.7216 32.6663 98.0269 33.5177C98.3321 34.369 98.8185 35.1426 99.4519 35.7842C100.085 36.4257 100.85 36.9196 101.693 37.2312C102.536 37.5427 103.436 37.6644 104.331 37.5876H107.917V33.0329H105.617C105.24 33.0518 104.863 32.9985 104.506 32.8756C104.146 32.749 103.814 32.5501 103.532 32.291Z" fill="#454545" fill-opacity="0.66"/>
<path d="M125.354 31.8782C124.391 32.7992 123.113 33.3125 121.786 33.3125C120.458 33.3125 119.18 32.7992 118.217 31.8782C117.743 31.3836 117.374 30.7972 117.132 30.1544C116.89 29.5117 116.78 28.826 116.809 28.1391C116.78 27.4546 116.888 26.7713 117.127 26.1298C117.365 25.4883 117.729 24.9017 118.197 24.4049C119.162 23.4822 120.441 22.9679 121.771 22.9679C123.101 22.9679 124.38 23.4822 125.345 24.4049C125.816 24.8998 126.184 25.4855 126.426 26.1272C126.668 26.7689 126.779 27.4532 126.753 28.1391C126.773 28.8095 126.662 29.4774 126.426 30.1045C126.187 30.7388 125.823 31.3173 125.354 31.8045V31.8782ZM126.918 19.5161C125.325 18.6688 123.55 18.226 121.749 18.226C119.947 18.226 118.173 18.6688 116.58 19.5161C115.078 20.3474 113.832 21.5799 112.979 23.0783C112.124 24.6309 111.675 26.3777 111.675 28.1539C111.675 29.93 112.124 31.6768 112.979 33.2294C113.841 34.7278 115.093 35.9597 116.599 36.7916C118.176 37.6597 119.948 38.1031 121.744 38.079C123.554 38.1075 125.339 37.6532 126.918 36.7622C128.425 35.9322 129.675 34.6975 130.529 33.195C131.391 31.6439 131.844 29.8954 131.844 28.117C131.844 26.3387 131.391 24.5901 130.529 23.039C129.665 21.5556 128.417 20.3377 126.918 19.5161Z" fill="#454545" fill-opacity="0.66"/>
<path d="M163.095 20.2727C162.505 19.5978 161.775 19.0628 160.956 18.706C160.137 18.3492 159.25 18.1795 158.359 18.2091C157.219 18.1996 156.095 18.4784 155.09 19.0198C154.095 19.5457 153.239 20.3017 152.59 21.2259C152.065 20.2953 151.292 19.5312 150.359 19.0198C149.382 18.4844 148.284 18.2136 147.172 18.2337C146.099 18.2345 145.042 18.4939 144.088 18.9903C143.127 19.4729 142.284 20.1662 141.623 21.0196V18.6906H137.15V37.4844H142.188V27.3333C142.105 26.1238 142.432 24.9218 143.114 23.9234C143.432 23.5211 143.841 23.2006 144.306 22.9879C144.77 22.7753 145.279 22.6766 145.789 22.7C146.181 22.6689 146.576 22.74 146.934 22.9063C147.301 23.0653 147.623 23.3155 147.869 23.6335C148.394 24.4893 148.639 25.4894 148.571 26.4931V37.4402H153.472V27.2694C153.389 26.0599 153.716 24.8579 154.398 23.8595C154.709 23.4601 155.11 23.141 155.567 22.9283C156.025 22.7156 156.526 22.6154 157.029 22.6361C157.425 22.609 157.821 22.6799 158.184 22.8425C158.548 23.0045 158.868 23.2542 159.114 23.5696C159.645 24.4215 159.897 25.4201 159.835 26.4243V37.3812H164.873V25.5891C164.955 23.6558 164.321 21.7609 163.095 20.2727Z" fill="#454545" fill-opacity="0.66"/>
<path d="M83.5994 31.8586C82.6226 32.8021 81.3222 33.3289 79.9696 33.3289C78.6169 33.3289 77.3165 32.8021 76.3397 31.8586C75.4053 30.863 74.8845 29.5443 74.8845 28.1735C74.8845 26.8027 75.4053 25.484 76.3397 24.4885C77.3177 23.5471 78.6176 23.0219 79.9696 23.0219C81.3215 23.0219 82.6214 23.5471 83.5994 24.4885C84.5405 25.4806 85.0657 26.8006 85.0657 28.1735C85.0657 29.5464 84.5405 30.8665 83.5994 31.8586ZM85.5483 18.784V20.5037C83.8835 19.0353 81.7323 18.2514 79.5213 18.3074C77.7692 18.2879 76.0431 18.7353 74.5175 19.6045C73.0462 20.4394 71.8348 21.6712 71.0193 23.1618C70.1893 24.7218 69.755 26.4646 69.755 28.2349C69.755 30.0052 70.1893 31.748 71.0193 33.308C71.8373 34.8042 73.0542 36.0398 74.5321 36.8752C76.0641 37.7536 77.798 38.2111 79.5603 38.2018C81.7676 38.2322 83.9072 37.4336 85.5629 35.9613V37.6613H89.982V18.8675H85.5239L85.5483 18.784Z" fill="#454545" fill-opacity="0.66"/>
</svg>
