<svg width="104" height="89" viewBox="0 0 104 89" fill="none" xmlns="http://www.w3.org/2000/svg">
<path d="M6.24567 31.7927V41.7672H7.36431C8.01684 41.7672 8.46741 41.5963 8.71599 41.2545C8.99565 40.8816 9.13548 40.2291 9.13548 39.2969V34.263C9.13548 33.3308 8.99565 32.6938 8.71599 32.352C8.46741 31.9791 8.01684 31.7927 7.36431 31.7927H6.24567ZM1.30503 61.2035V28.0173H8.2965C10.223 28.0173 11.6679 28.5611 12.6312 29.6486C13.5945 30.7051 14.0761 32.15 14.0761 33.9834V39.2503C14.0761 40.5864 13.7032 41.5652 12.9575 42.1867C12.2428 42.8081 11.0931 43.3053 9.50836 43.6782V43.7714C11.2174 44.1132 12.4292 44.6259 13.1439 45.3095C13.8586 45.9932 14.216 47.205 14.216 48.9451V54.212C14.216 56.2939 13.7188 57.9874 12.7244 59.2925C11.7301 60.5665 10.2386 61.2035 8.24989 61.2035H1.30503ZM6.24567 45.729V57.2417H7.22448C7.93916 57.2417 8.45187 57.0552 8.7626 56.6823C9.10441 56.3095 9.27531 55.6258 9.27531 54.6315V48.3392C9.27531 47.3448 9.10441 46.6612 8.7626 46.2883C8.45187 45.9155 7.93916 45.729 7.22448 45.729H6.24567ZM21.7671 33.3774V55.8434C21.7671 56.6513 21.8759 57.195 22.0934 57.4747C22.342 57.7544 22.7459 57.8942 23.3052 57.8942C23.8335 57.8942 24.2064 57.7544 24.4239 57.4747C24.6725 57.195 24.7967 56.6513 24.7967 55.8434V33.3774C24.7967 32.5695 24.6725 32.0257 24.4239 31.7461C24.2064 31.4664 23.8335 31.3266 23.3052 31.3266C22.7459 31.3266 22.342 31.4664 22.0934 31.7461C21.8759 32.0257 21.7671 32.5695 21.7671 33.3774ZM16.8265 56.2628V32.9579C16.8265 30.9693 17.4479 29.5399 18.6909 28.6698C19.9649 27.7998 21.4874 27.3648 23.2586 27.3648C25.0609 27.3648 26.5835 27.7998 27.8264 28.6698C29.1004 29.5399 29.7374 30.9693 29.7374 32.9579V56.2628C29.7374 58.2515 29.1004 59.6809 27.8264 60.551C26.5835 61.421 25.0609 61.856 23.2586 61.856C21.4874 61.856 19.9649 61.421 18.6909 60.551C17.4479 59.6809 16.8265 58.2515 16.8265 56.2628ZM31.6021 28.0173H45.2122V32.352H40.8775V61.2035H35.9369V32.352H31.6021V28.0173ZM50.3531 47.8731H52.9167L51.8913 34.0766H51.565L50.3531 47.8731ZM44.3405 61.2035L48.1159 28.0173H55.5268L59.3022 61.2035H54.315L53.3828 52.2078H49.887L48.815 61.2035H44.3405ZM73.7982 39.9494H68.8576V33.3774C68.8576 32.5695 68.7333 32.0257 68.4847 31.7461C68.2672 31.4664 67.8943 31.3266 67.3661 31.3266C66.8068 31.3266 66.4028 31.4664 66.1542 31.7461C65.9367 32.0257 65.828 32.5695 65.828 33.3774V37.4791C65.828 38.1316 66.4805 39.2969 67.7856 40.9748C69.1217 42.6528 70.4579 44.4084 71.794 46.2417C73.1302 48.044 73.7982 49.4267 73.7982 50.39V56.2628C73.7982 58.2515 73.1612 59.6809 71.8872 60.551C70.6443 61.421 69.1217 61.856 67.3195 61.856C65.5483 61.856 64.0257 61.421 62.7517 60.551C61.5088 59.6809 60.8873 58.2515 60.8873 56.2628V48.6188H65.828V55.8434C65.828 56.6513 65.9367 57.195 66.1542 57.4747C66.4028 57.7544 66.8068 57.8942 67.3661 57.8942C67.8943 57.8942 68.2672 57.7544 68.4847 57.4747C68.7333 57.195 68.8576 56.6513 68.8576 55.8434V52.3476C68.8576 51.5086 68.5779 50.592 68.0186 49.5976C67.4904 48.6033 66.8223 47.64 66.0144 46.7078C65.2376 45.7756 64.4607 44.8434 63.6839 43.9112C62.9071 42.948 62.239 41.9226 61.6797 40.835C61.1514 39.7474 60.8873 38.7065 60.8873 37.7121V32.9579C60.8873 30.9693 61.5088 29.5399 62.7517 28.6698C64.0257 27.7998 65.5483 27.3648 67.3195 27.3648C69.1217 27.3648 70.6443 27.7998 71.8872 28.6698C73.1612 29.5399 73.7982 30.9693 73.7982 32.9579V39.9494ZM81.3494 61.2035H76.4087V28.0173H81.3494V40.7418H84.0994V28.0173H89.04V61.2035H84.0994V45.0765H81.3494V61.2035ZM91.6571 28.0173H102.657V32.352H96.5977V40.7418H102.424V45.0765H96.5977V56.8688H102.75V61.2035H91.6571V28.0173Z" fill="#454545" fill-opacity="0.66"/>
<path d="M79.7643 67.6271C73.1698 75.4621 63.2902 80.4407 52.2479 80.4407C41.2056 80.4407 31.326 75.4621 24.7316 67.6271H14.2371C22.0485 80.4334 36.1497 88.9831 52.2479 88.9831C68.3461 88.9831 82.4473 80.4334 90.2587 67.6271H79.7643Z" fill="#454545" fill-opacity="0.66"/>
<path d="M24.7316 21.3558C31.326 13.5208 41.2056 8.54216 52.2479 8.54216C63.2902 8.54216 73.1698 13.5208 79.7643 21.3558H90.2587C82.4473 8.54942 68.3461 -0.000244141 52.2479 -0.000244141C36.1497 -0.000244141 22.0485 8.54942 14.2371 21.3558H24.7316Z" fill="#454545" fill-opacity="0.66"/>
<rect x="-4.57764e-05" y="20.6442" width="103.221" height="0.711867" fill="#454545" fill-opacity="0.66"/>
<rect x="-4.57764e-05" y="23.4916" width="103.221" height="0.711867" fill="#454545" fill-opacity="0.66"/>
<rect x="-4.57764e-05" y="64.7798" width="103.221" height="0.711867" fill="#454545" fill-opacity="0.66"/>
<rect x="-4.57764e-05" y="67.6273" width="103.221" height="0.711867" fill="#454545" fill-opacity="0.66"/>
</svg>
