<svg width="170" height="46" viewBox="0 0 170 46" fill="none" xmlns="http://www.w3.org/2000/svg">
<path d="M94.9029 23.286H101.145C104.075 23.286 105.731 22.0204 105.731 19.869C105.731 17.7176 104.075 16.452 101.145 16.452H94.9029V23.286Z" fill="#454545" fill-opacity="0.66"/>
<path fill-rule="evenodd" clip-rule="evenodd" d="M0 22.7797C0 10.2509 10.3183 0 22.9296 0H146.495C159.106 0 169.424 10.2509 169.424 22.7797C169.424 35.3086 159.106 45.5595 146.495 45.5595H0V22.7797ZM68.0243 16.452H76.0497V32.7775H79.7439V16.452H87.7692V13.2882H68.0243V16.452ZM37.5789 29.4871H39.1075C39.9992 29.4871 40.8909 30.2464 41.0183 31.2589V35.6883H37.4515V32.7775H19.9995C18.9804 32.7775 18.0887 31.8916 18.0887 30.8792V13.1616H21.9103V29.4871H33.7573V13.1616H37.5789V29.4871ZM62.9288 13.2882C62.9288 13.2882 61.655 13.0351 60.6359 14.1741L48.2794 26.7029V13.1616H44.4578V31.2589C44.4578 32.2713 45.6042 33.1572 46.3686 33.1572C47.1329 33.1572 47.2603 33.0306 47.6424 32.651C47.7211 32.651 47.7512 32.6026 47.7928 32.5358C47.8185 32.4945 47.8485 32.4462 47.8972 32.3979L61.1454 19.1097V32.651H64.967V15.0599C64.8396 14.0475 63.9479 13.2882 62.9288 13.2882ZM145.475 27.8419C145.858 27.4622 146.24 26.956 146.495 26.4498L149.807 28.9809C149.424 29.4871 149.042 29.9933 148.533 30.4995C147.514 31.512 146.495 32.2713 145.221 32.7775C143.947 33.2837 142.546 33.5368 141.144 33.5368C139.616 33.5368 138.342 33.2837 137.068 32.7775C135.794 32.2713 134.775 31.512 133.756 30.4995C132.864 29.4871 132.1 28.3481 131.59 27.0826C131.081 25.817 130.826 24.5515 130.826 23.0328C130.826 21.5142 131.081 20.2487 131.59 18.9831C132.1 17.7176 132.737 16.7051 133.756 15.6927C134.775 14.6803 135.794 13.921 137.068 13.4147C138.342 12.9085 139.743 12.6554 141.144 12.6554C142.673 12.6554 143.947 12.9085 145.221 13.4147C146.495 13.921 147.514 14.6803 148.533 15.6927V15.8193L145.603 18.0972C144.966 17.4645 144.329 17.0848 143.565 16.7051C142.8 16.3255 141.909 16.1989 141.017 16.1989C139.998 16.1989 139.233 16.3255 138.469 16.7051C137.705 16.9583 137.068 17.4645 136.431 18.0972C135.794 18.73 135.284 19.4893 135.03 20.2487C134.648 21.008 134.52 21.8939 134.52 22.9063C134.393 24.0453 134.52 24.9312 134.902 25.6905C135.157 26.4498 135.667 27.2091 136.304 27.8419C136.941 28.4747 137.577 28.8543 138.342 29.234C139.106 29.6137 139.998 29.7402 140.889 29.7402C141.909 29.7402 142.673 29.6137 143.437 29.234C144.202 28.9809 144.838 28.4747 145.475 27.8419ZM126.622 13.1616L121.654 23.7922L115.412 13.1616H111.208L119.743 27.5888C118.979 28.9809 117.578 29.8668 115.922 29.8668C114.903 29.8668 114.011 29.6137 113.119 29.3606V32.7775C113.884 33.1572 115.03 33.2837 116.559 33.2837C119.361 33.2837 121.781 31.512 123.438 27.9685L130.699 13.2882H126.622V13.1616ZM92.9921 13.1616H101.527C103.947 13.1616 105.986 13.7944 107.259 14.9334C108.661 16.1989 109.425 17.7176 109.425 19.7424C109.425 21.7673 108.661 23.4125 107.259 24.678C105.858 25.9436 103.947 26.5764 101.4 26.5764H94.9029V32.7775H91.0813V15.0599C91.0813 14.0475 91.973 13.1616 92.9921 13.1616Z" fill="#454545" fill-opacity="0.66"/>
</svg>
